<svg width="57" height="57" viewBox="0 0 57 57" fill="none" xmlns="http://www.w3.org/2000/svg">
<path d="M28.2 16.7001C21.2 16.7001 15.4 22.4001 15.4 29.5001C15.4 36.6001 21.1 42.3001 28.2 42.3001C35.3 42.3001 41 36.5001 41 29.5001C41 22.5001 35.2 16.7001 28.2 16.7001ZM28.2 37.7001C23.7 37.7001 20 34.0001 20 29.5001C20 25.0001 23.7 21.3001 28.2 21.3001C32.7 21.3001 36.4 25.0001 36.4 29.5001C36.4 34.0001 32.7 37.7001 28.2 37.7001Z" fill="white"/>
<path d="M41.5 19.3C43.1017 19.3 44.4 18.0016 44.4 16.4C44.4 14.7984 43.1017 13.5 41.5 13.5C39.8984 13.5 38.6 14.7984 38.6 16.4C38.6 18.0016 39.8984 19.3 41.5 19.3Z" fill="white"/>
<path d="M49 8.90005C46.4 6.20005 42.7 4.80005 38.5 4.80005H17.9C9.20002 4.80005 3.40002 10.6 3.40002 19.3V39.8C3.40002 44.1 4.80002 47.8 7.60002 50.5C10.3 53.1 13.9 54.4001 18 54.4001H38.4C42.7 54.4001 46.3 53 48.9 50.5C51.6 47.9001 53 44.2001 53 39.9001V19.3C53 15.1 51.6 11.5 49 8.90005ZM48.6 39.9001C48.6 43 47.5 45.5 45.7 47.2001C43.9 48.9001 41.4 49.8 38.4 49.8H18C15 49.8 12.5 48.9001 10.7 47.2001C8.90002 45.4001 8.00002 42.9 8.00002 39.8V19.3C8.00002 16.3 8.90002 13.8 10.7 12C12.4 10.3 15 9.40005 18 9.40005H38.6C41.6 9.40005 44.1 10.3 45.9 12.1C47.6 13.9 48.6 16.4 48.6 19.3V39.9001Z" fill="white"/>
</svg>
