<svg width="91" height="91" viewBox="0 0 91 91" fill="none" xmlns="http://www.w3.org/2000/svg">
<path d="M49.2397 67.9384L49.2397 29.0801L62.613 42.4534C63.5866 43.427 65.1653 43.427 66.1383 42.454C67.1119 41.4804 67.1119 39.901 66.1383 38.9274L48.5092 21.299C48.3933 21.1831 48.2655 21.0796 48.1296 20.9886C48.0667 20.9468 47.9988 20.9175 47.9333 20.8814C47.856 20.8403 47.7825 20.7929 47.7008 20.7599C47.6167 20.7243 47.5294 20.7044 47.4422 20.6795C47.373 20.6589 47.3069 20.6321 47.2359 20.6177C47.0738 20.5853 46.9105 20.5685 46.7466 20.5685C46.7447 20.5685 46.7428 20.5691 46.741 20.5691C46.5795 20.5698 46.4175 20.586 46.2585 20.6177C46.1837 20.6327 46.1146 20.6608 46.041 20.6826C45.9581 20.7069 45.874 20.7256 45.7936 20.7592C45.7069 20.7954 45.6284 20.844 45.5467 20.8889C45.4857 20.9225 45.4233 20.9493 45.3647 20.988C45.227 21.079 45.0986 21.1837 44.982 21.3002L27.3548 38.9281C26.3813 39.9016 26.3813 41.4804 27.3542 42.454C28.3278 43.4276 29.9066 43.4276 30.8808 42.454L44.2534 29.0807L44.2534 67.9384C44.2534 69.3152 45.3697 70.4315 46.7466 70.4315C48.1234 70.4315 49.2397 69.3152 49.2397 67.9384Z" fill="white"/>
<circle cx="45.5" cy="45.5" r="43" stroke="white" stroke-width="5"/>
</svg>
