<svg width="176" height="37" viewBox="0 0 176 37" fill="none" xmlns="http://www.w3.org/2000/svg">
<path d="M8.54693 27.6827C9.26443 27.6931 9.97965 27.5991 10.6702 27.4036C11.2495 27.2369 11.7954 26.9706 12.2837 26.6165C12.7357 26.2801 13.1242 25.8654 13.4309 25.3921C13.7419 24.9015 13.9792 24.3677 14.1353 23.8078C14.2493 23.4135 14.3257 23.0091 14.3634 22.6003C14.407 22.1563 14.4271 21.7257 14.4271 21.3087V7.6792H17.1106V21.2447C17.1106 21.7594 17.0838 22.2942 17.0301 22.8526C16.982 23.3786 16.8945 23.9003 16.7685 24.4133C16.5682 25.2053 16.2529 25.9635 15.8326 26.6636C15.4144 27.3605 14.8639 27.9684 14.2124 28.453C13.4883 28.9855 12.6765 29.3863 11.8141 29.637C10.7463 29.9402 9.63976 30.0842 8.53015 30.0642C7.46263 30.0813 6.39797 29.9488 5.36699 29.6706C4.53362 29.4417 3.74524 29.072 3.0357 28.5775C2.40289 28.1308 1.86001 27.5681 1.43567 26.9192C1.01885 26.2687 0.693747 25.5635 0.469616 24.8237C0.303022 24.2494 0.185203 23.662 0.117412 23.0678C0.0486221 22.4626 0.0139062 21.8539 0.0134277 21.2447V7.6792H2.69692V21.3087C2.69727 21.8172 2.73201 22.3252 2.8009 22.829C2.8633 23.3126 2.97572 23.7883 3.13634 24.2485C3.48735 25.2705 4.15641 26.1525 5.04497 26.7645C5.91934 27.3767 7.08666 27.6827 8.54693 27.6827Z" fill="white"/>
<path d="M33.8388 19.9296C35.1806 21.867 36.5066 23.8605 37.8171 25.9101H37.9144C37.7735 23.7731 37.703 21.5934 37.703 19.3712V7.6792H40.3865V29.6538H37.703L29.1025 17.4001C27.6198 15.2676 26.2937 13.2752 25.1242 11.4229H25.0537C25.1991 13.4277 25.2707 15.7654 25.2684 18.4361V29.6538H22.5849V7.6792H25.2382L33.8388 19.9296Z" fill="white"/>
<path d="M164.669 22.0083C163.804 22.0083 162.948 21.524 162.11 20.5552C161.271 19.5865 160.097 18.046 158.608 15.9269C157.446 14.2093 156.128 12.6026 154.673 11.127C153.539 10.0439 152.326 9.50234 151.033 9.50234C150.393 9.4959 149.77 9.71357 149.272 10.1179C148.615 10.6722 148.031 11.3086 147.535 12.0116L147.662 12.5061C147.902 12.0566 148.264 11.6841 148.705 11.4312C149.146 11.1783 149.65 11.0554 150.158 11.0765C151.366 11.0765 152.532 11.6674 153.657 12.8492C155.091 14.4338 156.387 16.1386 157.531 17.9451C158.638 19.678 159.842 21.3468 161.137 22.9434C162.083 24.0646 163.054 24.6252 164.052 24.6252C164.611 24.6231 165.157 24.452 165.618 24.1342C166.176 23.7366 166.651 23.2339 167.017 22.6542C167.493 21.9214 167.873 21.13 168.147 20.2996C168.479 19.3338 168.704 18.3344 168.818 17.3194H168.691C167.749 20.4454 166.409 22.0083 164.669 22.0083Z" fill="white"/>
<path d="M108.708 11.9476C108.045 11.2051 107.226 10.6193 106.31 10.2321C104.403 9.45631 102.269 9.45631 100.363 10.2321C99.4465 10.6193 98.6274 11.2051 97.9641 11.9476C97.2453 12.7709 96.701 13.7322 96.3641 14.773C95.9584 16.0351 95.7635 17.3558 95.7872 18.6816C95.7625 20.006 95.961 21.3252 96.3742 22.5834C96.7158 23.6205 97.2622 24.578 97.9809 25.3988C98.6411 26.1431 99.4611 26.7273 100.379 27.1075C101.328 27.4963 102.344 27.6918 103.368 27.6827C104.383 27.6915 105.389 27.4959 106.327 27.1075C107.238 26.7235 108.052 26.1396 108.708 25.3988C109.426 24.5784 109.97 23.6207 110.308 22.5834C111.078 20.0372 111.078 17.3192 110.308 14.773C109.97 13.7327 109.426 12.7717 108.708 11.9476ZM107.997 23.1451C106.918 24.2337 105.495 24.9127 103.972 25.0662C102.449 25.2197 100.92 24.8382 99.646 23.9868C98.3722 23.1354 97.4327 21.867 96.988 20.3982C96.5432 18.9294 96.6208 17.3514 97.2075 15.9336C97.7941 14.5157 98.8535 13.3461 100.205 12.6245C101.556 11.9029 103.115 11.674 104.615 11.977C106.116 12.28 107.465 13.096 108.433 14.2857C109.4 15.4754 109.925 16.965 109.919 18.5C109.929 19.3643 109.763 20.2217 109.433 21.0201C109.102 21.8185 108.614 22.5415 107.997 23.1451Z" fill="white"/>
<path d="M103.039 13.6127C101.993 13.6127 101 14.0612 100.061 14.9581C99.108 15.8921 98.5466 17.1552 98.4908 18.49H108.296C108.223 17.1609 107.651 15.9087 106.696 14.9851C106.207 14.5251 105.632 14.167 105.005 13.9314C104.377 13.6959 103.709 13.5875 103.039 13.6127Z" fill="white"/>
<path d="M169.603 0H49.8995C48.203 0 46.5759 0.675809 45.3763 1.87875C44.1767 3.0817 43.5027 4.71324 43.5027 6.41446V30.5855C43.5027 32.2868 44.1767 33.9183 45.3763 35.1213C46.5759 36.3242 48.203 37 49.8995 37H169.603C171.3 37 172.927 36.3242 174.126 35.1213C175.326 33.9183 176 32.2868 176 30.5855V6.41446C176 4.71324 175.326 3.0817 174.126 1.87875C172.927 0.675809 171.3 0 169.603 0ZM63.6826 29.6538L53.0056 18.8902H52.9721V29.6538H50.2886V7.67918H52.9721V18.5336H53.0056L63.0687 7.67918H65.7354L55.518 18.6177L66.3426 29.6538H63.6826ZM88.3975 29.6538H85.714L77.1168 17.4001C75.6319 15.2675 74.3047 13.2752 73.1352 11.4229H73.0379C73.1787 13.4276 73.2503 15.7654 73.2526 18.4361V29.6538H70.5691V7.67918H73.2224L81.8196 19.9295C83.1613 21.867 84.4885 23.8605 85.8012 25.9101H85.8985C85.7576 23.7731 85.6872 21.5934 85.6872 19.3712V7.67918H88.3707L88.3975 29.6538ZM112.824 23.2629C112.386 24.5855 111.69 25.8077 110.778 26.8586C109.888 27.8643 108.793 28.6671 107.568 29.2132C106.243 29.7906 104.812 30.0784 103.368 30.0574C101.89 30.0821 100.424 29.7945 99.0644 29.2132C97.8319 28.6743 96.7326 27.8705 95.8442 26.8586C94.9433 25.805 94.2593 24.5829 93.8316 23.2629C93.3571 21.7832 93.126 20.2358 93.1473 18.6816C93.1287 17.117 93.3725 15.5604 93.8685 14.0768C94.3095 12.7526 95.0046 11.5276 95.9146 10.471C96.8018 9.46206 97.8971 8.65865 99.1247 8.11646C100.458 7.53681 101.899 7.24898 103.351 7.27218C104.821 7.24698 106.28 7.53474 107.631 8.11646C108.86 8.6561 109.956 9.45989 110.842 10.471C111.745 11.527 112.429 12.7528 112.854 14.0768C113.334 15.5637 113.57 17.1189 113.552 18.6816C113.564 20.2398 113.318 21.7891 112.824 23.2663V23.2629ZM137.744 29.6538H135.037L131.652 16.5962C131.035 14.1654 130.629 12.4028 130.434 11.3085H130.381C130.211 12.3154 129.803 14.0779 129.156 16.5962L125.762 29.6538H123.051L116.343 7.67918H119.009L122.776 20.572C123.378 22.6395 123.889 24.5007 124.309 26.1556H124.343C124.561 25.1465 124.799 24.1375 125.054 23.1822C125.309 22.2269 125.534 21.3591 125.725 20.6023L129.049 7.67918H131.732L135.04 20.6023C135.852 23.7148 136.311 25.5659 136.419 26.1556H136.486C136.864 24.6218 137.376 22.7606 138.022 20.572L141.786 7.67918H144.469L137.744 29.6538ZM169.204 23.5993C168.701 25.5995 168.008 27.158 167.124 28.2747C166.241 29.3915 165.274 29.9521 164.223 29.9565C162.854 29.9565 161.566 29.2334 160.349 27.7904C159.131 26.3474 157.702 24.1946 156.058 21.3389C154.861 19.1888 153.554 17.1017 152.144 15.0859C151.175 13.7719 150.169 13.1148 149.125 13.1148C148.159 13.1148 147.341 13.8044 146.673 15.1835C145.963 16.7299 145.577 18.4059 145.539 20.1078H145.241C145.241 16.7913 145.835 13.9759 147.025 11.6617C148.215 9.34754 149.683 8.19046 151.429 8.19046C152.753 8.19046 154.012 8.75106 155.206 9.87228C156.684 11.3241 158.008 12.9247 159.158 14.6486C160.593 16.7162 161.699 18.2096 162.475 19.129C163.251 20.0484 164.073 20.5081 164.941 20.5081C165.301 20.5005 165.656 20.4179 165.983 20.2656C166.309 20.1133 166.601 19.8947 166.839 19.6235C167.49 18.8644 167.95 17.9602 168.181 16.9864C168.534 15.6627 168.702 14.2964 168.681 12.9265C168.677 12.1934 168.631 11.4611 168.543 10.7334C168.454 9.94059 168.315 9.15421 168.127 8.37882L168.285 8.07273C169.403 10.6336 169.962 13.6541 169.962 17.1344C169.977 19.3081 169.723 21.4752 169.204 23.5858V23.5993Z" fill="white"/>
</svg>
