<svg width="188" height="76" viewBox="0 0 188 76" fill="none" xmlns="http://www.w3.org/2000/svg">
<g filter="url(#filter0_d)">
<path d="M4.7 46.36C4.7 45.6 5.8 42.78 8 37.9C10.2 32.98 12.74 27.36 15.62 21.04C18.54 14.68 20.52 10.14 21.56 7.42L22.88 4C22.24 3.04 21.54 2.18 20.78 1.42C22.02 0.939996 23.2 0.699996 24.32 0.699996C26.84 0.699996 28.8 2.3 30.2 5.5C31.08 7.54 32.26 12.1 33.74 19.18C33.78 19.26 33.84 19.52 33.92 19.96C34 20.4 34.4 22.44 35.12 26.08C35.88 29.68 36.4 32.08 36.68 33.28C36.96 34.44 37.44 36.24 38.12 38.68C39.2 42.8 40.56 46 42.2 48.28C40.32 49.4 38.76 49.96 37.52 49.96C36.32 49.96 35.44 49.6 34.88 48.88C34.36 48.12 33.86 46.98 33.38 45.46C32.94 43.9 31.98 39.6 30.5 32.56C29.62 33.92 27.86 34.64 25.22 34.72L14.54 35.14C12.26 41.3 10.6 46.58 9.56 50.98C6.32 49.62 4.7 48.08 4.7 46.36ZM24.98 9.34C20.38 20.26 17.44 27.36 16.16 30.64H30.08C28.2 21.48 26.5 14.38 24.98 9.34ZM76.2519 22.9C76.2519 24.74 75.8519 28 75.0519 32.68C74.2919 37.32 73.9119 40.7 73.9119 42.82C73.9119 44.94 74.1719 46.48 74.6919 47.44C75.2119 48.36 76.0919 49.16 77.3319 49.84C76.8119 49.88 76.0719 49.9 75.1119 49.9C72.3919 49.9 70.4519 49.4 69.2919 48.4C68.1719 47.36 67.6119 45.52 67.6119 42.88C67.6119 41.4 68.0119 38.42 68.8119 33.94C69.6119 29.42 70.0119 26.1 70.0119 23.98C70.0119 21.34 69.2119 20.02 67.6119 20.02C65.0519 20.02 62.3919 22.28 59.6319 26.8C56.9119 31.32 55.5519 36.76 55.5519 43.12C55.5519 45.64 55.6719 47.6 55.9119 49C54.8719 49.08 54.2519 49.12 54.0519 49.12C50.5319 49.12 48.7719 47.4 48.7719 43.96C48.7719 43.16 49.1919 40.08 50.0319 34.72C50.8719 29.36 51.2919 25.1 51.2919 21.94C51.2919 18.74 50.9519 15.8 50.2719 13.12C52.6319 14.04 54.2719 15.36 55.1919 17.08C56.1519 18.76 56.6319 20.7 56.6319 22.9C56.6319 25.06 56.3919 27.58 55.9119 30.46C57.2319 25.94 59.2919 22.14 62.0919 19.06C64.9319 15.94 67.5719 14.38 70.0119 14.38C74.1719 14.38 76.2519 17.22 76.2519 22.9ZM94.4905 25.54C93.3305 27.54 92.4305 29.6 91.7905 31.72C91.1905 33.8 90.8905 35.8 90.8905 37.72C90.8905 39.64 91.3105 41.28 92.1505 42.64C93.0305 43.96 94.2705 44.62 95.8705 44.62C98.1105 44.62 100.21 43.4 102.17 40.96C104.13 38.48 105.63 35.5 106.67 32.02C107.75 28.5 108.29 25.26 108.29 22.3C108.29 19.3 108.17 16.84 107.93 14.92C108.89 14.84 109.49 14.8 109.73 14.8C113.13 14.8 114.83 16.54 114.83 20.02C114.83 20.78 114.35 23.88 113.39 29.32C112.43 34.72 111.95 39.06 111.95 42.34C111.95 45.58 112.57 48.46 113.81 50.98C111.29 50.46 109.45 49.36 108.29 47.68C107.17 45.96 106.61 43.5 106.61 40.3C106.61 39.74 106.69 38.66 106.85 37.06C105.77 40.86 103.87 43.92 101.15 46.24C98.4305 48.56 95.7505 49.72 93.1105 49.72C90.5105 49.72 88.4105 48.74 86.8105 46.78C85.2105 44.78 84.4105 42.04 84.4105 38.56C84.4105 35.04 85.0505 31.62 86.3305 28.3C87.6505 24.94 89.6105 22.04 92.2105 19.6C94.8505 17.16 97.7905 15.94 101.03 15.94C102.43 15.94 103.97 16.22 105.65 16.78C103.29 17.38 101.13 18.48 99.1705 20.08C97.2105 21.68 95.6505 23.5 94.4905 25.54ZM149.076 18.52C149.076 19.92 148.476 21.86 147.276 24.34C146.076 26.82 144.616 29.54 142.896 32.5C141.176 35.46 139.456 38.62 137.736 41.98C136.016 45.3 134.556 48.94 133.356 52.9C132.156 56.9 131.556 60.72 131.556 64.36C131.556 66.16 131.696 67.88 131.976 69.52C129.416 68.92 127.676 68.02 126.756 66.82C125.876 65.66 125.436 64.28 125.436 62.68C125.436 60.4 126.836 56.06 129.636 49.66C129.036 47.18 128.296 43.3 127.416 38.02C126.536 32.7 125.636 28.08 124.716 24.16C123.836 20.24 122.816 17.32 121.656 15.4C123.176 14.36 124.476 13.84 125.556 13.84C127.636 13.84 129.056 14.92 129.816 17.08C130.576 19.2 131.236 23.28 131.796 29.32C132.396 35.36 132.996 39.8 133.596 42.64C141.436 27.88 145.356 18.02 145.356 13.06C147.836 14.74 149.076 16.56 149.076 18.52ZM163.514 25.54C162.354 27.54 161.454 29.6 160.814 31.72C160.214 33.8 159.914 35.8 159.914 37.72C159.914 39.64 160.334 41.28 161.174 42.64C162.054 43.96 163.294 44.62 164.894 44.62C167.134 44.62 169.234 43.4 171.194 40.96C173.154 38.48 174.654 35.5 175.694 32.02C176.774 28.5 177.314 25.26 177.314 22.3C177.314 19.3 177.194 16.84 176.954 14.92C177.914 14.84 178.514 14.8 178.754 14.8C182.154 14.8 183.854 16.54 183.854 20.02C183.854 20.78 183.374 23.88 182.414 29.32C181.454 34.72 180.974 39.06 180.974 42.34C180.974 45.58 181.594 48.46 182.834 50.98C180.314 50.46 178.474 49.36 177.314 47.68C176.194 45.96 175.634 43.5 175.634 40.3C175.634 39.74 175.714 38.66 175.874 37.06C174.794 40.86 172.894 43.92 170.174 46.24C167.454 48.56 164.774 49.72 162.134 49.72C159.534 49.72 157.434 48.74 155.834 46.78C154.234 44.78 153.434 42.04 153.434 38.56C153.434 35.04 154.074 31.62 155.354 28.3C156.674 24.94 158.634 22.04 161.234 19.6C163.874 17.16 166.814 15.94 170.054 15.94C171.454 15.94 172.994 16.22 174.674 16.78C172.314 17.38 170.154 18.48 168.194 20.08C166.234 21.68 164.674 23.5 163.514 25.54Z" fill="white"/>
</g>
<defs>
<filter id="filter0_d" x="0.700012" y="0.700012" width="187.154" height="76.82" filterUnits="userSpaceOnUse" color-interpolation-filters="sRGB">
<feFlood flood-opacity="0" result="BackgroundImageFix"/>
<feColorMatrix in="SourceAlpha" type="matrix" values="0 0 0 0 0 0 0 0 0 0 0 0 0 0 0 0 0 0 127 0"/>
<feOffset dy="4"/>
<feGaussianBlur stdDeviation="2"/>
<feColorMatrix type="matrix" values="0 0 0 0 0 0 0 0 0 0 0 0 0 0 0 0 0 0 0.15 0"/>
<feBlend mode="normal" in2="BackgroundImageFix" result="effect1_dropShadow"/>
<feBlend mode="normal" in="SourceGraphic" in2="effect1_dropShadow" result="shape"/>
</filter>
</defs>
</svg>
