<svg width="192" height="182" viewBox="0 0 192 182" fill="none" xmlns="http://www.w3.org/2000/svg">
<path d="M121.543 49.5504L119.813 53.8804C119.719 54.0874 119.549 54.2501 119.338 54.3345C119.127 54.4188 118.892 54.4183 118.681 54.333C118.471 54.2477 118.301 54.0843 118.208 53.877C118.115 53.6696 118.106 53.4343 118.183 53.2204L118.243 53.1004L120.673 49.1004C120.74 48.9893 120.847 48.909 120.973 48.8772C121.099 48.8453 121.232 48.8645 121.343 48.9304C121.445 48.9928 121.521 49.0897 121.558 49.2034C121.595 49.3171 121.589 49.4403 121.543 49.5504Z" fill="#E5C3D1"/>
<path d="M91.093 49.5504L89.353 53.8804C89.2664 54.0936 89.0989 54.2638 88.8871 54.3537C88.6754 54.4437 88.4366 54.4461 88.223 54.3604C88.0073 54.2737 87.8347 54.1051 87.7429 53.8915C87.6511 53.6779 87.6475 53.4366 87.733 53.2204L87.793 53.1004L90.213 49.1004C90.2815 48.9886 90.3911 48.9081 90.5182 48.8763C90.6454 48.8445 90.78 48.864 90.893 48.9304C90.995 48.9928 91.0712 49.0896 91.1079 49.2034C91.1446 49.3171 91.1393 49.4402 91.093 49.5504Z" fill="#E5C3D1"/>
<path d="M73.563 49.5504L71.833 53.8804C71.7393 54.0874 71.5691 54.2501 71.3581 54.3345C71.1472 54.4188 70.9118 54.4183 70.7012 54.333C70.4906 54.2477 70.3211 54.0843 70.2283 53.877C70.1354 53.6696 70.1264 53.4343 70.203 53.2204L70.263 53.1004L72.693 49.1004C72.7596 48.9893 72.8674 48.909 72.9929 48.8772C73.1185 48.8453 73.2516 48.8645 73.363 48.9304C73.465 48.9928 73.5412 49.0897 73.5779 49.2034C73.6145 49.3171 73.6093 49.4403 73.563 49.5504Z" fill="#E5C3D1"/>
<path d="M130.163 58.1604L128.423 62.4904C128.337 62.7053 128.169 62.8771 127.956 62.968C127.743 63.059 127.503 63.0616 127.288 62.9754C127.073 62.8892 126.901 62.7212 126.81 62.5084C126.72 62.2955 126.717 62.0553 126.803 61.8404C126.819 61.7953 126.839 61.7518 126.863 61.7104L129.283 57.7104C129.353 57.6003 129.463 57.5219 129.59 57.492C129.718 57.4621 129.851 57.4831 129.963 57.5504C130.066 57.6095 130.143 57.7045 130.18 57.8171C130.217 57.9297 130.211 58.052 130.163 58.1604Z" fill="#E5C3D1"/>
<path d="M78.003 58.1604L76.263 62.4904C76.1768 62.7053 76.0088 62.8771 75.796 62.968C75.5831 63.059 75.3429 63.0616 75.128 62.9754C74.9132 62.8892 74.7414 62.7212 74.6505 62.5084C74.5595 62.2955 74.5568 62.0553 74.643 61.8404C74.6588 61.7953 74.6789 61.7518 74.703 61.7104L77.123 57.7104C77.1931 57.6003 77.3034 57.5219 77.4305 57.492C77.5575 57.4621 77.6912 57.4831 77.803 57.5504C77.9058 57.6095 77.9831 57.7045 78.02 57.8171C78.0569 57.9297 78.0509 58.052 78.003 58.1604Z" fill="#E5C3D1"/>
<path d="M139.743 67.7404L138.003 72.0404C137.96 72.1468 137.897 72.2437 137.817 72.3257C137.737 72.4076 137.641 72.473 137.536 72.518C137.431 72.563 137.317 72.5869 137.203 72.5881C137.088 72.5894 136.974 72.5681 136.868 72.5254C136.762 72.4828 136.665 72.4195 136.583 72.3394C136.501 72.2593 136.436 72.1638 136.39 72.0584C136.345 71.953 136.322 71.8398 136.32 71.7251C136.319 71.6105 136.34 71.4968 136.383 71.3904C136.399 71.3453 136.419 71.3018 136.443 71.2604L138.863 67.2604C138.933 67.1503 139.043 67.0719 139.17 67.042C139.298 67.0121 139.431 67.0331 139.543 67.1004C139.653 67.1599 139.736 67.2601 139.773 67.3797C139.811 67.4993 139.8 67.6287 139.743 67.7404Z" fill="#E5C3D1"/>
<path d="M49.7231 67.7404L48.0031 72.0404C47.9169 72.2553 47.7489 72.427 47.536 72.518C47.3231 72.609 47.0829 72.6116 46.8681 72.5254C46.6532 72.4392 46.4814 72.2712 46.3905 72.0584C46.2995 71.8455 46.2969 71.6053 46.3831 71.3904L46.443 71.2604L48.8631 67.2604C48.9331 67.1503 49.0434 67.0719 49.1705 67.042C49.2975 67.0121 49.4312 67.0331 49.5431 67.1004C49.6499 67.1632 49.7282 67.2649 49.7618 67.3842C49.7953 67.5035 49.7815 67.6311 49.7231 67.7404Z" fill="#E5C3D1"/>
<path d="M115.753 65.4404L114.003 69.7704C113.96 69.8768 113.897 69.9737 113.817 70.0556C113.737 70.1376 113.641 70.2029 113.536 70.248C113.431 70.293 113.317 70.3168 113.203 70.3181C113.088 70.3194 112.974 70.2981 112.868 70.2554C112.762 70.2127 112.665 70.1495 112.583 70.0694C112.501 69.9892 112.436 69.8937 112.39 69.7884C112.345 69.683 112.322 69.5697 112.32 69.4551C112.319 69.3405 112.34 69.2268 112.383 69.1204C112.397 69.0745 112.417 69.0308 112.443 68.9904L114.863 64.9904C114.933 64.8803 115.043 64.8019 115.17 64.772C115.298 64.7421 115.431 64.763 115.543 64.8304C115.648 64.8878 115.727 64.9821 115.766 65.0949C115.805 65.2076 115.8 65.3308 115.753 65.4404Z" fill="#E5C3D1"/>
<path d="M96.743 65.4404L95.003 69.7704C94.9669 69.8861 94.9072 69.9932 94.8278 70.0847C94.7483 70.1763 94.6508 70.2505 94.5413 70.3026C94.4318 70.3547 94.3128 70.3837 94.1916 70.3876C94.0704 70.3915 93.9497 70.3704 93.8371 70.3255C93.7245 70.2805 93.6223 70.2128 93.5371 70.1266C93.4519 70.0404 93.3854 69.9374 93.3418 69.8243C93.2983 69.7112 93.2785 69.5902 93.2839 69.4691C93.2893 69.348 93.3196 69.2293 93.373 69.1204C93.3903 69.0741 93.4139 69.0303 93.443 68.9904L95.863 64.9904C95.9312 64.8809 96.0398 64.8028 96.1652 64.7728C96.2906 64.7429 96.4228 64.7635 96.533 64.8304C96.6344 64.8909 96.7111 64.9854 96.7496 65.097C96.788 65.2087 96.7857 65.3303 96.743 65.4404Z" fill="#E5C3D1"/>
<path d="M66.583 65.4404L64.843 69.7704C64.7568 69.9852 64.5888 70.157 64.376 70.248C64.1631 70.3389 63.9229 70.3416 63.708 70.2554C63.4932 70.1692 63.3214 70.0012 63.2305 69.7884C63.1395 69.5755 63.1369 69.3352 63.223 69.1204L63.283 68.9904L65.703 64.9904C65.7731 64.8803 65.8834 64.8019 66.0105 64.772C66.1375 64.7421 66.2712 64.763 66.383 64.8304C66.4858 64.8895 66.5631 64.9844 66.6 65.0971C66.6369 65.2097 66.6309 65.332 66.583 65.4404Z" fill="#E5C3D1"/>
<path d="M106.543 53.5604L104.803 57.8904C104.717 58.1053 104.549 58.277 104.336 58.368C104.123 58.459 103.883 58.4616 103.668 58.3754C103.453 58.2892 103.281 58.1212 103.19 57.9084C103.1 57.6955 103.097 57.4553 103.183 57.2404C103.197 57.1945 103.217 57.1508 103.243 57.1104L105.663 53.1104C105.721 52.9937 105.824 52.905 105.947 52.8637C106.071 52.8225 106.206 52.8321 106.323 52.8904C106.44 52.9488 106.528 53.0511 106.57 53.1749C106.611 53.2986 106.601 53.4337 106.543 53.5504V53.5604Z" fill="#E5C3D1"/>
<path d="M43.853 53.5604L42.123 57.8904C42.0254 58.0894 41.8562 58.2443 41.6493 58.324C41.4424 58.4036 41.213 58.4023 41.0071 58.3201C40.8011 58.238 40.6338 58.0812 40.5385 57.881C40.4432 57.6808 40.427 57.452 40.493 57.2404C40.5103 57.1941 40.5339 57.1503 40.563 57.1104L42.983 53.1104C43.0496 52.9993 43.1574 52.919 43.283 52.8871C43.4085 52.8553 43.5416 52.8744 43.653 52.9404C43.755 53.0028 43.8312 53.0996 43.8679 53.2134C43.9046 53.3271 43.8993 53.4502 43.853 53.5604Z" fill="#E5C3D1"/>
<path d="M61.383 53.5604L59.643 57.8904C59.5568 58.1079 59.3878 58.2822 59.1731 58.375C58.9583 58.4679 58.7155 58.4716 58.498 58.3854C58.2806 58.2992 58.1062 58.1301 58.0134 57.9154C57.9206 57.7007 57.9168 57.4579 58.003 57.2404L58.063 57.1104L60.493 53.1104C60.5596 52.9993 60.6674 52.919 60.793 52.8871C60.9185 52.8553 61.0516 52.8744 61.163 52.9404C61.2685 52.9996 61.3489 53.0951 61.3894 53.2091C61.4298 53.3231 61.4276 53.4479 61.383 53.5604Z" fill="#E5C3D1"/>
<path d="M23.813 46.3604H162.003C162.494 43.8366 162.288 41.2267 161.407 38.8111C160.526 36.3956 159.003 34.2658 157.003 32.6504C154.971 31.0342 152.54 29.9955 149.968 29.6435C147.395 29.2916 144.775 29.6394 142.383 30.6504C144.693 18.3004 136.643 4.87042 124.673 1.09042C112.703 -2.68958 98.393 3.69042 93.193 15.0904C92.5256 13.2718 91.3896 11.6616 89.9001 10.4229C88.4106 9.18417 86.6203 8.3608 84.7104 8.03606C82.8006 7.71132 80.8388 7.89673 79.0236 8.57355C77.2084 9.25036 75.6041 10.3946 74.373 11.8904C70.683 3.22042 59.773 -1.69958 50.823 1.35042C41.873 4.40042 36.223 14.9504 38.673 24.0904C36.1927 24.3918 33.806 25.2218 31.6738 26.5242C29.5416 27.8267 27.7135 29.5713 26.313 31.6404C24.897 33.7859 23.9434 36.2028 23.513 38.7372C23.0826 41.2715 23.1848 43.8677 23.813 46.3604Z" fill="#E5C3D1"/>
<path d="M71.873 167.92C40.113 168.54 15.193 170.64 8.05305 173.29C7.15305 172.14 6.30305 170.99 5.53305 169.94C1.54411 164.644 -0.295492 158.036 0.383046 151.44C1.13305 144.99 4.29305 139.04 5.28305 132.62C7.46305 118.62 -0.796954 104.89 0.0630459 90.7904C0.403046 85.4404 2.73305 79.4804 7.82305 77.8604C9.32141 77.4521 10.8914 77.3794 12.4211 77.6473C13.9508 77.9152 15.4026 78.5172 16.673 79.4104C19.2085 81.2028 21.2989 83.5531 22.783 86.2804C27.863 94.8504 29.913 105.67 37.713 111.85C43.043 116.09 50.213 117.37 55.713 121.37C63.793 127.27 66.773 137.8 68.713 147.61C69.9997 154.344 71.053 161.114 71.873 167.92Z" fill="#FFC2E2"/>
<path d="M176.403 173.61C169.323 170.26 134.153 167.72 91.8431 167.72C87.2097 167.72 82.6831 167.75 78.2631 167.81C80.3387 162.495 83.6824 157.768 88.0031 154.04C93.6931 149.43 101.003 146.98 106.143 141.74C115.313 132.36 115.043 116.68 123.813 106.93C128.443 101.79 135.033 98.9304 140.413 94.6004C144.802 91.0689 148.346 86.5996 150.783 81.5205C153.213 76.4405 155.273 70.0705 160.713 68.5905C164.033 67.6805 167.713 69.1405 170.033 71.6605C172.273 74.306 173.63 77.5857 173.913 81.0404C175.493 94.1304 167.163 107.04 169.493 120.04C170.703 126.73 174.713 132.9 174.613 139.71C174.543 144.98 171.983 150.04 172.293 155.31C172.513 158.99 174.113 162.42 175.293 165.93C176.193 168.386 176.571 171.001 176.403 173.61Z" fill="#FFC2E2"/>
<path d="M71.223 167.93C66.353 168.03 61.643 168.17 57.143 168.33H56.923C49.503 168.6 42.643 168.96 36.523 169.39H36.253C34.573 169.51 32.953 169.63 31.383 169.76H31.173C29.713 169.88 28.303 170 26.953 170.13H26.713C24.863 170.3 23.123 170.49 21.493 170.68H21.243C19.593 170.87 18.073 171.08 16.663 171.29C16.5901 171.28 16.516 171.28 16.443 171.29L14.713 171.56L14.493 171.61C13.493 171.76 12.673 171.94 11.863 172.1H11.643C10.643 172.31 9.77303 172.53 9.03303 172.76L8.82303 172.82C8.45303 172.94 8.11303 173.06 7.82303 173.18C7.35365 172.765 6.9432 172.287 6.60303 171.76C3.9882 167.327 3.1284 162.076 4.19303 157.04C4.19303 156.8 4.29303 156.55 4.35303 156.32C4.41303 156.09 4.54303 155.59 4.65303 155.23C5.75303 151.69 7.79303 148.52 9.31303 145.14C9.34569 145.076 9.37247 145.009 9.39303 144.94C9.77447 144.086 10.1083 143.212 10.393 142.32C10.623 141.59 10.813 140.85 10.973 140.1C10.973 140.02 10.973 139.94 10.973 139.85C11.133 139.06 11.263 138.24 11.363 137.43V137.15C11.663 134.57 11.693 131.93 11.763 129.33C11.763 129.16 11.763 128.99 11.763 128.81C11.763 128.63 11.763 128.51 11.763 128.37C11.903 124.31 12.253 120.18 13.903 116.49C14.6172 114.782 15.681 113.242 17.026 111.969C18.3711 110.696 19.9677 109.719 21.713 109.1C21.7801 109.071 21.8507 109.051 21.923 109.04C22.4994 108.869 23.093 108.761 23.693 108.72C25.9097 108.561 28.1196 109.111 30.003 110.29C30.091 110.332 30.1748 110.382 30.253 110.44C32.4536 111.851 34.3093 113.737 35.683 115.96C38.293 120.09 39.613 124.88 41.763 129.27C43.913 133.66 47.283 137.88 52.023 139.06C54.023 139.57 56.193 139.47 58.243 139.93C63.453 141.07 67.373 145.66 69.243 150.68C71.113 155.7 71.153 161.15 71.243 166.49C71.223 166.96 71.223 167.45 71.223 167.93Z" fill="#613F75"/>
<g opacity="0.42">
<path opacity="0.42" d="M9.00306 172.96L8.79306 173.02C6.19528 168.05 4.62088 162.61 4.16306 157.02C4.16306 156.78 4.26306 156.53 4.32306 156.3C4.69681 162.121 6.29137 167.797 9.00306 172.96Z" fill="#E5C3D1"/>
<path opacity="0.42" d="M12.8131 153.18C13.0768 159.428 14.3779 165.589 16.6631 171.41C16.5901 171.4 16.516 171.4 16.4431 171.41C14.1601 165.579 12.8624 159.408 12.6031 153.15V152.62C12.6867 150.755 12.3447 148.894 11.6031 147.18C11.1016 146.259 10.311 145.528 9.35306 145.1C9.38572 145.036 9.41249 144.969 9.43306 144.9C10.4366 145.345 11.2659 146.108 11.7931 147.07C12.5621 148.812 12.9213 150.708 12.8431 152.61L12.8131 153.18Z" fill="#E5C3D1"/>
<path opacity="0.42" d="M31.3831 169.79H31.1731C29.9118 163.148 27.6351 156.74 24.4231 150.79C22.3431 146.79 19.9931 142.79 17.7131 138.94C15.7131 135.62 13.7131 132.22 11.8831 128.75C11.8831 128.6 11.8831 128.45 11.8831 128.31C13.7731 131.9 15.8831 135.4 17.8831 138.83C20.1631 142.67 22.5231 146.65 24.5931 150.69C27.8264 156.669 30.1168 163.112 31.3831 169.79Z" fill="#E5C3D1"/>
<path opacity="0.42" d="M33.6031 164.16C34.4729 165.963 35.448 167.712 36.5231 169.4H36.2531C35.2084 167.734 34.2569 166.012 33.4031 164.24C26.8033 150.792 23.3397 136.021 23.2731 121.04V119.67C23.2731 116.36 23.2731 112.93 22.1531 109.81C22.0659 109.565 21.9658 109.325 21.8531 109.09C21.9201 109.061 21.9907 109.041 22.0631 109.03C22.1725 109.258 22.2693 109.492 22.3531 109.73C23.5131 112.89 23.5031 116.34 23.4931 119.67V121.04C23.5548 135.994 27.0117 150.738 33.6031 164.16Z" fill="#E5C3D1"/>
<path opacity="0.42" d="M57.1431 168.33H56.923C56.8638 166.353 56.5581 164.392 56.0131 162.49C53.5431 153.17 48.243 144.87 43.1031 136.83C38.8631 130.18 34.4731 123.31 31.6631 115.83C30.9441 114.037 30.3885 112.183 30.0031 110.29C30.0911 110.332 30.1748 110.382 30.2531 110.44C30.6223 112.272 31.1475 114.068 31.8231 115.81C34.6331 123.22 39.0131 130.08 43.2431 136.72C48.3931 144.72 53.7031 153.1 56.1831 162.44C56.7447 164.357 57.0672 166.335 57.1431 168.33Z" fill="#E5C3D1"/>
<path opacity="0.42" d="M21.1131 170.17C21.2184 170.38 21.3458 170.578 21.4931 170.76H21.2431C21.1219 170.593 21.0149 170.416 20.9231 170.23C20.4443 169.136 20.1471 167.971 20.0431 166.78V166.61C19.0486 159.587 17.2363 152.703 14.6431 146.1C13.943 144.032 12.8572 142.115 11.4431 140.45C11.3068 140.31 11.1633 140.176 11.0131 140.05C11.0131 139.97 11.0131 139.89 11.0131 139.8C11.2018 139.957 11.3789 140.128 11.5431 140.31C13.0027 141.986 14.1173 143.933 14.8231 146.04C17.4293 152.657 19.2452 159.558 20.2331 166.6V166.78C20.3384 167.951 20.6357 169.096 21.1131 170.17Z" fill="#E5C3D1"/>
<path opacity="0.42" d="M27.193 169.51C27.1341 169.741 27.0538 169.965 26.953 170.18H26.713C26.8265 169.943 26.9169 169.695 26.983 169.44C27.2336 167.937 27.11 166.395 26.623 164.95C23.8989 154.659 18.6819 145.197 11.433 137.4V137.12C18.7764 144.958 24.0579 154.497 26.803 164.88C27.3184 166.367 27.4525 167.959 27.193 169.51Z" fill="#E5C3D1"/>
<path opacity="0.42" d="M21.4431 119.93C21.5834 118.29 21.2355 116.644 20.4431 115.2C19.6231 114.03 18.7631 113.5 17.9031 113.66C16.0031 114.02 14.6331 117.57 14.1731 119.39C13.7052 121.309 13.6207 123.301 13.9244 125.252C14.2282 127.203 14.9142 129.075 15.9431 130.76C16.3107 131.398 16.8206 131.942 17.4331 132.35C17.7976 132.574 18.2156 132.695 18.6431 132.7C18.973 132.702 19.2975 132.616 19.5831 132.45C20.1777 131.99 20.5774 131.322 20.7031 130.58C21.4571 127.084 21.7063 123.498 21.4431 119.93ZM20.4431 130.52C20.3305 131.205 19.9756 131.826 19.4431 132.27C19.1391 132.418 18.8027 132.486 18.4652 132.469C18.1277 132.452 17.8001 132.349 17.5131 132.17C16.936 131.771 16.4545 131.248 16.1031 130.64C15.0771 128.987 14.3935 127.145 14.0929 125.223C13.7923 123.301 13.8807 121.338 14.3531 119.45C14.8731 117.38 16.2431 114.18 17.9031 113.88C18.6831 113.74 19.4631 114.23 20.2331 115.33C21.005 116.734 21.3524 118.333 21.2331 119.93C21.4789 123.48 21.2162 127.046 20.4531 130.52H20.4431Z" fill="#E5C3D1"/>
<path opacity="0.42" d="M47.7731 158.22C45.9131 150.5 42.1031 143.33 38.4331 136.4C37.6131 134.87 36.7631 133.28 35.9631 131.71C33.6507 127.373 31.7039 122.851 30.1431 118.19C29.9864 117.632 29.8661 117.064 29.7831 116.49C29.4731 114.76 29.0931 112.61 28.1831 112.03C27.9788 111.872 27.7392 111.766 27.485 111.721C27.2308 111.676 26.9693 111.693 26.7231 111.77C26.4278 111.935 26.1714 112.162 25.9713 112.434C25.7711 112.707 25.6319 113.019 25.5631 113.35C25.1631 114.76 25.7031 117.17 26.1431 119.1C26.3131 119.84 26.4631 120.54 26.5531 121.1C26.9431 123.64 27.4031 126.21 27.9131 128.73C28.9131 133.73 30.1931 138.68 31.6831 143.52C33.5731 149.67 36.1731 156.63 41.1131 161.67C42.1802 162.89 43.6707 163.658 45.2831 163.82C45.8819 163.834 46.4663 163.636 46.9331 163.26C48.0731 162.36 48.3531 160.66 47.7731 158.22ZM46.7731 163.09C45.2131 164.3 42.8731 163.17 41.2331 161.51C38.8384 158.975 36.8727 156.067 35.4131 152.9C34.0017 149.837 32.8152 146.676 31.8631 143.44C30.3831 138.61 29.1131 133.64 28.1031 128.68C27.5831 126.16 27.1031 123.59 26.7331 121.05C26.6531 120.49 26.4931 119.79 26.3231 119.05C25.8931 117.14 25.3231 114.77 25.7431 113.41C25.7998 113.114 25.9182 112.832 26.0904 112.584C26.2626 112.336 26.485 112.127 26.7431 111.97C26.8578 111.926 26.9802 111.906 27.1031 111.91C27.4253 111.924 27.7371 112.028 28.0031 112.21C28.8331 112.74 29.2231 114.92 29.5031 116.52C29.593 117.104 29.7165 117.681 29.8731 118.25C31.4329 122.924 33.3866 127.457 35.7131 131.8C36.5131 133.37 37.3631 134.97 38.1831 136.51C41.8431 143.42 45.6431 150.57 47.4931 158.26C48.1131 160.63 47.8631 162.25 46.8031 163.09H46.7731Z" fill="#E5C3D1"/>
<path opacity="0.42" d="M6.78305 157.43C6.80408 158.149 6.9566 158.857 7.23305 159.52C8.69305 163.77 10.2331 168.03 11.8631 172.25H11.6431C10.0031 168.04 8.49305 163.83 7.00305 159.6C6.71491 158.909 6.56214 158.169 6.55305 157.42C6.55172 157.031 6.65855 156.649 6.86162 156.317C7.06468 155.985 7.356 155.716 7.70305 155.54C8.12499 155.401 8.57987 155.396 9.00457 155.527C9.42927 155.658 9.8027 155.918 10.0731 156.27C10.5738 156.968 10.9151 157.767 11.0731 158.61L14.6931 171.71L14.4731 171.76L10.8731 158.67C10.6985 157.856 10.3581 157.087 9.87305 156.41C9.6319 156.094 9.29874 155.859 8.91922 155.739C8.5397 155.62 8.13238 155.62 7.75305 155.74C7.45313 155.907 7.20436 156.153 7.03347 156.451C6.86257 156.749 6.776 157.087 6.78305 157.43Z" fill="#E5C3D1"/>
</g>
<path d="M180.603 146.2C180.396 148.358 180.36 150.528 180.493 152.69C180.488 152.784 180.488 152.877 180.493 152.97C180.623 155.61 180.853 158.25 180.833 160.9C180.857 163.82 180.366 166.721 179.383 169.47L179.233 169.82C178.648 171.285 177.816 172.638 176.773 173.82C175.423 173.06 172.653 172.34 168.673 171.68H168.453C167.393 171.51 166.253 171.34 165.033 171.18C164.956 171.175 164.88 171.175 164.803 171.18C162.683 170.89 160.333 170.62 157.803 170.37H157.563C154.453 170.07 151.033 169.79 147.353 169.53H147.063C137.193 168.85 125.433 168.34 112.503 168.07H112.293H109.523C109.974 165.959 110.876 163.969 112.167 162.238C113.458 160.507 115.108 159.075 117.003 158.04L117.553 157.8C117.633 157.75 117.723 157.73 117.793 157.69C118.795 157.293 119.828 156.982 120.883 156.76L121.163 156.7C123.753 156.17 126.473 156.01 129.083 155.49C131.058 155.1 132.984 154.489 134.823 153.67C134.905 153.643 134.986 153.61 135.063 153.57C137.257 152.574 139.322 151.315 141.213 149.82L141.453 149.62C144.438 147.206 146.904 144.212 148.703 140.82C151.153 136.15 152.263 130.92 154.453 126.15C155.057 124.831 155.772 123.567 156.593 122.37L156.723 122.17C158.412 119.563 160.853 117.53 163.723 116.34L163.983 116.24C164.489 116.066 165.007 115.929 165.533 115.83C166.526 115.67 167.528 115.57 168.533 115.53H168.753C169.762 115.49 170.765 115.366 171.753 115.16L171.993 115.1C172.61 114.942 173.2 114.693 173.743 114.36C175.833 113.07 176.833 110.63 177.913 108.29C177.913 108.22 177.983 108.15 178.013 108.07C178.623 106.523 179.553 105.122 180.743 103.96L180.933 103.81C181.313 103.506 181.734 103.257 182.183 103.07C184.863 101.96 188.123 103.5 189.693 105.96C191.263 108.42 191.443 111.52 191.113 114.42C189.853 125.36 182.113 134.73 180.643 145.63C180.643 145.78 180.643 145.94 180.583 146.1C180.523 146.26 180.603 146.17 180.603 146.2Z" fill="#613F75"/>
<g opacity="0.47">
<path opacity="0.47" d="M117.773 157.71C117.684 158.17 117.546 158.619 117.363 159.05C116.694 160.521 115.908 161.935 115.013 163.28C114.014 164.739 113.17 166.297 112.493 167.93H112.283C112.956 166.257 113.808 164.661 114.823 163.17C115.715 161.832 116.497 160.424 117.163 158.96C117.321 158.592 117.445 158.211 117.533 157.82C117.613 157.77 117.703 157.75 117.773 157.71Z" fill="#E5C3D1"/>
<path opacity="0.47" d="M164.003 116.26C163.054 119.004 162.299 121.811 161.743 124.66C161.033 128.15 160.533 131.75 160.033 135.23C159.163 141.39 158.263 147.76 156.253 153.76C154.375 159.53 151.344 164.858 147.343 169.42H147.053C151.111 164.869 154.176 159.522 156.053 153.72C158.053 147.72 158.963 141.38 159.833 135.23C160.323 131.75 160.833 128.15 161.533 124.65C162.088 121.851 162.829 119.091 163.753 116.39L164.003 116.26Z" fill="#E5C3D1"/>
<path opacity="0.47" d="M180.673 145.64C180.673 145.79 180.673 145.95 180.613 146.11C175.613 153.28 170.893 160.75 169.083 169.23C168.899 170.035 168.765 170.849 168.683 171.67H168.463C168.547 170.846 168.681 170.028 168.863 169.22C170.723 160.53 175.633 152.93 180.673 145.64Z" fill="#E5C3D1"/>
<path opacity="0.47" d="M165.243 135.89C164.983 138.42 164.713 141.03 164.383 143.57C163.17 152.691 160.96 161.652 157.793 170.29H157.553C160.742 161.657 162.959 152.695 164.163 143.57C164.493 141.03 164.763 138.42 165.023 135.9C165.723 129.08 166.443 122.08 168.583 115.58H168.803C166.663 122.04 165.943 129.04 165.243 135.89Z" fill="#E5C3D1"/>
<path opacity="0.47" d="M181.103 138.92C178.723 144.53 175.753 149.92 172.873 155.22C171.473 157.77 170.023 160.42 168.663 163.05C167.287 165.665 166.078 168.363 165.043 171.13C164.966 171.125 164.89 171.125 164.813 171.13C165.857 168.338 167.08 165.616 168.473 162.98C169.833 160.34 171.283 157.7 172.683 155.14C175.695 149.855 178.438 144.422 180.903 138.86C184.973 129.21 186.533 120.33 185.543 112.48C185.37 110.461 184.77 108.501 183.783 106.73C183.072 105.547 182.029 104.597 180.783 104L180.973 103.85C182.22 104.459 183.263 105.418 183.973 106.61C184.976 108.409 185.586 110.399 185.763 112.45C186.763 120.31 185.193 129.22 181.103 138.92Z" fill="#E5C3D1"/>
<path opacity="0.47" d="M182.613 115.38C182.606 113.771 182.265 112.181 181.613 110.71C181.294 110.022 180.811 109.424 180.206 108.967C179.6 108.51 178.892 108.209 178.143 108.09H178.003C178.003 108.17 177.933 108.24 177.903 108.31H178.053C178.765 108.423 179.438 108.711 180.012 109.147C180.586 109.583 181.043 110.155 181.343 110.81C181.995 112.25 182.336 113.81 182.343 115.39C182.87 124.777 180.267 134.072 174.943 141.82C173.723 143.58 172.533 144.33 171.363 144.09C170.983 143.99 170.633 143.8 170.341 143.538C170.049 143.275 169.824 142.947 169.683 142.58C169.355 141.791 169.159 140.953 169.103 140.1C168.424 132.481 169.177 124.802 171.323 117.46C171.463 117.03 171.583 116.56 171.713 116.07C171.803 115.75 171.883 115.43 171.973 115.07L171.733 115.13C171.653 115.42 171.583 115.7 171.503 115.98C171.373 116.46 171.253 116.98 171.123 117.36C169.486 122.95 168.654 128.745 168.653 134.57C168.653 136.41 168.723 138.25 168.893 140.08C169.063 141.91 169.593 143.89 171.323 144.26C171.481 144.292 171.642 144.309 171.803 144.31C172.903 144.31 174.013 143.51 175.123 141.9C180.48 134.13 183.114 124.805 182.613 115.38Z" fill="#E5C3D1"/>
<path opacity="0.47" d="M176.593 170.11C176.057 169.906 175.586 169.558 175.234 169.105C174.881 168.652 174.66 168.111 174.593 167.54C174.545 167.256 174.522 166.969 174.523 166.68C174.552 165.79 174.693 164.906 174.943 164.05C175.513 161.81 177.733 155.85 180.523 152.97C180.518 152.877 180.518 152.784 180.523 152.69C177.373 155.75 175.113 162.5 174.733 164C174.37 165.153 174.254 166.37 174.393 167.57C174.466 168.184 174.707 168.766 175.09 169.252C175.473 169.737 175.983 170.107 176.563 170.32C176.808 170.383 177.06 170.417 177.313 170.42C178.021 170.401 178.711 170.194 179.313 169.82L179.463 169.47C179.062 169.783 178.597 170.003 178.1 170.114C177.604 170.224 177.089 170.223 176.593 170.11Z" fill="#E5C3D1"/>
<path opacity="0.47" d="M156.703 122.19L156.573 122.39C157.402 124.134 157.747 126.068 157.573 127.99C157.433 136.6 154.683 144.99 152.013 151.99C151.441 153.877 150.473 155.619 149.173 157.1C147.933 158.33 145.753 159.29 143.883 158.44C141.163 157.21 141.053 153.38 141.243 151.21C141.243 150.7 141.333 150.21 141.403 149.65L141.163 149.85C141.103 150.31 141.053 150.75 141.023 151.2C140.843 153.42 140.953 157.35 143.793 158.64C144.302 158.868 144.855 158.984 145.413 158.98C146.892 158.922 148.293 158.304 149.333 157.25C150.653 155.748 151.638 153.983 152.223 152.07C154.893 145.07 157.643 136.66 157.793 128C157.972 126 157.595 123.99 156.703 122.19Z" fill="#E5C3D1"/>
<path opacity="0.47" d="M135.003 153.59C134.74 155.208 134.297 156.791 133.683 158.31C131.733 162.98 127.773 166.37 123.573 166.91C123.277 166.931 122.979 166.931 122.683 166.91C120.973 166.91 119.223 166.29 118.563 164.77C118.003 163.47 118.463 161.97 118.983 160.68C119.525 159.332 120.139 158.013 120.823 156.73L121.103 156.67C120.391 157.999 119.75 159.364 119.183 160.76C118.545 161.965 118.395 163.368 118.763 164.68C119.493 166.37 121.693 166.88 123.553 166.68C127.663 166.15 131.553 162.83 133.483 158.21C134.075 156.752 134.504 155.233 134.763 153.68C134.845 153.656 134.925 153.626 135.003 153.59Z" fill="#E5C3D1"/>
</g>
<path d="M177.703 174.86C177.703 178.79 139.263 181.99 91.843 181.99C44.423 181.99 6.00305 178.79 6.00305 174.86C6.00305 170.93 44.4431 167.73 91.8631 167.73C139.283 167.73 177.703 170.92 177.703 174.86Z" fill="#4A3059"/>
<path d="M84.413 93.0604L97.043 109.55L86.343 118.46L72.983 97.5204L84.413 93.0604Z" fill="#EF737E"/>
<g style="mix-blend-mode:multiply" opacity="0.21">
<path d="M84.413 93.0604L97.043 109.55L86.343 118.46L72.983 97.5204L84.413 93.0604Z" fill="#EF737E"/>
</g>
<path d="M129.483 175.98C142.147 177.422 154.936 177.389 167.593 175.88" stroke="#FFE8E8" stroke-width="0.22" stroke-linecap="round" stroke-linejoin="round"/>
<path d="M130.143 167.96C131.867 168.724 133.365 169.918 134.495 171.427C135.624 172.937 136.347 174.711 136.593 176.58" stroke="#FFE8E8" stroke-width="0.22" stroke-linecap="round" stroke-linejoin="round"/>
<path d="M158.223 169.42C156.557 171.569 155.519 174.138 155.223 176.84" stroke="#FFE8E8" stroke-width="0.22" stroke-linecap="round" stroke-linejoin="round"/>
<path d="M144.003 169.46C145.25 167.555 146.832 165.891 148.673 164.55" stroke="#FFE8E8" stroke-width="0.22" stroke-linecap="round" stroke-linejoin="round"/>
<path d="M147.943 170.4C149.026 168.817 150.329 167.396 151.813 166.18" stroke="#FFE8E8" stroke-width="0.22" stroke-linecap="round" stroke-linejoin="round"/>
<path d="M131.543 162.29C131.543 162.29 129.313 170.98 130.653 176.1C130.653 176.1 133.883 177.1 140.453 176.55C147.023 176 168.533 177.55 168.453 175.1C168.373 172.65 165.453 170.86 160.203 168.52C154.953 166.18 146.283 161.39 146.283 161.39L131.543 162.29Z" fill="#8B6FED"/>
<path d="M130.703 174.75C143.198 176.187 155.819 176.144 168.303 174.62" stroke="#FFE8E8" stroke-width="0.22" stroke-linecap="round" stroke-linejoin="round"/>
<path d="M131.373 166.73C133.098 167.495 134.597 168.69 135.727 170.202C136.857 171.713 137.578 173.49 137.823 175.36" stroke="#FFE8E8" stroke-width="0.22" stroke-linecap="round" stroke-linejoin="round"/>
<path d="M159.453 168.19C157.783 170.337 156.744 172.906 156.453 175.61" stroke="#FFE8E8" stroke-width="0.22" stroke-linecap="round" stroke-linejoin="round"/>
<path d="M145.173 168.24C146.42 166.332 148.007 164.668 149.853 163.33" stroke="#FFE8E8" stroke-width="0.22" stroke-linecap="round" stroke-linejoin="round"/>
<path d="M149.173 169.17C150.252 167.587 151.552 166.166 153.033 164.95" stroke="#FFE8E8" stroke-width="0.22" stroke-linecap="round" stroke-linejoin="round"/>
<path d="M131.803 158.2L131.913 162.43C131.913 162.43 145.843 163.33 146.623 161.54L139.493 153.04L131.803 158.2Z" fill="#F7A9A8"/>
<path style="mix-blend-mode:multiply" opacity="0.28" d="M131.803 158.2L131.913 162.43C131.913 162.43 145.843 163.33 146.623 161.54L139.493 153.04L131.803 158.2Z" fill="url(#paint0_linear)"/>
<path d="M89.323 155.9L110.853 134.51L132.393 159.17L141.013 153.97C141.013 153.97 122.143 108.81 114.723 103.91C107.303 99.0104 96.593 107.04 85.603 117.28C74.613 127.52 71.603 132.13 71.603 132.13L89.323 155.9Z" fill="#8B6FED"/>
<path d="M86.5431 76.6505L78.0031 88.2705C78.0031 95.0305 83.0031 103.63 83.0031 103.63C83.0031 103.63 86.1931 97.8005 87.4131 96.1105C87.6095 95.8465 87.8233 95.5959 88.0531 95.3605C89.4872 93.9323 91.0102 92.5963 92.6131 91.3605L93.2231 90.8904L86.5431 76.6505Z" fill="#F7A9A8"/>
<path style="mix-blend-mode:multiply" opacity="0.73" d="M86.893 84.0905C86.893 84.0905 87.003 92.3605 88.103 95.2605C89.5372 93.8323 91.0602 92.4963 92.663 91.2605C91.703 90.4605 88.163 87.2605 86.893 84.0905Z" fill="url(#paint1_linear)"/>
<path d="M112.283 65.4804C112.64 66.3765 112.811 67.3362 112.783 68.3004C112.595 70.7969 111.894 73.2277 110.723 75.4404C110.113 76.7504 108.553 78.9104 108.903 80.4404C109.253 81.9704 110.743 84.7304 109.843 85.5904C108.943 86.4504 106.263 87.1404 105.723 87.6904C105.183 88.2404 100.043 94.3604 98.3631 94.4604C95.5231 94.6304 90.0031 88.7404 90.0031 88.7404C90.0031 88.7404 83.793 82.4104 85.633 77.3704C87.583 71.9404 90.2331 66.0404 95.4331 63.0404C99.1031 60.9204 104.153 60.0404 108.193 61.6004C109.109 61.9239 109.946 62.4366 110.651 63.105C111.356 63.7735 111.912 64.5829 112.283 65.4804Z" fill="#F7A9A8"/>
<path d="M104.543 78.8704C104.461 79.0517 104.435 79.2532 104.469 79.4492C104.502 79.6453 104.593 79.8269 104.73 79.971C104.867 80.1151 105.044 80.2151 105.238 80.2581C105.432 80.3012 105.635 80.2854 105.82 80.2128C106.005 80.1402 106.164 80.014 106.277 79.8504C106.39 79.6869 106.452 79.4933 106.454 79.2945C106.457 79.0956 106.4 78.9006 106.291 78.7342C106.182 78.5678 106.026 78.4377 105.843 78.3604C105.603 78.2591 105.332 78.2557 105.089 78.3509C104.846 78.4462 104.65 78.6326 104.543 78.8704Z" fill="#4A3059"/>
<g style="mix-blend-mode:multiply" opacity="0.38">
<path d="M106.793 80.5204L105.073 81.2304C105.073 81.2304 105.613 82.9004 106.793 80.5204Z" fill="#EF737E"/>
</g>
<path style="mix-blend-mode:multiply" opacity="0.37" d="M91.7431 78.3204C91.11 79.4049 90.8127 80.6526 90.8887 81.906C90.9647 83.1594 91.4106 84.3621 92.17 85.3621C92.9295 86.3621 93.9683 87.1145 95.1553 87.5242C96.3422 87.9339 97.624 87.9825 98.8386 87.6638C100.053 87.3451 101.146 86.6735 101.979 85.7339C102.812 84.7942 103.348 83.6287 103.518 82.3847C103.689 81.1407 103.487 79.874 102.938 78.7447C102.389 77.6155 101.517 76.6744 100.433 76.0404C99.7129 75.6192 98.9167 75.344 98.0901 75.2306C97.2635 75.1172 96.4226 75.1678 95.6156 75.3796C94.8085 75.5913 94.0511 75.96 93.3867 76.4646C92.7222 76.9693 92.1637 77.5999 91.7431 78.3204Z" fill="url(#paint2_linear)"/>
<path d="M102.783 75.2804C102.8 75.4621 102.854 75.6385 102.941 75.7985C103.029 75.9585 103.149 76.0987 103.293 76.2104C103.596 76.4315 103.934 76.6004 104.293 76.7104C105.14 77.0746 106.067 77.2124 106.983 77.1104C107.408 77.0607 107.804 76.8666 108.103 76.5604C108.239 76.3998 108.322 76.2001 108.338 75.99C108.354 75.7799 108.303 75.5701 108.193 75.3904C108.096 75.2801 107.978 75.1904 107.846 75.1269C107.713 75.0633 107.57 75.0271 107.423 75.0204C107.129 75.0152 106.834 75.0353 106.543 75.0804C105.746 75.1509 104.943 75.0416 104.193 74.7604C103.943 74.6704 103.583 74.4104 103.313 74.4604C103.043 74.5104 102.763 74.9804 102.783 75.2804Z" fill="#613F75"/>
<path d="M100.723 86.1604C101.476 86.2093 102.205 86.4475 102.841 86.8531C103.477 87.2587 104.001 87.8184 104.363 88.4804" stroke="#4A3059" stroke-width="0.22" stroke-linecap="round" stroke-linejoin="round"/>
<path d="M106.573 85.8805L105.653 85.3005C105.653 85.0205 106.053 84.7505 106.413 84.6305C106.421 84.6187 106.426 84.6048 106.426 84.5905C106.426 84.5762 106.421 84.5622 106.413 84.5505C106.408 84.531 106.396 84.5141 106.38 84.5029C106.363 84.4918 106.343 84.4874 106.323 84.4905C106.105 84.5322 105.896 84.6099 105.703 84.7205C105.586 84.7771 105.486 84.8631 105.412 84.97C105.339 85.0769 105.294 85.2011 105.283 85.3305C105.277 85.3571 105.28 85.385 105.29 85.4102C105.301 85.4353 105.32 85.4564 105.343 85.4705L106.093 85.9405L105.753 86.0805C105.715 86.0961 105.685 86.1254 105.668 86.1626C105.652 86.1998 105.65 86.2419 105.663 86.2805C105.677 86.3088 105.698 86.333 105.725 86.3506C105.751 86.3681 105.781 86.3784 105.813 86.3805H105.873L106.493 86.1205C106.519 86.109 106.542 86.091 106.56 86.0683C106.577 86.0456 106.589 86.0188 106.593 85.9905C106.6 85.9526 106.593 85.9135 106.573 85.8805Z" fill="#4A3059"/>
<path d="M101.553 88.3604C101.69 88.6719 101.899 88.9461 102.164 89.1601C102.428 89.3741 102.74 89.5217 103.073 89.5904" stroke="#4A3059" stroke-width="0.22" stroke-linecap="round" stroke-linejoin="round"/>
<path d="M99.643 67.0404L106.843 71.9504L110.343 69.2704L108.403 73.5104L113.403 78.5104C113.403 78.5104 121.053 71.7504 118.013 63.5104C114.973 55.2704 110.563 55.0404 110.563 55.0404L99.643 67.0404Z" fill="#613F75"/>
<path d="M101.423 67.0404L101.313 67.2304L101.163 67.4804C99.043 70.6904 94.813 70.7904 93.103 71.5704C91.393 72.3504 90.653 75.4304 90.653 75.4304C90.653 75.4304 92.733 81.0004 90.133 85.4304C87.533 89.8604 86.133 90.1104 86.203 90.8504C86.273 91.5904 89.763 98.5704 81.373 103.1L47.433 87.6404L51.733 77.9104L45.273 85.7104L39.183 82.0404C38.823 81.8204 38.813 79.7704 38.773 79.4104C38.5698 77.4437 38.7154 75.4566 39.203 73.5404C40.203 69.7904 43.523 67.3004 47.143 66.2904C50.763 65.2804 55.753 66.8104 58.673 64.3904C60.963 62.5104 60.753 58.3904 61.983 55.9704C64.733 50.4704 69.353 48.2604 74.763 49.8004C79.253 51.0804 79.103 50.9104 81.413 50.9804C84.003 51.0604 86.413 49.6804 88.733 48.7704C97.183 45.5204 104.813 48.4804 110.563 55.0804L101.213 67.4704" fill="#613F75"/>
<path d="M96.633 69.8505C96.444 69.0673 96.0527 68.3475 95.4981 67.7631C94.9436 67.1787 94.2452 66.7502 93.473 66.5205C92.7885 66.4005 92.0845 66.461 91.4304 66.696C90.7763 66.931 90.1948 67.3323 89.743 67.8605C88.7534 69.0256 88.2235 70.5121 88.253 72.0405C88.2251 73.0908 88.5009 74.1269 89.0472 75.0244C89.5935 75.922 90.3872 76.6428 91.333 77.1005C92.103 77.3669 92.9359 77.3919 93.7204 77.1721C94.5049 76.9523 95.2036 76.4982 95.723 75.8705C97.003 74.4505 97.163 71.6605 96.633 69.8505Z" fill="#F7A9A8"/>
<path d="M96.1131 74.2804C96.4359 74.2471 96.747 74.1411 97.023 73.9704C98.7673 73.0168 100.188 71.5651 101.103 69.8004C101.359 69.4047 101.522 68.9566 101.581 68.4892C101.64 68.0218 101.593 67.5471 101.443 67.1004C101.247 66.7289 100.949 66.4208 100.584 66.2119C100.219 66.003 99.8029 65.902 99.383 65.9204C98.5109 65.9762 97.6847 66.3309 97.0435 66.9247C96.4024 67.5185 95.9855 68.3151 95.8631 69.1804C95.8365 70.0209 95.7597 70.8591 95.633 71.6904C95.483 72.4304 94.6631 74.3304 96.1131 74.2804Z" fill="#613F75"/>
<path d="M92.583 68.9804C93.5317 70.7631 93.771 72.8386 93.253 74.7904" stroke="#4A3059" stroke-width="0.28" stroke-linecap="round" stroke-linejoin="round"/>
<path d="M93.4031 71.3004C92.8555 71.4896 92.3522 71.7885 91.9241 72.1788C91.496 72.5691 91.1519 73.0426 90.9131 73.5704" stroke="#4A3059" stroke-width="0.28" stroke-linecap="round" stroke-linejoin="round"/>
<path d="M82.4831 102.72C82.4831 102.72 82.043 110.89 80.703 113.72C79.363 116.55 71.9431 125.61 64.813 130.8L61.8131 136.6C61.8131 136.6 35.6131 161.1 29.8731 152.49C29.5731 152.05 21.2531 132.44 30.3131 111.94C39.3731 91.4404 48.6131 82.5204 60.0531 81.7704C71.493 81.0204 82.4831 102.72 82.4831 102.72Z" fill="#EF737E"/>
<path d="M29.903 152.48C29.903 152.48 45.053 151.29 55.003 141.19C64.953 131.09 82.783 108.19 90.803 102.87C98.823 97.5505 104.913 97.9705 109.073 103.87C113.233 109.77 139.003 154.19 139.003 154.19L130.313 159.76C130.313 159.76 100.313 138.22 98.383 134.66C96.863 139.27 95.023 143.81 93.063 148.26C89.693 155.92 85.753 163.67 79.953 169.81C73.953 176.19 65.953 179.81 57.103 179.23C51.4016 178.899 45.9728 176.679 41.673 172.92C35.773 167.56 32.283 159.95 29.903 152.48Z" fill="#B892FF"/>
<path d="M29.903 154.79C34.6715 154.487 39.3205 153.171 43.5401 150.929C47.7596 148.688 51.4527 145.572 54.373 141.79" stroke="#FFE8E8" stroke-width="0.22" stroke-linecap="round" stroke-linejoin="round"/>
<path d="M41.053 152.43C43.5954 156.64 47.0545 160.223 51.173 162.91C53.2355 164.243 55.5429 165.152 57.9604 165.583C60.3779 166.014 62.8571 165.959 65.253 165.42C68.9501 164.315 72.2513 162.17 74.763 159.24C77.259 156.326 79.4692 153.178 81.363 149.84C85.4364 143.174 89.5097 136.49 93.583 129.79C95.303 126.97 97.583 123.79 100.923 123.86C103.583 123.86 105.653 126.07 107.393 128.07L133.323 157.92" stroke="#FFE8E8" stroke-width="0.22" stroke-linecap="round" stroke-linejoin="round"/>
<path d="M52.7831 143.83C54.5732 146.838 55.5082 150.277 55.487 153.777C55.4659 157.277 54.4894 160.705 52.6631 163.69" stroke="#FFE8E8" stroke-width="0.22" stroke-linecap="round" stroke-linejoin="round"/>
<path d="M82.483 102.72C82.483 102.72 94.223 119.21 95.113 119.5C96.003 119.79 128.383 135.7 128.383 135.7L125.563 146.84C125.563 146.84 94.963 141.94 90.503 138.84C86.043 135.74 54.263 113.56 52.633 107.04C51.003 100.52 59.003 85.6404 72.383 89.8004L82.483 102.72Z" fill="#EF737E"/>
<path d="M57.8231 108.36C57.8231 108.36 64.6631 118.91 70.7531 124.26" stroke="#4A3059" stroke-width="0.22" stroke-linecap="round" stroke-linejoin="round"/>
<path d="M57.453 112.3C59.1633 113.465 60.9777 114.47 62.873 115.3" stroke="#4A3059" stroke-width="0.22" stroke-linecap="round" stroke-linejoin="round"/>
<path d="M56.903 99.5604C56.903 99.5604 55.113 87.6404 61.583 81.7404" stroke="#4A3059" stroke-width="0.22" stroke-linecap="round" stroke-linejoin="round"/>
<path d="M83.743 133.77C86.7423 133.248 89.8265 133.527 92.683 134.58C95.463 135.77 97.803 138.36 97.983 141.38" stroke="#4A3059" stroke-width="0.22" stroke-linecap="round" stroke-linejoin="round"/>
<path d="M121.643 146.24C121.869 141.935 122.886 137.708 124.643 133.77" stroke="#4A3059" stroke-width="0.22" stroke-linecap="round" stroke-linejoin="round"/>
<path d="M130.763 159.5L130.873 163.73C130.873 163.73 144.803 164.63 145.583 162.84L138.533 154.43L130.763 159.5Z" fill="#F7A9A8"/>
<path d="M130.873 163.73C130.873 163.73 128.873 171.46 129.783 176.63C129.829 176.909 129.959 177.166 130.156 177.368C130.352 177.57 130.606 177.707 130.883 177.76C133.827 178.225 136.819 178.303 139.783 177.99C146.363 177.44 167.863 178.99 167.783 176.55C167.703 174.11 164.783 172.31 159.533 169.97C154.283 167.63 145.613 162.84 145.613 162.84L130.873 163.73Z" fill="#B892FF"/>
<path d="M129.483 175.98C142.147 177.422 154.936 177.389 167.593 175.88" stroke="#FFE8E8" stroke-width="0.22" stroke-linecap="round" stroke-linejoin="round"/>
<path d="M130.143 167.96C131.867 168.724 133.365 169.918 134.495 171.427C135.624 172.937 136.347 174.711 136.593 176.58" stroke="#FFE8E8" stroke-width="0.22" stroke-linecap="round" stroke-linejoin="round"/>
<path d="M158.223 169.42C156.557 171.569 155.519 174.138 155.223 176.84" stroke="#FFE8E8" stroke-width="0.22" stroke-linecap="round" stroke-linejoin="round"/>
<path d="M144.003 169.46C145.25 167.555 146.832 165.891 148.673 164.55" stroke="#FFE8E8" stroke-width="0.22" stroke-linecap="round" stroke-linejoin="round"/>
<path d="M147.943 170.4C149.026 168.817 150.329 167.396 151.813 166.18" stroke="#FFE8E8" stroke-width="0.22" stroke-linecap="round" stroke-linejoin="round"/>
<path d="M133.223 136.28C133.223 136.28 136.893 135.66 139.173 137.22C140.498 138.077 141.467 139.384 141.903 140.9L133.823 137.58L133.223 136.28Z" fill="#F7A9A8"/>
<path style="mix-blend-mode:multiply" opacity="0.37" d="M133.223 136.27C133.223 136.27 136.893 135.66 139.173 137.27C140.498 138.127 141.467 139.434 141.903 140.95L133.823 137.64L133.223 136.27Z" fill="url(#paint3_linear)"/>
<path d="M134.003 147.35C132.706 149.126 131.271 150.798 129.713 152.35C128.283 153.51 123.423 155.14 123.713 156.8C123.943 157.93 125.493 158 125.493 158C125.493 158 125.033 159.89 126.113 160.24C127.193 160.59 129.943 159.62 129.943 159.62C129.943 159.62 129.133 160.7 129.943 161.32C130.753 161.94 133.383 160.9 134.943 160.05C137.372 158.332 139.709 156.486 141.943 154.52L135.503 147.71L134.003 147.35Z" fill="#F7A9A8"/>
<path d="M130.143 146.04C130.143 146.04 129.333 149.33 129.143 150.72C128.953 152.11 129.413 152.72 130.143 152.15C131.587 150.559 132.942 148.89 134.203 147.15L130.143 146.04Z" fill="#F7A9A8"/>
<g style="mix-blend-mode:multiply" opacity="0.37">
<path style="mix-blend-mode:multiply" opacity="0.37" d="M134.003 147.35C132.706 149.126 131.271 150.798 129.713 152.35C128.283 153.51 123.423 155.14 123.713 156.8C123.943 157.93 125.493 158 125.493 158C125.493 158 125.033 159.89 126.113 160.24C127.193 160.59 129.943 159.62 129.943 159.62C129.943 159.62 129.133 160.7 129.943 161.32C130.753 161.94 133.383 160.9 134.943 160.05C137.372 158.332 139.709 156.486 141.943 154.52L135.503 147.71L134.003 147.35Z" fill="url(#paint4_linear)"/>
<path style="mix-blend-mode:multiply" opacity="0.37" d="M130.143 146.04C130.143 146.04 129.333 149.33 129.143 150.72C128.953 152.11 129.413 152.72 130.143 152.15C131.587 150.559 132.942 148.89 134.203 147.15L130.143 146.04Z" fill="url(#paint5_linear)"/>
</g>
<path d="M125.503 158.04C125.503 158.04 130.353 155.95 132.693 153.87C133.767 152.983 134.77 152.014 135.693 150.97" stroke="#4A3059" stroke-width="0.22" stroke-linecap="round" stroke-linejoin="round"/>
<path d="M130.003 159.61C131.872 158.623 133.669 157.507 135.383 156.27C136.391 155.49 137.312 154.605 138.133 153.63" stroke="#4A3059" stroke-width="0.22" stroke-linecap="round" stroke-linejoin="round"/>
<path d="M129.683 152.34C130.634 151.472 131.538 150.554 132.393 149.59C133.323 148.47 134.033 147.54 134.033 147.54" stroke="#4A3059" stroke-width="0.22" stroke-linecap="round" stroke-linejoin="round"/>
<path d="M125.753 145.57L133.603 147.13L141.403 155.43C141.403 155.43 143.073 154.43 143.243 153.43C143.991 152.994 144.577 152.328 144.913 151.53C144.913 151.53 145.973 150.48 145.803 149.53C145.803 149.53 146.413 148.64 145.633 146.63C145.083 145.321 144.378 144.082 143.533 142.94C143.026 142.08 142.373 141.316 141.603 140.68C140.677 140.182 139.702 139.78 138.693 139.48C136.993 138.77 135.293 138.08 133.553 137.48L128.313 136.31L125.753 145.57Z" fill="#F7A9A8"/>
<path style="mix-blend-mode:multiply" opacity="0.18" d="M133.713 142.38C133.281 143.21 133.147 144.163 133.333 145.08C133.733 146.258 134.457 147.298 135.423 148.08L139.793 152.37C140.129 152.794 140.61 153.079 141.143 153.17C141.614 153.138 142.063 152.955 142.423 152.65C143.05 152.262 143.622 151.791 144.123 151.25C144.564 150.713 144.903 150.1 145.123 149.44C145.344 148.856 145.45 148.235 145.433 147.61C145.336 146.761 145.041 145.946 144.573 145.23C143.669 143.626 142.402 142.257 140.873 141.23C139.534 140.318 137.943 139.846 136.323 139.88C135.103 140.04 134.203 141.38 133.713 142.38Z" fill="url(#paint6_linear)"/>
<defs>
<linearGradient id="paint0_linear" x1="131.803" y1="157.84" x2="146.623" y2="157.84" gradientUnits="userSpaceOnUse">
<stop stop-color="#C76A52" stop-opacity="0"/>
<stop offset="1" stop-color="#EF737E" stop-opacity="0.5"/>
</linearGradient>
<linearGradient id="paint1_linear" x1="588.249" y1="1085.37" x2="621.542" y2="1085.37" gradientUnits="userSpaceOnUse">
<stop stop-color="#C76A52" stop-opacity="0"/>
<stop offset="1" stop-color="#EF737E" stop-opacity="0.5"/>
</linearGradient>
<linearGradient id="paint2_linear" x1="-2228.77" y1="594.608" x2="-1965.59" y2="594.9" gradientUnits="userSpaceOnUse">
<stop stop-color="#C76A52" stop-opacity="0"/>
<stop offset="1" stop-color="#EF737E" stop-opacity="0.5"/>
</linearGradient>
<linearGradient id="paint3_linear" x1="1329.15" y1="782.495" x2="1328.36" y2="806.905" gradientUnits="userSpaceOnUse">
<stop stop-color="#C76A52" stop-opacity="0"/>
<stop offset="1" stop-color="#EF737E" stop-opacity="0.5"/>
</linearGradient>
<linearGradient id="paint4_linear" x1="2380.47" y1="2333.22" x2="2714.31" y2="2333.22" gradientUnits="userSpaceOnUse">
<stop stop-color="#C76A52" stop-opacity="0"/>
<stop offset="1" stop-color="#EF737E" stop-opacity="0.5"/>
</linearGradient>
<linearGradient id="paint5_linear" x1="788.091" y1="1089.04" x2="814.116" y2="1089.04" gradientUnits="userSpaceOnUse">
<stop stop-color="#C76A52" stop-opacity="0"/>
<stop offset="1" stop-color="#EF737E" stop-opacity="0.5"/>
</linearGradient>
<linearGradient id="paint6_linear" x1="1756.55" y1="2086.99" x2="1905.06" y2="2086.99" gradientUnits="userSpaceOnUse">
<stop stop-color="#C76A52" stop-opacity="0"/>
<stop offset="1" stop-color="#EF737E" stop-opacity="0.5"/>
</linearGradient>
</defs>
</svg>
