<svg width="214" height="211" viewBox="0 0 214 211" fill="none" xmlns="http://www.w3.org/2000/svg">
<path d="M17.6981 175.746C14.1881 161.176 10.6981 146.186 12.6981 131.336C13.2481 127.476 14.2481 123.486 16.8281 120.556C19.4081 117.626 23.9181 116.076 27.3481 117.936C28.7981 118.726 29.9581 120.026 31.5181 120.526C34.1481 121.346 36.9881 119.526 38.3581 117.146C39.7281 114.766 40.0181 111.936 40.4981 109.226C41.3181 104.596 42.8481 99.9361 45.9781 96.4361C49.1082 92.9361 54.1181 90.8161 58.6782 92.1261C63.8482 93.6261 66.8781 98.8261 69.4381 103.566C71.9981 108.306 75.1982 113.466 80.4381 114.706C84.8481 115.706 89.6281 113.706 93.9281 115.096C98.5681 116.616 101.028 121.576 102.708 126.166C107.757 139.969 110.231 154.581 110.008 169.276C79.6381 173.846 48.3981 175.336 17.6981 175.746Z" fill="#B892FF"/>
<g opacity="0.4">
<path opacity="0.4" d="M61.9582 201.416C53.5277 197.725 45.3646 193.452 37.5282 188.626L37.1982 188.426C28.0582 182.896 18.5982 177.176 10.6882 169.746C5.79354 165.188 2.3796 159.266 0.888163 152.746C-1.19184 143.486 0.408163 133.166 5.40816 123.656C9.72312 115.638 16.0041 108.848 23.6618 103.923C31.3195 98.9972 40.103 96.0977 49.1882 95.4962C59.8082 94.9162 70.3382 97.5562 80.5282 100.116C84.6682 101.116 88.9582 102.236 93.1982 103.116C97.4382 103.996 101.888 104.626 106.198 105.266C118.648 107.126 131.528 109.036 142.198 115.856C156.098 124.726 164.518 141.466 163.648 158.496C162.818 174.806 153.508 190.746 139.348 200.106C123.038 210.876 100.488 213.386 77.4682 206.966C72.1797 205.466 66.998 203.611 61.9582 201.416ZM134.818 112.496C125.818 108.656 115.818 107.156 106.098 105.706C101.818 105.066 97.3782 104.406 93.0982 103.556C88.8182 102.706 84.5582 101.626 80.4082 100.556C70.2582 98.0062 59.7582 95.3762 49.2182 95.9562C40.2148 96.5512 31.5104 99.4246 23.9223 104.307C16.3342 109.189 10.1114 115.919 5.83816 123.866C0.898163 133.266 -0.691837 143.476 1.35816 152.616C2.82328 159.051 6.19305 164.895 11.0282 169.386C18.8982 176.786 28.3282 182.496 37.4482 188.006L37.7782 188.206C52.7782 197.256 65.3982 203.056 77.5882 206.456C100.478 212.836 122.878 210.356 139.068 199.666C153.068 190.386 162.328 174.586 163.158 158.436C164.008 141.566 155.678 124.996 141.928 116.226C139.664 114.791 137.286 113.544 134.818 112.496Z" fill="#E5C3D1"/>
<path opacity="0.4" d="M62.9982 198.776C55.0028 195.294 47.2606 191.258 39.8282 186.696L39.5082 186.506C30.8382 181.206 21.8682 175.786 14.3682 168.696C9.7154 164.368 6.4716 158.741 5.05819 152.546C3.05819 143.766 4.60819 133.966 9.34819 124.946C13.4457 117.341 19.4079 110.901 26.6755 106.231C33.9432 101.561 42.278 98.8133 50.8982 98.2462C60.9682 97.6862 70.9582 100.246 80.6182 102.626C84.5582 103.626 88.6182 104.626 92.6182 105.436C96.6182 106.246 100.868 106.866 104.928 107.436C116.748 109.196 128.928 111.016 139.098 117.436C152.288 125.846 160.278 141.726 159.458 157.896C158.668 173.366 149.828 188.496 136.388 197.376C120.928 207.596 99.5282 209.966 77.6882 203.886C72.6841 202.509 67.7767 200.802 62.9982 198.776ZM132.118 114.426C123.608 110.776 114.118 109.366 104.878 107.986C100.808 107.376 96.6082 106.756 92.5482 105.986C88.4882 105.216 84.4482 104.156 80.4982 103.166C70.8782 100.696 60.9182 98.2062 50.9182 98.7662C42.3828 99.3284 34.1301 102.049 26.9342 106.674C19.7383 111.299 13.8351 117.676 9.77819 125.206C5.08819 134.116 3.58819 143.806 5.52819 152.466C6.91903 158.57 10.1142 164.113 14.6982 168.376C22.1682 175.376 31.1082 180.806 39.7682 186.036L40.0782 186.226C54.2782 194.816 66.2682 200.316 77.8382 203.536C99.5482 209.536 120.838 207.236 136.148 197.086C149.458 188.296 158.208 173.306 158.988 157.996C159.808 141.996 151.898 126.286 138.858 117.996C136.713 116.624 134.459 115.43 132.118 114.426Z" fill="#E5C3D1"/>
<path opacity="0.4" d="M64.5782 194.776C57.2372 191.563 50.1298 187.841 43.3082 183.636L43.0182 183.466C35.0182 178.646 26.8282 173.666 19.9282 167.186C15.6563 163.211 12.6775 158.045 11.3782 152.356C9.56818 144.286 10.9682 135.286 15.3182 127.006C19.0831 120.023 24.5594 114.11 31.2337 109.821C37.9081 105.533 45.562 103.009 53.4782 102.486C62.7282 101.976 71.8982 104.276 80.7682 106.486C84.3782 107.396 88.1182 108.336 91.7682 109.066C95.4182 109.796 99.3382 110.386 103.068 110.936C113.918 112.556 125.138 114.226 134.438 120.166C146.548 127.886 153.888 142.476 153.138 157.326C152.418 171.526 144.298 185.426 131.958 193.576C117.758 202.966 98.1082 205.146 78.0482 199.576C73.4564 198.278 68.9564 196.674 64.5782 194.776ZM11.8582 152.246C13.1314 157.844 16.0622 162.929 20.2682 166.836C27.1182 173.276 35.3282 178.246 43.2682 183.046L43.5482 183.216C56.5482 191.096 67.5482 196.146 78.2082 199.106C98.1282 204.656 117.628 202.506 131.708 193.196C143.928 185.116 151.958 171.376 152.708 157.316C153.458 142.646 146.208 128.226 134.238 120.596C125.018 114.716 113.858 113.046 103.058 111.436C99.3282 110.886 95.4582 110.306 91.7382 109.566C88.0182 108.826 84.2982 107.886 80.6782 106.986C71.8482 104.766 62.6782 102.466 53.5282 102.986C45.6921 103.496 38.114 105.989 31.5056 110.231C24.8971 114.473 19.4749 120.324 15.7482 127.236C11.4482 135.416 10.0682 144.296 11.8582 152.236V152.246Z" fill="#E5C3D1"/>
<path opacity="0.4" d="M66.0582 191.046C59.3276 188.099 52.8117 184.684 46.5582 180.826L46.2882 180.666C38.9882 176.256 31.4482 171.666 25.1282 165.756C21.2079 162.109 18.4761 157.367 17.2882 152.146C15.6282 144.756 16.9082 136.496 20.8982 128.906C24.3496 122.501 29.3722 117.077 35.4943 113.145C41.6165 109.213 48.6375 106.901 55.8982 106.426C64.3782 105.946 72.7882 108.066 80.8982 110.106C84.2082 110.936 87.6282 111.796 91.0082 112.466C94.3882 113.136 97.9382 113.676 101.358 114.186C111.358 115.666 121.588 117.186 130.118 122.636C141.228 129.726 147.958 143.106 147.268 156.716C146.598 169.716 139.158 182.486 127.848 189.966C114.848 198.566 96.8482 200.566 78.4282 195.436C74.2115 194.25 70.0789 192.784 66.0582 191.046ZM124.208 120.046C117.048 116.986 109.068 115.796 101.298 114.636C97.8782 114.126 94.2982 113.636 90.9182 112.916C87.5382 112.196 84.1082 111.376 80.7882 110.546C72.6882 108.546 64.3182 106.406 55.9082 106.876C48.7316 107.352 41.7936 109.644 35.7451 113.536C29.6966 117.428 24.7358 122.792 21.3282 129.126C17.3882 136.626 16.1282 144.756 17.7582 152.036C18.9318 157.159 21.6138 161.813 25.4582 165.396C31.7382 171.306 39.2682 175.856 46.5382 180.256L46.8082 180.416C58.7482 187.636 68.8082 192.266 78.5682 194.976C96.8182 200.056 114.678 198.086 127.568 189.556C138.758 182.156 146.108 169.556 146.768 156.696C147.448 143.246 140.768 130.046 129.848 123.046C128.05 121.908 126.164 120.915 124.208 120.076V120.046Z" fill="#E5C3D1"/>
<path opacity="0.4" d="M67.7382 186.786C61.7087 184.143 55.8712 181.082 50.2682 177.626L50.0282 177.486C43.4882 173.486 36.7282 169.486 31.0282 164.116C27.5271 160.837 25.0889 156.584 24.0282 151.906C22.6098 144.795 23.7577 137.411 27.2682 131.066C30.3634 125.325 34.8652 120.464 40.3519 116.938C45.8385 113.412 52.1304 111.337 58.6382 110.906C66.2382 110.486 73.7782 112.376 81.0582 114.216C84.0582 114.956 87.0582 115.726 90.1182 116.326C93.1782 116.926 96.3382 117.406 99.3982 117.866C108.308 119.196 117.528 120.566 125.178 125.446C135.178 131.796 141.178 143.796 140.548 156.006C139.948 167.676 133.278 179.106 123.138 185.806C111.458 193.526 95.3182 195.316 78.8382 190.716C75.0548 189.655 71.3466 188.342 67.7382 186.786ZM24.5082 151.786C25.5508 156.372 27.952 160.536 31.3982 163.736C37.0182 169.026 43.7582 173.106 50.2782 177.046L50.5182 177.186C61.2182 183.656 70.2582 187.806 78.9682 190.236C95.3082 194.786 111.308 193.016 122.868 185.386C132.868 178.756 139.478 167.486 140.058 155.956C140.678 143.956 134.728 132.096 124.908 125.836C117.348 121.016 108.188 119.646 99.3282 118.326C96.2582 117.866 93.0882 117.396 90.0282 116.786C86.9682 116.176 83.9182 115.406 80.9482 114.666C73.6882 112.846 66.1882 110.956 58.6682 111.376C52.2376 111.793 46.0185 113.837 40.5956 117.319C35.1727 120.8 30.7241 125.603 27.6682 131.276C24.2133 137.521 23.0831 144.787 24.4782 151.786H24.5082Z" fill="#E5C3D1"/>
<path opacity="0.4" d="M69.6382 181.986C64.3946 179.67 59.316 176.997 54.4382 173.986L54.2382 173.866C48.5482 170.426 42.6682 166.866 37.7382 162.236C34.6915 159.413 32.56 155.742 31.6182 151.696C30.3793 145.506 31.3787 139.078 34.4382 133.556C37.128 128.559 41.0433 124.327 45.8167 121.257C50.5901 118.187 56.0652 116.38 61.7282 116.006C68.3482 115.646 74.8982 117.286 81.2382 118.876C83.8182 119.526 86.4782 120.196 89.1082 120.726C91.7382 121.256 94.5182 121.656 97.1782 122.056C104.928 123.216 112.948 124.406 119.598 128.656C123.945 131.545 127.464 135.516 129.811 140.179C132.157 144.841 133.248 150.034 132.978 155.246C132.615 160.443 131.06 165.487 128.432 169.985C125.805 174.484 122.176 178.317 117.828 181.186C107.668 187.896 93.6282 189.456 79.2882 185.456C75.9973 184.517 72.7734 183.358 69.6382 181.986ZM114.938 126.696C109.368 124.316 103.118 123.386 97.1182 122.486C94.4482 122.086 91.6882 121.676 89.0282 121.146C86.3682 120.616 83.7182 119.956 81.1282 119.306C74.8282 117.716 68.3082 116.086 61.7682 116.446C56.1905 116.808 50.796 118.581 46.0909 121.598C41.3858 124.615 37.5241 128.778 34.8682 133.696C31.8706 139.13 30.8963 145.451 32.1182 151.536C33.0345 155.519 35.1246 159.134 38.1182 161.916C43.0082 166.516 48.8682 170.056 54.5382 173.486L54.7382 173.606C64.0382 179.226 71.8982 182.836 79.4682 184.946C93.6682 188.896 107.568 187.366 117.608 180.726C121.894 177.902 125.47 174.127 128.059 169.696C130.649 165.265 132.181 160.296 132.538 155.176C132.809 150.049 131.738 144.94 129.432 140.352C127.126 135.765 123.664 131.858 119.388 129.016C117.972 128.121 116.483 127.345 114.938 126.696Z" fill="#E5C3D1"/>
<path opacity="0.4" d="M71.5282 177.186C67.0712 175.229 62.7543 172.967 58.6082 170.416L58.4382 170.316C53.5982 167.386 48.6082 164.316 44.4382 160.426C41.8368 158.016 40.0184 154.881 39.2182 151.426C38.1702 146.158 39.0204 140.688 41.6182 135.986C43.9107 131.735 47.2444 128.136 51.3073 125.525C55.3701 122.913 60.0292 121.376 64.8482 121.056C70.4682 120.746 76.0482 122.146 81.4282 123.496C83.6282 124.046 85.8882 124.616 88.1282 125.066C90.3682 125.516 92.7082 125.856 94.9782 126.196C101.568 127.196 108.378 128.196 114.048 131.806C117.745 134.267 120.738 137.647 122.733 141.615C124.728 145.583 125.657 150.001 125.428 154.436C125.122 158.858 123.799 163.15 121.563 166.978C119.328 170.806 116.239 174.067 112.538 176.506C103.898 182.226 91.9482 183.506 79.7582 180.146C76.9515 179.345 74.2019 178.356 71.5282 177.186ZM110.028 130.186C105.298 128.186 100.028 127.376 94.8882 126.606C92.6182 126.276 90.2682 125.926 88.0082 125.466C85.7482 125.006 83.4882 124.466 81.2982 123.906C75.9382 122.556 70.4082 121.166 64.8582 121.476C60.1213 121.786 55.5408 123.294 51.5472 125.861C47.5536 128.427 44.278 131.966 42.0282 136.146C39.481 140.746 38.6483 146.1 39.6782 151.256C40.448 154.631 42.2144 157.697 44.7482 160.056C48.8982 163.956 53.8782 166.966 58.6882 169.876L58.8682 169.986C66.7682 174.756 73.4382 177.816 79.8682 179.606C91.9282 182.966 103.728 181.666 112.248 176.036C115.886 173.638 118.923 170.434 121.122 166.672C123.321 162.911 124.624 158.693 124.928 154.346C125.154 149.994 124.243 145.659 122.285 141.766C120.326 137.873 117.388 134.558 113.758 132.146C112.57 131.398 111.323 130.749 110.028 130.206V130.186Z" fill="#E5C3D1"/>
<path opacity="0.4" d="M72.9082 173.696C69.0173 171.987 65.2484 170.012 61.6282 167.786L61.4782 167.696C57.2582 165.146 52.8982 162.506 49.2382 159.066C46.959 156.947 45.3701 154.191 44.6782 151.156C43.7685 146.562 44.5123 141.795 46.7782 137.696C48.7812 133.989 51.6928 130.852 55.24 128.578C58.7871 126.304 62.8536 124.969 67.0582 124.696C71.9782 124.426 76.8382 125.696 81.5382 126.826C83.4482 127.306 85.4282 127.826 87.3782 128.186C89.3282 128.546 91.3782 128.886 93.3782 129.186C99.1382 130.046 105.088 130.936 110.028 134.086C113.269 136.229 115.895 139.179 117.649 142.646C119.402 146.112 120.222 149.976 120.028 153.856C119.759 157.719 118.603 161.468 116.65 164.811C114.697 168.155 112 171.004 108.768 173.136C101.218 178.136 90.7682 179.286 80.1382 176.316C77.6725 175.605 75.2571 174.73 72.9082 173.696ZM106.478 132.696C102.358 130.936 97.7582 130.246 93.2782 129.576C91.2782 129.286 89.2782 128.976 87.2782 128.576C85.2782 128.176 83.3382 127.686 81.4282 127.206C76.7582 126.036 71.9282 124.826 67.0882 125.096C62.9637 125.365 58.9754 126.678 55.4978 128.912C52.0203 131.146 49.1677 134.227 47.2082 137.866C44.9619 141.881 44.2208 146.564 45.1182 151.076C45.7836 154.018 47.3205 156.691 49.5282 158.746C53.1482 162.146 57.5282 164.746 61.6882 167.306L61.8382 167.396C67.5275 171.022 73.6886 173.849 80.1482 175.796C90.7082 178.696 100.988 177.586 108.418 172.696C111.578 170.603 114.214 167.81 116.122 164.534C118.029 161.259 119.157 157.588 119.418 153.806C119.616 150.016 118.824 146.24 117.12 142.849C115.416 139.458 112.858 136.569 109.698 134.466C108.673 133.793 107.596 133.201 106.478 132.696Z" fill="#E5C3D1"/>
<path opacity="0.4" d="M74.2681 170.256C70.947 168.813 67.7293 167.142 64.6381 165.256L64.5181 165.176C60.781 163.096 57.2748 160.625 54.0581 157.806C52.0901 155.984 50.717 153.611 50.1181 150.996C49.3334 147.059 49.9675 142.971 51.9081 139.456C53.6178 136.279 56.1071 133.589 59.1421 131.639C62.1771 129.688 65.6581 128.542 69.2581 128.306C73.4581 128.066 77.6081 129.116 81.6281 130.126C83.2581 130.536 84.9481 130.956 86.6281 131.286C88.3081 131.616 90.0481 131.876 91.7281 132.126C96.6381 132.866 101.728 133.616 105.948 136.316C108.712 138.154 110.951 140.679 112.443 143.644C113.935 146.609 114.629 149.911 114.458 153.226C114.227 156.525 113.24 159.726 111.574 162.582C109.908 165.438 107.606 167.872 104.848 169.696C98.4081 173.956 89.4881 174.946 80.3881 172.406C78.3025 171.827 76.2579 171.109 74.2681 170.256ZM50.6281 150.886C51.1986 153.388 52.5088 155.66 54.3881 157.406C57.5817 160.195 61.061 162.639 64.7681 164.696L64.8881 164.776C69.7465 167.866 75.0054 170.275 80.5181 171.936C89.5181 174.436 98.2481 173.466 104.588 169.286C107.287 167.505 109.54 165.127 111.172 162.334C112.804 159.542 113.771 156.412 113.998 153.186C114.167 149.954 113.491 146.734 112.037 143.843C110.584 140.952 108.403 138.489 105.708 136.696C101.568 134.056 96.5381 133.306 91.7081 132.586C90.0181 132.326 88.2681 132.066 86.5781 131.736C84.8881 131.406 83.2181 130.976 81.5781 130.566C77.5781 129.566 73.4781 128.566 69.3581 128.756C65.8335 128.98 62.4238 130.098 59.4499 132.003C56.4759 133.908 54.0355 136.538 52.3581 139.646C50.4672 143.058 49.8472 147.03 50.6081 150.856L50.6281 150.886Z" fill="#E5C3D1"/>
<path opacity="0.4" d="M75.5381 167.056C72.7391 165.83 70.0291 164.41 67.4282 162.806L67.3181 162.746C64.1778 160.986 61.2286 158.905 58.5182 156.536C56.8702 155.003 55.7206 153.01 55.2181 150.816C54.5584 147.493 55.0931 144.044 56.7281 141.076C58.1776 138.403 60.2804 136.141 62.8405 134.501C65.4005 132.861 68.3343 131.896 71.3681 131.696C74.9081 131.496 78.3681 132.376 81.7881 133.226C83.1581 133.566 84.5781 133.926 85.9781 134.226C87.3782 134.526 88.8481 134.726 90.2581 134.936C94.4081 135.556 98.6881 136.186 102.258 138.466C104.584 140.014 106.467 142.139 107.724 144.633C108.981 147.128 109.568 149.906 109.428 152.696C109.233 155.483 108.4 158.187 106.992 160.599C105.583 163.011 103.639 165.067 101.308 166.606C95.8682 170.196 88.3081 171.026 80.6881 168.896C78.9324 168.398 77.212 167.783 75.5381 167.056ZM99.6581 137.616C96.6101 136.468 93.4275 135.715 90.1881 135.376C88.7682 135.166 87.2981 134.946 85.8782 134.666C84.4582 134.386 83.0482 134.026 81.6682 133.666C78.3182 132.826 74.8581 131.956 71.3881 132.146C68.4277 132.337 65.5645 133.277 63.068 134.88C60.5716 136.482 58.524 138.694 57.1181 141.306C55.5394 144.17 55.0224 147.499 55.6581 150.706C56.1307 152.806 57.229 154.713 58.8081 156.176C61.491 158.526 64.4138 160.588 67.5281 162.326L67.6381 162.396C71.7245 164.985 76.1454 167.004 80.7782 168.396C88.3082 170.496 95.6781 169.686 100.998 166.166C103.268 164.683 105.166 162.696 106.543 160.36C107.92 158.023 108.74 155.401 108.938 152.696C109.082 149.986 108.517 147.284 107.298 144.859C106.079 142.434 104.249 140.368 101.988 138.866C101.25 138.381 100.471 137.962 99.6581 137.616Z" fill="#E5C3D1"/>
<path opacity="0.4" d="M76.7981 163.856C74.5243 162.86 72.3223 161.707 70.2081 160.406L70.1181 160.356C67.5631 158.945 65.1633 157.269 62.9581 155.356C61.6135 154.104 60.6762 152.477 60.2681 150.686C59.7125 147.96 60.1525 145.125 61.5081 142.696C62.6828 140.514 64.393 138.666 66.4782 137.326C68.5633 135.986 70.9549 135.198 73.4281 135.036C76.3018 135.021 79.1611 135.442 81.9081 136.286C83.0181 136.566 84.1681 136.846 85.3081 137.076C86.4481 137.306 87.6381 137.486 88.7881 137.656C92.1481 138.156 95.6381 138.656 98.5381 140.526C100.439 141.79 101.979 143.526 103.005 145.566C104.03 147.605 104.507 149.876 104.388 152.156C104.233 154.425 103.555 156.627 102.409 158.59C101.262 160.554 99.6774 162.226 97.7781 163.476C93.3481 166.406 87.2281 167.086 80.9881 165.346C79.5596 164.944 78.1598 164.446 76.7981 163.856ZM60.7481 150.536C61.1345 152.23 62.0191 153.77 63.2881 154.956C65.4711 156.86 67.8435 158.536 70.3681 159.956L70.4581 160.016C73.7736 162.114 77.3601 163.749 81.1181 164.876C87.2281 166.576 93.1981 165.876 97.5081 163.076C99.3445 161.866 100.877 160.249 101.985 158.349C103.093 156.45 103.748 154.32 103.898 152.126C104.012 149.934 103.554 147.749 102.568 145.788C101.583 143.826 100.105 142.154 98.2781 140.936C95.4681 139.146 92.0281 138.626 88.7181 138.136C87.5581 137.966 86.3581 137.786 85.2081 137.556C84.0581 137.326 82.9081 137.036 81.7881 136.756C79.0854 135.931 76.274 135.516 73.4481 135.526C71.0594 135.682 68.7496 136.443 66.7361 137.738C64.7225 139.032 63.0714 140.818 61.9381 142.926C60.6509 145.241 60.2291 147.939 60.7481 150.536Z" fill="#E5C3D1"/>
</g>
<path d="M98.7782 165.086C100.488 156.216 102.288 147.086 107.068 139.466C111.848 131.846 120.378 125.796 129.368 126.626C132.048 126.876 134.868 127.686 137.368 126.626C139.478 125.716 140.798 123.626 142.038 121.706C145.777 115.874 149.907 110.301 154.398 105.026C157.188 101.756 160.818 98.3162 165.088 98.8162C166.445 99.0529 167.73 99.5956 168.846 100.403C169.962 101.21 170.879 102.261 171.528 103.476C172.8 105.917 173.61 108.571 173.918 111.306C174.218 113.196 174.588 115.306 176.188 116.386C178.428 117.856 181.478 116.126 183.018 113.936C184.558 111.746 185.458 109.036 187.528 107.326C190.458 104.916 195.098 105.406 198.028 107.826C200.958 110.246 202.358 114.126 202.568 117.916C202.778 121.706 201.948 125.476 201.118 129.186C197.185 146.726 193.262 164.266 189.348 181.806C159.358 175.446 129.008 169.996 98.7782 165.086Z" fill="#B892FF"/>
<g opacity="0.4">
<path opacity="0.4" d="M112.168 180.696C103.74 176.998 95.5768 172.721 87.7382 167.896L87.4082 167.696C78.2682 162.166 68.8082 156.456 60.8982 149.016C56.0016 144.46 52.5873 138.537 51.0982 132.016C49.0182 122.766 50.6182 112.436 55.6182 102.936C59.9329 94.9192 66.2141 88.13 73.872 83.2061C81.53 78.2821 90.3135 75.3848 99.3982 74.7862C110.018 74.1962 120.548 76.7862 130.738 79.3962C134.878 80.3962 139.168 81.5162 143.408 82.3962C147.648 83.2762 152.098 83.9062 156.408 84.5462C168.858 86.4062 181.738 88.3262 192.408 95.1362C206.308 104.006 214.728 120.746 213.858 137.786C213.028 154.086 203.718 170.026 189.558 179.386C173.258 190.166 150.698 192.666 127.678 186.246C122.39 184.746 117.208 182.892 112.168 180.696ZM185.028 91.7662C176.028 87.9262 166.028 86.4362 156.308 84.9762C152.028 84.3362 147.588 83.6762 143.308 82.8262C139.028 81.9762 134.768 80.9062 130.618 79.8262C120.468 77.2762 109.968 74.6462 99.4282 75.2262C90.4283 75.82 81.7266 78.6896 74.1391 83.5661C66.5515 88.4426 60.3267 95.1661 56.0482 103.106C51.1082 112.506 49.5182 122.716 51.5682 131.856C53.0202 138.316 56.391 144.186 61.2382 148.696C69.1082 156.106 78.5382 161.806 87.6582 167.326L87.9882 167.526C102.988 176.526 115.608 182.376 127.798 185.766C150.688 192.146 173.088 189.666 189.278 178.976C203.278 169.696 212.538 153.896 213.368 137.746C214.218 120.876 205.888 104.316 192.138 95.5362C189.875 94.0907 187.497 92.8332 185.028 91.7762V91.7662Z" fill="#E5C3D1"/>
<path opacity="0.4" d="M113.208 178.066C105.213 174.56 97.4714 170.504 90.0382 165.926L89.7182 165.696C81.0482 160.446 72.0782 155.026 64.5782 147.966C59.9235 143.64 56.6793 138.012 55.2682 131.816C53.2682 123.036 54.8182 113.236 59.5582 104.226C63.6616 96.6271 69.6276 90.1944 76.8968 85.5314C84.166 80.8683 92.5002 78.1276 101.118 77.5662C111.188 77.0062 121.178 79.5162 130.838 81.9362C134.778 82.9362 138.838 83.9362 142.838 84.7462C146.838 85.5562 151.088 86.1862 155.148 86.7462C166.968 88.5062 179.148 90.3362 189.318 96.7462C202.508 105.156 210.498 121.046 209.678 137.206C208.888 152.676 200.048 167.806 186.608 176.686C171.148 186.906 149.748 189.286 127.908 183.196C122.9 181.813 117.989 180.1 113.208 178.066ZM182.328 93.6962C173.818 90.0462 164.328 88.6362 155.088 87.2562C151.018 86.6562 146.818 86.0262 142.758 85.2562C138.698 84.4862 134.658 83.4362 130.758 82.4462C121.118 79.9962 111.118 77.4962 101.118 78.0462C92.5828 78.6084 84.3301 81.3295 77.1342 85.9541C69.9383 90.5788 64.0351 96.9556 59.9782 104.486C55.2882 113.406 53.7882 123.086 55.7282 131.756C57.1168 137.871 60.3159 143.426 64.9082 147.696C72.3782 154.696 81.3182 160.126 89.9782 165.356L90.2882 165.546C104.488 174.136 116.478 179.636 128.048 182.856C149.758 188.856 171.048 186.556 186.358 176.416C199.668 167.616 208.418 152.636 209.198 137.316C210.018 121.316 202.108 105.606 189.068 97.3162C186.925 95.9268 184.67 94.716 182.328 93.6962Z" fill="#E5C3D1"/>
<path opacity="0.4" d="M114.788 174.066C107.449 170.845 100.342 167.12 93.5182 162.916L93.2282 162.746C85.2282 157.936 77.0382 152.956 70.1382 146.476C65.868 142.496 62.8897 137.327 61.5882 131.636C59.7782 123.576 61.1782 114.566 65.5282 106.286C69.2922 99.3031 74.7684 93.3906 81.4431 89.1035C88.1179 84.8163 95.7723 82.2951 103.688 81.7762C112.938 81.2562 122.108 83.5662 130.978 85.7762C134.588 86.6762 138.328 87.6162 141.978 88.3462C145.628 89.0762 149.548 89.6662 153.278 90.2162C164.128 91.8362 175.348 93.5062 184.648 99.4462C196.758 107.176 204.098 121.756 203.348 136.606C202.628 150.816 194.508 164.706 182.168 172.866C167.968 182.246 148.318 184.426 128.258 178.866C123.666 177.568 119.166 175.964 114.788 174.066ZM62.1182 131.526C63.3891 137.125 66.3202 142.21 70.5282 146.116C77.3782 152.566 85.5882 157.526 93.5282 162.336L93.8082 162.506C106.808 170.386 117.808 175.436 128.468 178.386C148.388 183.936 167.888 181.786 181.968 172.476C194.188 164.406 202.218 150.656 202.968 136.606C203.718 121.926 196.468 107.506 184.498 99.8762C175.278 93.9962 164.118 92.3362 153.318 90.7262C149.588 90.1662 145.718 89.5862 141.998 88.8462C138.278 88.1062 134.558 87.1762 130.938 86.2662C122.108 84.0462 112.938 81.7462 103.788 82.2662C95.9563 82.7821 88.3838 85.2787 81.7809 89.5221C75.178 93.7655 69.761 99.6164 66.0382 106.526C61.7482 114.706 60.3582 123.586 62.1482 131.526H62.1182Z" fill="#E5C3D1"/>
<path opacity="0.4" d="M116.268 170.326C109.54 167.379 103.024 163.967 96.7682 160.116L96.4982 159.956C89.1982 155.536 81.6582 150.956 75.3382 145.036C71.4155 141.391 68.6832 136.648 67.4982 131.426C65.8382 124.036 67.1182 115.776 71.1082 108.186C74.5593 101.777 79.5828 96.3512 85.707 92.4171C91.8311 88.483 98.8548 86.1703 106.118 85.6962C114.598 85.2262 123.008 87.3362 131.118 89.3762C134.428 90.2062 137.848 91.0662 141.228 91.7462C144.608 92.4262 148.158 92.9462 151.578 93.4562C161.528 94.9362 171.808 96.4562 180.338 101.916C191.448 108.996 198.178 122.376 197.488 135.986C196.818 148.986 189.378 161.756 178.068 169.236C165.068 177.836 147.068 179.836 128.648 174.716C124.43 173.526 120.294 172.06 116.268 170.326ZM174.418 99.3262C167.258 96.2562 159.278 95.0662 151.508 93.9062C148.088 93.3962 144.508 92.9062 141.128 92.1862C137.748 91.4662 134.318 90.6962 130.998 89.8562C122.898 87.8562 114.528 85.7262 106.118 86.1862C98.9433 86.6596 92.0062 88.9478 85.9578 92.8361C79.9093 96.7244 74.9476 102.085 71.5382 108.416C67.5982 115.906 66.3382 124.036 67.9682 131.326C69.1445 136.451 71.826 141.107 75.6682 144.696C81.9482 150.596 89.4782 155.146 96.7482 159.546L97.0182 159.706C108.958 166.926 119.018 171.556 128.778 174.266C147.028 179.346 164.888 177.376 177.778 168.846C188.968 161.456 196.318 148.846 196.978 135.986C197.658 122.546 190.978 109.336 180.058 102.346C178.265 101.197 176.378 100.201 174.418 99.3662V99.3262Z" fill="#E5C3D1"/>
<path opacity="0.4" d="M117.948 166.066C111.919 163.423 106.081 160.363 100.478 156.906L100.238 156.766C93.6982 152.816 86.9382 148.766 81.2382 143.396C77.7388 140.12 75.3008 135.871 74.2382 131.196C72.82 124.082 73.9679 116.695 77.4782 110.346C80.5725 104.606 85.0743 99.745 90.5613 96.2205C96.0484 92.696 102.341 90.6231 108.848 90.1962C116.448 89.7662 123.988 91.6662 131.268 93.4962C134.268 94.2362 137.268 95.0062 140.328 95.6162C143.388 96.2262 146.548 96.6862 149.608 97.1462C158.518 98.4762 167.738 99.8462 175.388 104.726C185.388 111.086 191.388 123.076 190.758 135.286C190.158 146.966 183.488 158.386 173.348 165.086C161.668 172.806 145.528 174.596 129.048 170.006C125.266 168.937 121.558 167.62 117.948 166.066ZM74.7182 131.066C75.7556 135.668 78.1568 139.85 81.6082 143.066C87.2282 148.356 93.9682 152.426 100.488 156.376L100.728 156.516C111.428 162.986 120.468 167.126 129.178 169.516C145.518 174.066 161.518 172.306 173.078 164.666C183.078 158.046 189.688 146.766 190.268 135.236C190.888 123.236 184.938 111.376 175.118 105.116C167.558 100.296 158.398 98.9262 149.538 97.6062C146.468 97.1562 143.298 96.6762 140.238 96.0662C137.178 95.4562 134.118 94.6962 131.118 93.9662C123.858 92.1462 116.358 90.2562 108.838 90.6762C102.408 91.0926 96.1885 93.1375 90.7656 96.6186C85.3427 100.1 80.8942 104.903 77.8382 110.576C74.3842 116.821 73.254 124.087 74.6482 131.086L74.7182 131.066Z" fill="#E5C3D1"/>
<path opacity="0.4" d="M119.848 161.266C114.603 158.954 109.524 156.281 104.648 153.266L104.448 153.146C98.7582 149.706 92.8782 146.146 87.9482 141.516C84.8861 138.669 82.7533 134.964 81.8282 130.886C80.5893 124.696 81.5887 118.268 84.6482 112.746C87.3421 107.756 91.2596 103.533 96.033 100.472C100.806 97.4105 106.279 95.6125 111.938 95.2462C118.558 94.8762 125.108 96.5262 131.448 98.1162C134.028 98.7562 136.688 99.4262 139.318 99.9562C141.948 100.486 144.728 100.896 147.388 101.286C155.138 102.446 163.158 103.636 169.808 107.886C174.155 110.775 177.674 114.746 180.021 119.409C182.367 124.071 183.458 129.264 183.188 134.476C182.827 139.674 181.272 144.718 178.644 149.216C176.017 153.715 172.387 157.548 168.038 160.416C157.878 167.126 143.838 168.686 129.498 164.696C126.21 163.765 122.986 162.62 119.848 161.266ZM165.118 105.986C159.548 103.596 153.338 102.676 147.288 101.766C144.618 101.376 141.858 100.966 139.198 100.436C136.538 99.9062 133.888 99.2362 131.298 98.5862C124.998 97.0062 118.478 95.3662 111.938 95.7262C106.371 96.1042 100.991 97.8876 96.3011 100.91C91.6108 103.932 87.7633 108.093 85.1182 113.006C82.1175 118.428 81.1327 124.737 82.3382 130.816C83.2522 134.799 85.3427 138.416 88.3382 141.196C93.2282 145.796 99.0882 149.336 104.758 152.766L104.958 152.886C114.258 158.516 122.118 162.116 129.688 164.226C143.888 168.226 157.788 166.646 167.828 160.016C172.114 157.19 175.691 153.414 178.28 148.981C180.87 144.548 182.402 139.578 182.758 134.456C183.028 129.329 181.957 124.22 179.651 119.633C177.345 115.046 173.884 111.138 169.608 108.296C168.179 107.402 166.677 106.63 165.118 105.986Z" fill="#E5C3D1"/>
<path opacity="0.4" d="M121.738 156.466C117.281 154.509 112.964 152.247 108.818 149.696L108.648 149.586C103.808 146.666 98.8182 143.586 94.6482 139.696C92.0507 137.283 90.233 134.149 89.4282 130.696C88.3804 125.424 89.2305 119.952 91.8282 115.246C94.1135 110.992 97.4423 107.388 101.502 104.773C105.562 102.158 110.22 100.618 115.038 100.296C120.658 99.9762 126.238 101.376 131.618 102.736C133.818 103.286 136.078 103.856 138.318 104.296C140.558 104.736 142.908 105.096 145.168 105.426C151.758 106.426 158.568 107.426 164.238 111.046C167.94 113.507 170.937 116.89 172.932 120.862C174.928 124.834 175.854 129.257 175.618 133.696C175.31 138.118 173.987 142.409 171.752 146.237C169.516 150.065 166.428 153.325 162.728 155.766C154.088 161.476 142.138 162.766 129.948 159.406C127.15 158.606 124.408 157.624 121.738 156.466ZM160.238 109.466C155.508 107.466 150.238 106.656 145.098 105.896C142.828 105.556 140.478 105.206 138.218 104.756C135.958 104.306 133.698 103.756 131.508 103.186C126.148 101.836 120.618 100.446 115.068 100.756C110.331 101.066 105.751 102.574 101.757 105.141C97.7636 107.707 94.488 111.246 92.2382 115.426C89.6919 120.026 88.8592 125.38 89.8882 130.536C90.6557 133.912 92.4224 136.979 94.9582 139.336C99.1082 143.236 104.088 146.246 108.898 149.156L109.078 149.266C116.978 154.046 123.648 157.106 130.078 158.896C142.138 162.256 153.938 160.946 162.458 155.316C166.084 152.923 169.111 149.729 171.306 145.981C173.501 142.232 174.805 138.029 175.118 133.696C175.346 129.346 174.435 125.011 172.476 121.12C170.518 117.228 167.578 113.915 163.948 111.506C162.769 110.732 161.528 110.056 160.238 109.486V109.466Z" fill="#E5C3D1"/>
<path opacity="0.4" d="M123.118 153.006C119.225 151.301 115.456 149.326 111.838 147.096L111.688 147.006C107.468 144.456 103.108 141.816 99.4482 138.376C97.167 136.258 95.5778 133.502 94.8882 130.466C93.972 125.863 94.716 121.083 96.9882 116.976C98.9927 113.271 101.905 110.134 105.451 107.861C108.998 105.587 113.064 104.25 117.268 103.976C122.188 103.706 127.048 104.976 131.748 106.106C133.658 106.586 135.638 107.106 137.588 107.476C139.538 107.846 141.588 108.166 143.588 108.476C149.348 109.326 155.298 110.216 160.238 113.366C163.449 115.522 166.046 118.472 167.777 121.93C169.509 125.387 170.315 129.234 170.118 133.096C169.848 136.957 168.692 140.704 166.739 144.046C164.786 147.388 162.089 150.235 158.858 152.366C151.308 157.366 140.858 158.516 130.228 155.546C127.805 154.856 125.43 154.007 123.118 153.006ZM156.688 112.006C152.568 110.236 147.968 109.556 143.488 108.886C141.488 108.586 139.488 108.286 137.488 107.886C135.488 107.486 133.548 107.006 131.638 106.526C126.968 105.346 122.138 104.136 117.298 104.406C113.171 104.679 109.181 105.997 105.703 108.236C102.226 110.475 99.3746 113.562 97.4182 117.206C95.2137 121.217 94.5049 125.881 95.4182 130.366C96.0855 133.304 97.6222 135.974 99.8282 138.026C103.448 141.426 107.828 144.026 111.988 146.596L112.138 146.686C117.83 150.306 123.99 153.129 130.448 155.076C140.968 158.006 151.248 156.876 158.678 151.966C161.838 149.87 164.473 147.075 166.381 143.798C168.288 140.521 169.416 136.849 169.678 133.066C169.881 129.27 169.089 125.487 167.383 122.09C165.677 118.693 163.114 115.8 159.948 113.696C158.909 113.052 157.819 112.493 156.688 112.026V112.006Z" fill="#E5C3D1"/>
<path opacity="0.4" d="M124.478 149.536C121.157 148.093 117.939 146.422 114.848 144.536L114.728 144.456C110.991 142.376 107.485 139.905 104.268 137.086C102.32 135.271 100.961 132.912 100.368 130.316C99.5517 126.358 100.172 122.238 102.118 118.696C103.828 115.519 106.317 112.829 109.352 110.879C112.387 108.928 115.868 107.782 119.468 107.546C123.668 107.316 127.818 108.356 131.838 109.366C133.468 109.776 135.158 110.196 136.838 110.526C138.518 110.856 140.258 111.126 141.938 111.376C146.848 112.106 151.938 112.866 156.158 115.556C158.922 117.394 161.161 119.919 162.653 122.884C164.145 125.849 164.84 129.151 164.668 132.466C164.438 135.77 163.45 138.976 161.779 141.836C160.109 144.696 157.803 147.132 155.038 148.956C148.598 153.216 139.678 154.206 130.578 151.676C128.501 151.094 126.463 150.38 124.478 149.536ZM100.838 130.166C101.411 132.67 102.72 134.944 104.598 136.696C107.796 139.486 111.274 141.935 114.978 144.006L115.098 144.076C119.956 147.169 125.215 149.581 130.728 151.246C139.728 153.736 148.458 152.776 154.798 148.586C157.501 146.809 159.756 144.431 161.388 141.638C163.021 138.845 163.986 135.713 164.208 132.486C164.375 129.256 163.698 126.038 162.245 123.149C160.791 120.259 158.611 117.798 155.918 116.006C151.778 113.376 146.748 112.616 141.918 111.896C140.228 111.646 138.478 111.386 136.788 111.046C135.098 110.706 133.428 110.286 131.788 109.876C127.788 108.876 123.688 107.876 119.568 108.076C116.044 108.299 112.635 109.414 109.661 111.317C106.687 113.221 104.246 115.849 102.568 118.956C100.677 122.368 100.057 126.34 100.818 130.166H100.838Z" fill="#E5C3D1"/>
<path opacity="0.4" d="M125.748 146.336C122.949 145.11 120.239 143.69 117.638 142.086L117.528 142.026C114.386 140.27 111.436 138.188 108.728 135.816C107.078 134.284 105.928 132.291 105.428 130.096C104.768 126.773 105.303 123.324 106.938 120.356C108.385 117.68 110.487 115.414 113.047 113.77C115.607 112.126 118.542 111.158 121.578 110.956C125.118 110.756 128.578 111.636 131.998 112.486C133.368 112.836 134.788 113.186 136.188 113.486C137.588 113.786 139.058 113.986 140.468 114.196C144.618 114.816 148.898 115.446 152.468 117.726C154.8 119.277 156.689 121.409 157.947 123.911C159.206 126.413 159.792 129.199 159.648 131.996C159.452 134.781 158.618 137.483 157.21 139.893C155.801 142.304 153.857 144.358 151.528 145.896C146.088 149.486 138.528 150.326 130.908 148.186C129.149 147.685 127.425 147.067 125.748 146.336ZM149.868 116.896C146.82 115.748 143.638 114.995 140.398 114.656C138.978 114.446 137.508 114.226 136.088 113.946C134.668 113.666 133.258 113.306 131.878 112.946C128.528 112.106 125.068 111.236 121.598 111.436C118.646 111.628 115.791 112.568 113.302 114.167C110.813 115.766 108.771 117.971 107.368 120.576C105.789 123.443 105.272 126.775 105.908 129.986C106.383 132.085 107.481 133.992 109.058 135.456C111.741 137.803 114.664 139.861 117.778 141.596L117.888 141.666C121.972 144.259 126.394 146.278 131.028 147.666C138.558 149.766 145.928 148.956 151.248 145.436C153.519 143.945 155.413 141.948 156.784 139.603C158.154 137.257 158.963 134.626 159.148 131.916C159.359 128.76 158.578 125.617 156.914 122.928C155.25 120.238 152.786 118.136 149.868 116.916V116.896Z" fill="#E5C3D1"/>
<path opacity="0.4" d="M127.008 143.146C124.735 142.15 122.533 140.997 120.418 139.696L120.328 139.646C117.769 138.222 115.368 136.529 113.168 134.596C111.826 133.347 110.889 131.724 110.478 129.936C109.936 127.223 110.376 124.405 111.718 121.986C112.894 119.805 114.605 117.958 116.69 116.618C118.775 115.278 121.165 114.49 123.638 114.326C126.512 114.316 129.37 114.737 132.118 115.576C133.228 115.856 134.378 116.146 135.518 116.366C136.658 116.586 137.848 116.776 138.998 116.946C142.358 117.446 145.848 117.946 148.748 119.816C150.65 121.08 152.189 122.816 153.215 124.856C154.241 126.895 154.717 129.166 154.598 131.446C154.441 133.716 153.763 135.918 152.617 137.883C151.471 139.848 149.887 141.523 147.988 142.776C143.558 145.696 137.438 146.376 131.198 144.636C129.771 144.23 128.372 143.732 127.008 143.146ZM111.008 129.816C111.392 131.511 112.277 133.051 113.548 134.236C115.726 136.147 118.099 137.823 120.628 139.236L120.718 139.296C124.033 141.404 127.619 143.049 131.378 144.186C137.488 145.886 143.458 145.186 147.768 142.376C149.601 141.161 151.128 139.539 152.229 137.635C153.331 135.732 153.977 133.601 154.118 131.406C154.232 129.214 153.774 127.029 152.789 125.068C151.803 123.106 150.325 121.434 148.498 120.216C145.688 118.426 142.248 117.906 138.938 117.416C137.778 117.246 136.578 117.066 135.428 116.836C134.278 116.606 133.128 116.316 132.008 116.036C129.305 115.211 126.494 114.796 123.668 114.806C121.28 114.962 118.97 115.723 116.956 117.018C114.943 118.312 113.292 120.098 112.158 122.206C110.871 124.521 110.449 127.219 110.968 129.816H111.008Z" fill="#E5C3D1"/>
</g>
<path d="M116.718 174.696C119.778 168.516 123.298 161.876 129.568 158.996C133.138 157.366 137.238 157.146 140.758 155.396C145.098 153.246 147.988 149.066 151.178 145.396C154.368 141.726 158.538 138.266 163.378 138.396C167.428 138.516 171.068 141.276 173.108 144.786C175.148 148.296 175.788 152.436 175.908 156.486C175.958 158.146 175.978 159.966 177.038 161.246C178.398 162.896 180.828 162.966 182.898 163.446C184.921 163.911 186.795 164.875 188.35 166.249C189.905 167.624 191.091 169.365 191.801 171.316C192.51 173.266 192.721 175.363 192.413 177.415C192.105 179.467 191.289 181.41 190.038 183.066C189.248 182.966 188.518 183.756 187.718 183.756H116.278" fill="#8B6FED"/>
<path d="M19.1182 182.976C17.609 180.875 16.4537 178.541 15.6982 176.066C15.333 174.825 15.2713 173.513 15.5184 172.243C15.7655 170.973 16.3142 169.78 17.1182 168.766C18.3282 167.436 20.1182 166.766 21.3882 165.456C25.9882 161.026 22.8082 152.856 25.8182 147.216C28.8282 141.576 36.8182 140.796 42.3282 143.676C47.8382 146.556 51.4982 152.026 54.8882 157.276C58.2745 154.301 62.4171 152.319 66.8588 151.549C71.3005 150.78 75.8684 151.253 80.0582 152.916C84.1991 154.698 87.7676 157.589 90.3702 161.269C92.9729 164.95 94.5087 169.278 94.8082 173.776C70.7782 178.896 43.6482 181.696 19.1182 182.976Z" fill="#8B6FED"/>
<path d="M104.828 192.446C152.247 192.446 190.688 187.996 190.688 182.506C190.688 177.016 152.247 172.566 104.828 172.566C57.409 172.566 18.9681 177.016 18.9681 182.506C18.9681 187.996 57.409 192.446 104.828 192.446Z" fill="#FFC2E2"/>
<path d="M104.118 143.696C103.88 146.433 103.797 149.18 103.868 151.926C103.841 152.439 103.941 152.951 104.158 153.416C104.272 153.644 104.463 153.824 104.698 153.925C104.932 154.026 105.194 154.04 105.438 153.966C105.978 153.736 106.088 153.036 106.128 152.456L106.678 143.406" stroke="#4A3059" stroke-width="0.21" stroke-linecap="round" stroke-linejoin="round"/>
<path d="M141.568 95.5562C141.088 89.2062 140.858 84.2662 135.848 78.4062C131.848 73.6862 124.048 70.1062 117.978 69.1062C112.157 68.1981 106.23 68.1981 100.408 69.1062C92.3421 70.5387 84.8211 74.1488 78.6582 79.5462C72.1182 85.4062 70.1181 96.2562 70.9381 104.696C72.1781 117.946 79.6281 130.126 82.5381 131.956C82.6065 132.007 82.6803 132.051 82.7581 132.086C82.2981 134.306 81.9482 135.866 81.9482 135.866C81.9482 135.866 88.3882 146.586 107.948 145.306C127.508 144.026 134.418 138.696 134.418 138.696L130.948 125.196C138.118 124.136 142.408 106.696 141.568 95.5562Z" fill="#7D82B8"/>
<path d="M88.1181 92.3461L93.1181 115.716L111.118 118.056L109.688 130.626C109.688 130.626 95.0981 135.236 83.8381 132.016" stroke="#4A3059" stroke-width="0.21" stroke-linecap="round" stroke-linejoin="round"/>
<path d="M93.1782 115.696C90.5578 116.695 88.2828 118.432 86.6282 120.696" stroke="#4A3059" stroke-width="0.21" stroke-linecap="round" stroke-linejoin="round"/>
<path d="M90.2781 93.9562L89.9581 100.706" stroke="#4A3059" stroke-width="0.21" stroke-linecap="round" stroke-linejoin="round"/>
<path d="M108.208 117.696C107.037 122.221 106.281 126.844 105.948 131.506" stroke="#4A3059" stroke-width="0.21" stroke-linecap="round" stroke-linejoin="round"/>
<path d="M82.2382 77.0062C84.3546 79.4768 85.9255 82.3665 86.8482 85.4862" stroke="#4A3059" stroke-width="0.21" stroke-linecap="round" stroke-linejoin="round"/>
<path d="M98.1182 69.6962C98.1182 69.6962 100.688 75.4862 109.058 75.9162C117.428 76.3462 123.058 70.2362 123.058 70.2362" stroke="#4A3059" stroke-width="0.21" stroke-linecap="round" stroke-linejoin="round"/>
<path d="M118.268 69.6962C118.268 69.6962 117.008 73.1462 110.008 73.8662C108.117 74.1179 106.194 73.8005 104.484 72.9544C102.774 72.1084 101.355 70.7722 100.408 69.1162C101.736 66.5211 102.698 63.7549 103.268 60.8962C103.408 59.8262 103.468 59.0762 103.488 58.8962C103.49 58.8729 103.49 58.8495 103.488 58.8262L115.338 58.7562H115.948L116.238 60.4662L118.268 69.6962Z" fill="#F79392"/>
<g style="mix-blend-mode:multiply" opacity="0.44">
<path d="M116.248 60.4662C115.988 60.8762 115.538 64.3962 110.498 64.9462C106.598 65.3762 103.778 61.9462 103.268 60.9462C103.408 59.8762 103.468 59.1262 103.488 58.9462C107.353 60.1804 111.514 60.1313 115.348 58.8062H115.958L116.248 60.4662Z" fill="#EF737E"/>
</g>
<path d="M96.8482 51.1662C91.9082 52.5462 89.1982 45.8962 91.1282 43.2762C92.7082 41.1162 94.4082 42.1162 95.2782 42.9162C95.5009 43.1138 95.7051 43.3314 95.8882 43.5662L96.3082 46.9262L96.8382 51.1462L96.8482 51.1662Z" fill="#F79392"/>
<path d="M92.4382 45.0762C93.1401 45.4199 93.7593 45.9117 94.253 46.5176C94.7467 47.1235 95.1033 47.8292 95.2982 48.5862" stroke="#4A3059" stroke-width="0.26" stroke-linecap="round" stroke-linejoin="round"/>
<path d="M93.7182 46.0261C93.3715 46.3183 93.1267 46.713 93.0188 47.1533C92.911 47.5936 92.9458 48.0568 93.1182 48.4761" stroke="#4A3059" stroke-width="0.26" stroke-linecap="round" stroke-linejoin="round"/>
<path d="M122.408 51.5562H122.328C122.082 51.5763 121.834 51.5763 121.588 51.5562C121.081 51.5416 120.578 51.4505 120.098 51.2862L120.808 45.5762L121.018 43.9862C121.681 43.4145 122.449 42.9764 123.278 42.6962C123.898 42.4881 124.568 42.4881 125.188 42.6962C125.822 42.9297 126.355 43.3747 126.698 43.9562C128.178 46.2362 125.988 50.9762 122.408 51.5562Z" fill="#F79392"/>
<path d="M124.768 44.7462C124.203 45.2872 123.762 45.9451 123.477 46.674C123.192 47.4028 123.07 48.1851 123.118 48.9662" stroke="#4A3059" stroke-width="0.26" stroke-linecap="round" stroke-linejoin="round"/>
<path d="M123.848 46.0461C124.267 46.2197 124.62 46.5211 124.857 46.9072C125.094 47.2933 125.203 47.7444 125.168 48.1961" stroke="#4A3059" stroke-width="0.26" stroke-linecap="round" stroke-linejoin="round"/>
<path d="M123.288 42.6961C123.288 42.9561 123.288 43.2061 123.288 43.4561C123.223 44.4785 123.103 45.4966 122.928 46.5061C122.928 46.7461 122.838 46.9861 122.798 47.2161C122.758 47.4461 122.698 47.6961 122.648 47.9361C122.598 48.1761 122.548 48.4161 122.488 48.6561C122.264 49.6206 121.987 50.572 121.658 51.5061C121.428 52.1868 121.161 52.8545 120.858 53.5061C120.263 54.849 119.496 56.1094 118.578 57.2561C117.611 58.5435 116.364 59.5942 114.932 60.3288C113.499 61.0633 111.918 61.4625 110.308 61.4961H109.688H109.178H109.068C107.655 61.4478 106.258 61.1778 104.928 60.6961C103.016 59.9119 101.307 58.7051 99.9282 57.1661C99.2966 56.4735 98.7308 55.7236 98.2382 54.9261C97.5477 53.7987 96.962 52.6104 96.4882 51.3761V51.3061C96.3582 50.9861 96.2482 50.6761 96.1382 50.3061C95.8351 49.4505 95.5781 48.5792 95.3682 47.6961C95.0525 46.1856 94.8785 44.649 94.8482 43.1061C94.7382 36.6061 97.1982 29.9061 103.358 26.9461C104.274 26.4965 105.241 26.1607 106.238 25.9461C108.392 25.5146 110.617 25.5871 112.739 26.1578C114.86 26.7285 116.821 27.7821 118.468 29.2361C122.328 32.6961 123.488 37.7461 123.288 42.6961Z" fill="#F79392"/>
<g opacity="0.35">
<g style="mix-blend-mode:multiply" opacity="0.33">
<path d="M122.868 46.5862C122.319 50.4922 120.807 54.2003 118.468 57.3762C117.568 57.2438 116.71 56.9084 115.958 56.3954C115.207 55.8824 114.582 55.2052 114.131 54.415C113.679 53.6248 113.414 52.7424 113.354 51.8345C113.294 50.9266 113.442 50.017 113.785 49.1744C114.129 48.3319 114.66 47.5785 115.337 46.9714C116.015 46.3642 116.822 45.9191 117.697 45.6697C118.572 45.4204 119.492 45.3733 120.388 45.5321C121.284 45.6908 122.132 46.0513 122.868 46.5862Z" fill="#F68BD0"/>
</g>
<g style="mix-blend-mode:multiply" opacity="0.33">
<path d="M106.228 51.2762C106.181 52.8553 105.513 54.3521 104.369 55.4417C103.225 56.5313 101.698 57.1258 100.118 57.0962H99.8882C99.225 56.3923 98.6322 55.6253 98.1182 54.8062C97.4317 53.6765 96.8461 52.4886 96.3682 51.2562C96.2382 50.9162 96.1182 50.5662 95.9982 50.2562C95.7407 49.4145 95.527 48.56 95.3582 47.6962C95.5175 47.475 95.6912 47.2645 95.8782 47.0662C96.734 46.1513 97.8547 45.5272 99.0832 45.2815C100.312 45.0358 101.586 45.1808 102.728 45.6962C102.959 45.8023 103.182 45.9226 103.398 46.0562C104.282 46.606 105.008 47.3763 105.504 48.2916C106 49.2068 106.25 50.2353 106.228 51.2762Z" fill="#F68BD0"/>
</g>
</g>
<path d="M105.118 45.1661C105.102 45.3159 105.056 45.4609 104.983 45.5927C104.91 45.7244 104.812 45.8403 104.694 45.9335C104.575 46.0266 104.44 46.0952 104.294 46.1352C104.149 46.1751 103.997 46.1856 103.848 46.1661C103.631 46.1357 103.427 46.042 103.262 45.8968C103.098 45.7515 102.98 45.5611 102.922 45.3491C102.865 45.1372 102.871 44.9131 102.94 44.7047C103.009 44.4963 103.138 44.3128 103.311 44.177C103.483 44.0412 103.692 43.9591 103.91 43.9408C104.129 43.9226 104.349 43.9691 104.541 44.0744C104.734 44.1798 104.891 44.3395 104.994 44.5336C105.096 44.7277 105.14 44.9476 105.118 45.1661Z" fill="#4A3059"/>
<path d="M116.208 45.2862C116.203 45.5718 116.086 45.8439 115.882 46.044C115.678 46.2441 115.404 46.3562 115.118 46.3562C114.825 46.3483 114.548 46.2252 114.346 46.0135C114.143 45.8019 114.033 45.5189 114.038 45.2262C114.048 44.9429 114.165 44.674 114.366 44.4735C114.566 44.2731 114.835 44.1561 115.118 44.1462C115.265 44.1488 115.409 44.1804 115.544 44.2392C115.678 44.298 115.799 44.3829 115.901 44.4889C116.002 44.5949 116.082 44.7199 116.134 44.8568C116.187 44.9936 116.212 45.1396 116.208 45.2862Z" fill="#4A3059"/>
<path d="M107.948 50.9462L108.858 50.6262C108.871 50.6216 108.885 50.6198 108.899 50.6209C108.913 50.6219 108.926 50.6259 108.939 50.6325C108.951 50.6391 108.962 50.6481 108.97 50.6591C108.979 50.6701 108.985 50.6827 108.988 50.6962V51.2762C108.99 51.2901 108.988 51.3042 108.984 51.3175C108.979 51.3308 108.972 51.343 108.963 51.3534C108.953 51.3638 108.942 51.3721 108.929 51.3777C108.916 51.3833 108.902 51.3862 108.888 51.3862C108.859 51.3862 108.831 51.3746 108.81 51.3539C108.79 51.3333 108.778 51.3053 108.778 51.2762V50.6962L108.918 50.7962L108.028 51.1662C108.012 51.1727 107.996 51.1761 107.978 51.1762C107.961 51.1762 107.944 51.1729 107.929 51.1664C107.913 51.1599 107.899 51.1503 107.886 51.1383C107.874 51.1262 107.865 51.1119 107.858 51.0962C107.845 51.0629 107.844 51.0257 107.857 50.9922C107.87 50.9586 107.896 50.9314 107.928 50.9162L107.948 50.9462Z" fill="#4A3059"/>
<path d="M108.318 49.9162L108.118 51.0362C108.111 51.0617 108.095 51.0839 108.073 51.0986C108.051 51.1133 108.024 51.1195 107.998 51.1162C107.984 51.114 107.97 51.1087 107.958 51.1007C107.946 51.0926 107.936 51.0821 107.928 51.0697C107.92 51.0573 107.916 51.0434 107.914 51.029C107.912 51.0146 107.914 51 107.918 50.9862L108.278 49.8762C108.278 49.8762 108.278 49.8762 108.338 49.8762V49.9362L108.318 49.9162Z" fill="#4A3059"/>
<g style="mix-blend-mode:multiply" opacity="0.33">
<g style="mix-blend-mode:multiply" opacity="0.67">
<path d="M113.118 45.2261C113.632 45.935 114.257 46.5563 114.968 47.0661C114.968 47.0661 114.088 48.3461 113.518 47.6161C113.155 46.8753 113.016 46.0448 113.118 45.2261Z" fill="#F68BD0"/>
</g>
<g style="mix-blend-mode:multiply" opacity="0.67">
<path d="M106.408 44.5062C105.921 45.3339 105.379 46.1289 104.788 46.8862C104.788 46.8862 105.998 47.8862 106.658 47.0762C107.318 46.2662 106.408 44.5062 106.408 44.5062Z" fill="#F68BD0"/>
</g>
</g>
<path d="M112.388 41.9661C112.209 42.0989 112.06 42.2667 111.948 42.4593C111.836 42.6518 111.765 42.8651 111.738 43.0861C111.674 43.5393 111.694 44.0004 111.798 44.4461L112.358 47.2461L112.638 48.6461C112.765 49.1257 112.829 49.6199 112.828 50.1161C112.82 50.3888 112.735 50.6535 112.582 50.8799C112.43 51.1063 112.217 51.2853 111.968 51.3961C111.505 51.5881 111.009 51.6867 110.508 51.6861C110.482 51.6827 110.457 51.6713 110.437 51.6534C110.418 51.6355 110.404 51.612 110.398 51.5861C110.398 51.5601 110.407 51.5348 110.423 51.5146C110.439 51.4945 110.463 51.4809 110.488 51.4761C110.942 51.4144 111.384 51.2828 111.798 51.0861C111.979 50.9886 112.131 50.8445 112.239 50.6688C112.346 50.493 112.404 50.2919 112.408 50.0861C112.388 49.6179 112.324 49.1527 112.218 48.6961L111.948 47.2961C111.778 46.3561 111.598 45.4261 111.448 44.4761C111.348 43.9879 111.348 43.4844 111.448 42.9961C111.496 42.7443 111.594 42.5048 111.737 42.2917C111.88 42.0787 112.064 41.8965 112.278 41.7561C112.297 41.7378 112.322 41.7275 112.348 41.7275C112.374 41.7275 112.399 41.7378 112.418 41.7561C112.44 41.7657 112.459 41.7823 112.47 41.8034C112.482 41.8244 112.487 41.8487 112.483 41.8726C112.48 41.8964 112.469 41.9185 112.451 41.9354C112.434 41.9523 112.412 41.9631 112.388 41.9661Z" fill="#4A3059"/>
<path d="M127.758 36.6962C127.558 37.4665 127.196 38.1853 126.696 38.8044C126.196 39.4235 125.569 39.9287 124.858 40.2862C124.602 40.4095 124.334 40.5066 124.058 40.5762C124.214 41.3668 124.176 42.1833 123.948 42.9562C123.728 43.6862 122.948 46.8462 121.878 46.5662C121.598 46.4862 121.458 46.1662 121.378 45.8862C120.781 43.8979 120.675 41.7945 121.068 39.7562C120.969 39.6139 120.888 39.4593 120.828 39.2962C120.378 38.1962 120.578 36.7462 119.688 35.9562C119.15 35.5515 118.476 35.3722 117.808 35.4562C117.148 35.4562 116.488 35.6662 115.808 35.6762C115.21 35.6794 114.619 35.5573 114.071 35.3179C113.523 35.0785 113.032 34.7271 112.628 34.2862C111.868 33.4562 111.448 32.2862 110.548 31.6262C110.004 31.2907 109.398 31.0666 108.766 30.9671C108.135 30.8675 107.489 30.8944 106.868 31.0462C105.948 31.1862 105.048 31.4262 104.128 31.5062H103.448C103.003 32.0895 102.462 32.5932 101.848 32.9962C100.92 33.4504 100.067 34.0439 99.3182 34.7562C98.6899 35.6749 98.3807 36.7746 98.4382 37.8862C98.5056 38.9961 98.3976 40.1098 98.1182 41.1862C98.1182 41.3162 98.0182 41.4362 97.9582 41.5662C97.9389 43.0675 97.6545 44.5537 97.1182 45.9562C97.0082 46.2262 96.8482 46.5362 96.5582 46.5862C95.4982 46.7762 94.9682 43.5862 94.8182 42.8162C94.2846 42.4625 93.8781 41.9474 93.6582 41.3462C93.312 40.4042 93.3443 39.3648 93.7482 38.4462C94.1207 37.7998 94.4546 37.132 94.7482 36.4462C94.9379 35.4249 94.9379 34.3774 94.7482 33.3562C94.6632 32.0099 94.9171 30.6638 95.4866 29.4409C96.0561 28.2181 96.923 27.1575 98.0082 26.3562C98.1882 26.2262 98.3882 26.1062 98.5882 25.9862C98.6325 25.5451 98.7333 25.1115 98.8882 24.6962C99.7491 22.691 101.309 21.0669 103.278 20.1262C104.405 19.6012 105.628 19.311 106.871 19.2732C108.113 19.2353 109.351 19.4507 110.508 19.9062C112.508 20.6862 114.178 22.1562 116.268 22.4162C117.868 22.6162 119.488 22.0662 121.078 22.3062C122.168 22.5009 123.166 23.0437 123.921 23.8532C124.677 24.6627 125.149 25.6953 125.268 26.7962C125.358 27.9062 125.078 29.0762 125.488 30.1262C125.88 30.847 126.357 31.5184 126.908 32.1262C127.371 32.7815 127.687 33.5292 127.834 34.3181C127.98 35.1069 127.955 35.9182 127.758 36.6962Z" fill="#613F75"/>
<path d="M104.538 38.8062C104.863 38.5835 105.258 38.4875 105.648 38.5362C105.895 38.6249 106.101 38.8013 106.226 39.0318C106.351 39.2622 106.388 39.5307 106.328 39.7862C106.189 40.2979 105.887 40.7506 105.468 41.0762C104.379 42.0297 103.07 42.6965 101.658 43.0162C101.258 43.1259 100.84 43.1565 100.428 43.1062C99.0582 42.8562 99.2282 41.6362 100.198 41.1062C101.638 40.3262 103.118 39.5762 104.538 38.8062Z" fill="#4A3059"/>
<path d="M114.748 39.3461C114.423 39.1241 114.03 39.0249 113.638 39.0661C113.392 39.1588 113.189 39.3378 113.065 39.5697C112.942 39.8016 112.907 40.0706 112.968 40.3261C113.108 40.8379 113.409 41.2906 113.828 41.6161C114.913 42.5692 116.22 43.2361 117.628 43.5561C118.032 43.6654 118.453 43.696 118.868 43.6461C120.238 43.3961 120.068 42.1761 119.088 41.6461C117.658 40.8661 116.198 40.1161 114.748 39.3461Z" fill="#4A3059"/>
<path d="M113.008 55.5762C112.728 55.9462 112.148 55.8462 111.678 55.7662C110.597 55.5771 109.489 55.6248 108.428 55.9062C107.788 56.0862 105.868 56.7762 105.748 55.6062C105.756 55.4071 105.811 55.2126 105.908 55.0388C106.005 54.865 106.142 54.7167 106.308 54.6062C106.816 54.1945 107.37 53.8422 107.958 53.5562C108.831 53.0914 109.831 52.9229 110.808 53.0762C111.554 53.1565 112.242 53.5133 112.738 54.0762C112.904 54.2563 113.033 54.4668 113.118 54.6962C113.169 54.8414 113.185 54.9964 113.166 55.149C113.147 55.3016 113.093 55.4478 113.008 55.5762Z" fill="#4A3059"/>
<path d="M112.738 54.0561C112.692 54.1715 112.607 54.267 112.498 54.3261C112.334 54.3664 112.162 54.3664 111.998 54.3261C110.431 54.1777 108.85 54.3443 107.348 54.8161C106.908 54.9561 106.348 54.9661 106.348 54.5561C106.857 54.1368 107.41 53.7746 107.998 53.4761C108.874 53.0106 109.878 52.8421 110.858 52.9961C111.593 53.1085 112.262 53.4855 112.738 54.0561Z" fill="#FFE8E8"/>
<path d="M108.848 57.1061C109.67 57.2467 110.513 57.2058 111.318 56.9861" stroke="#4A3059" stroke-width="0.26" stroke-linecap="round" stroke-linejoin="round"/>
<path d="M61.2282 120.846C58.9202 122.325 57.1387 124.496 56.1383 127.048C55.1379 129.6 54.9699 132.403 55.6582 135.056C58.0082 143.676 60.0682 145.756 63.1682 150.216C66.2682 154.676 78.9182 166.576 91.5782 174.896C97.6621 179.026 103.95 182.848 110.418 186.346L119.838 179.506C113.428 170.896 106.918 162.236 101.398 153.006C96.4582 144.726 92.3982 136.216 85.5582 129.306C79.7682 123.456 69.6382 115.896 61.2282 120.846Z" fill="#613F75"/>
<path d="M91.5282 179.776C91.5282 179.776 105.368 154.596 115.118 142.156C124.868 129.716 127.438 125.926 134.738 123.346C142.038 120.766 146.448 124.556 149.638 128.656C152.828 132.756 150.938 139.416 148.168 146.656C145.488 153.656 102.498 187.226 102.498 187.226L91.5282 179.776Z" fill="#613F75"/>
<path d="M119.268 89.9861C120.945 90.5305 122.733 90.6324 124.461 90.282C126.189 89.9316 127.796 89.1407 129.128 87.9861C129.128 87.9861 139.878 120.046 130.988 124.986C122.558 129.696 116.988 119.836 116.838 112.116C116.688 104.396 119.268 89.9861 119.268 89.9861Z" fill="#7D82B8"/>
<path d="M118.548 89.7662L118.978 73.9762C118.978 73.9762 115.478 72.4662 115.048 69.8262C114.618 67.1862 117.338 62.1062 116.618 61.8262C116.618 61.8262 115.188 65.6162 114.188 65.8262C113.188 66.0362 112.938 64.1062 112.938 64.1062C112.938 64.1062 111.228 62.6962 111.188 61.6962C111.188 61.1162 109.758 60.3062 110.328 58.5562C110.578 57.7762 113.548 53.6162 114.408 53.6862C115.268 53.7562 117.688 55.5462 117.688 55.5462C117.688 55.5462 123.268 56.2662 123.478 56.9062C123.688 57.5462 123.838 69.2062 123.768 71.1362C123.698 73.0662 129.418 88.8562 129.418 88.8562C129.418 88.8562 124.698 94.4862 118.548 89.7662Z" fill="#F79392"/>
<path style="mix-blend-mode:multiply" opacity="0.33" d="M118.548 89.7662L118.978 73.9762C118.978 73.9762 115.478 72.4662 115.048 69.8262C114.618 67.1862 117.338 62.1062 116.618 61.8262C116.618 61.8262 115.188 65.6162 114.188 65.8262C113.188 66.0362 112.938 64.1062 112.938 64.1062C112.938 64.1062 111.228 62.6962 111.188 61.6962C111.188 61.1162 109.758 60.3062 110.328 58.5562C110.578 57.7762 113.548 53.6162 114.408 53.6862C115.268 53.7562 117.688 55.5462 117.688 55.5462C117.688 55.5462 123.268 56.2662 123.478 56.9062C123.688 57.5462 123.838 69.2062 123.768 71.1362C123.698 73.0662 129.418 88.8562 129.418 88.8562C129.418 88.8562 124.698 94.4162 118.548 89.7662Z" fill="url(#paint0_linear)"/>
<path d="M111.118 57.1361C111.118 57.1361 110.018 54.9962 110.548 54.2762C111.078 53.5561 113.198 54.5661 113.198 54.5661L111.118 57.1361Z" fill="#F79392"/>
<path style="mix-blend-mode:multiply" opacity="0.5" d="M111.118 57.1361C111.118 57.1361 110.018 54.9962 110.548 54.2762C111.078 53.5561 113.198 54.5661 113.198 54.5661L111.118 57.1361Z" fill="url(#paint1_linear)"/>
<path d="M118.298 57.6361C117.329 57.6345 116.364 57.7795 115.438 58.0661C114.95 58.5435 114.539 59.0933 114.218 59.6961C113.435 61.1711 113.055 62.8271 113.118 64.4961C113.118 64.4961 113.118 66.0461 114.118 65.8361C115.118 65.6261 116.118 62.9361 116.118 62.9361" stroke="#4A3059" stroke-width="0.21" stroke-linecap="round" stroke-linejoin="round"/>
<path d="M116.678 55.5661C115.318 55.4261 113.618 56.6361 112.758 57.8161C111.986 59.0034 111.481 60.3444 111.278 61.7461C111.246 61.9455 111.271 62.1498 111.348 62.3361C111.671 63.0835 112.23 63.705 112.938 64.1061" stroke="#4A3059" stroke-width="0.21" stroke-linecap="round" stroke-linejoin="round"/>
<path d="M118.588 60.3262C117.803 60.6356 117.113 61.146 116.588 61.8062C117.232 61.7806 117.871 61.6935 118.498 61.5462" stroke="#4A3059" stroke-width="0.21" stroke-linecap="round" stroke-linejoin="round"/>
<path d="M116.118 64.6962C115.76 65.9286 115.717 67.2316 115.995 68.4847C116.273 69.7379 116.862 70.9008 117.708 71.8662" stroke="#4A3059" stroke-width="0.21" stroke-linecap="round" stroke-linejoin="round"/>
<path d="M129.738 88.8062L135.528 107.996" stroke="#4A3059" stroke-width="0.21" stroke-linecap="round" stroke-linejoin="round"/>
<path d="M118.548 89.7662C118.548 89.7662 113.758 116.576 121.378 124.406" stroke="#4A3059" stroke-width="0.21" stroke-linecap="round" stroke-linejoin="round"/>
<path d="M131.238 87.5162L131.208 93.5262" stroke="#4A3059" stroke-width="0.21" stroke-linecap="round" stroke-linejoin="round"/>
<path d="M118.028 93.4462C119.895 94.817 122.187 95.483 124.498 95.3262C126.872 95.2047 129.133 94.277 130.908 92.6962" stroke="#4A3059" stroke-width="0.21" stroke-linecap="round" stroke-linejoin="round"/>
<path d="M129.838 83.2662C130.669 80.7152 132.032 78.37 133.838 76.3862" stroke="#4A3059" stroke-width="0.21" stroke-linecap="round" stroke-linejoin="round"/>
<path d="M111.328 118.236L127.778 117.866L127.888 125.286L109.978 130.196L111.328 118.236Z" fill="#F79392"/>
<path d="M127.648 117.816C127.648 117.816 134.998 110.006 136.428 109.266C137.858 108.526 141.798 108.096 142.208 108.376C142.618 108.656 143.208 109.866 143.068 111.896C143.482 112.201 143.789 112.628 143.948 113.116C144.108 113.538 144.169 113.991 144.125 114.44C144.082 114.889 143.936 115.323 143.698 115.706C143.936 116.955 143.882 118.242 143.538 119.466C143.538 119.466 142.718 124.466 141.718 124.596C140.718 124.726 140.858 120.476 140.858 120.476L138.988 120.406C138.988 120.406 134.938 125.016 132.098 125.556C130.607 125.917 129.043 125.834 127.598 125.316L127.648 117.816Z" fill="#F79392"/>
<path d="M137.708 117.466C138.556 117.187 139.431 116.996 140.318 116.896C141.031 116.972 141.708 117.25 142.269 117.696C142.83 118.142 143.253 118.739 143.488 119.416" stroke="#4A3059" stroke-width="0.26" stroke-linecap="round" stroke-linejoin="round"/>
<path d="M137.328 114.996C138.423 114.508 139.61 114.262 140.808 114.276C141.363 114.301 141.906 114.441 142.404 114.687C142.901 114.933 143.342 115.28 143.698 115.706" stroke="#4A3059" stroke-width="0.26" stroke-linecap="round" stroke-linejoin="round"/>
<path d="M136.578 112.316C137.556 111.832 138.591 111.472 139.658 111.246C140.834 111.253 142.001 111.459 143.108 111.856" stroke="#4A3059" stroke-width="0.26" stroke-linecap="round" stroke-linejoin="round"/>
<path d="M110.668 186.046C113.456 189.767 116.59 193.216 120.028 196.346C121.551 197.917 123.411 199.121 125.468 199.866C128.318 200.706 131.358 199.866 134.218 199.106C135.788 198.676 137.628 197.966 137.958 196.376C138.288 194.786 136.958 193.486 135.808 192.466C130.535 187.942 124.899 183.858 118.958 180.256C118.958 180.316 118.828 179.836 118.878 179.906C116.118 182.026 113.418 183.926 110.668 186.046Z" fill="#EF737E"/>
<path d="M92.0582 180.106L74.3082 192.936C73.3082 193.686 72.1082 194.756 72.4082 196.006C72.7082 197.256 73.9882 197.616 75.1082 197.906L85.1082 200.586C86.0712 200.918 87.0976 201.024 88.1082 200.896C89.1092 200.598 90.02 200.055 90.7582 199.316C95.0025 195.68 98.9055 191.663 102.418 187.316C99.1182 184.906 95.4582 182.536 92.0582 180.106Z" fill="#EF737E"/>
<path d="M105.398 158.146C105.372 158.135 105.351 158.114 105.34 158.088C105.329 158.062 105.328 158.033 105.338 158.006C107.773 152.944 110.648 148.106 113.928 143.546C113.938 143.536 113.949 143.527 113.962 143.521C113.975 143.515 113.989 143.512 114.003 143.512C114.017 143.512 114.031 143.515 114.044 143.521C114.057 143.527 114.069 143.536 114.078 143.546C114.089 143.555 114.097 143.565 114.103 143.577C114.109 143.59 114.112 143.603 114.112 143.616C114.112 143.63 114.109 143.643 114.103 143.655C114.097 143.667 114.089 143.678 114.078 143.686C110.806 148.237 107.938 153.065 105.508 158.116C105.495 158.132 105.478 158.143 105.458 158.148C105.438 158.154 105.417 158.153 105.398 158.146Z" fill="#4A3059"/>
<path d="M116.468 175.696C116.456 175.702 116.442 175.706 116.428 175.706C116.414 175.706 116.401 175.702 116.388 175.696C116.369 175.676 116.359 175.649 116.359 175.621C116.359 175.593 116.369 175.567 116.388 175.546C126.934 167.124 136.145 157.155 143.708 145.976C143.729 145.957 143.755 145.947 143.783 145.947C143.811 145.947 143.838 145.957 143.858 145.976C143.877 145.997 143.888 146.023 143.888 146.051C143.888 146.079 143.877 146.106 143.858 146.126C136.287 157.298 127.077 167.266 116.538 175.696H116.468Z" fill="#4A3059"/>
<path d="M140.118 151.126C140.099 151.127 140.079 151.122 140.062 151.114C140.045 151.105 140.03 151.092 140.018 151.076C140.002 151.056 139.993 151.032 139.993 151.006C139.993 150.981 140.002 150.956 140.018 150.936C141.447 150.237 142.738 149.285 143.828 148.126C143.837 148.111 143.848 148.099 143.862 148.089C143.876 148.08 143.892 148.074 143.909 148.072C143.926 148.069 143.943 148.071 143.959 148.076C143.975 148.082 143.99 148.091 144.002 148.103C144.014 148.115 144.023 148.129 144.028 148.145C144.033 148.161 144.035 148.178 144.033 148.195C144.031 148.212 144.024 148.228 144.015 148.242C144.005 148.256 143.993 148.268 143.978 148.276C142.872 149.451 141.561 150.414 140.108 151.116L140.118 151.126Z" fill="#4A3059"/>
<path d="M145.398 149.316C144.328 153.116 143.068 156.896 141.658 160.606C141.418 161.066 141.158 161.526 140.898 161.986C142.55 157.815 143.988 153.563 145.208 149.246C145.508 148.246 145.818 146.376 144.628 145.736C143.268 144.996 141.798 146.736 141.228 147.536C133.953 157.593 125.325 166.598 115.588 174.296C115.588 174.296 115.588 174.296 115.528 174.296C115.502 174.306 115.474 174.306 115.448 174.296C115.437 174.286 115.429 174.273 115.423 174.26C115.417 174.246 115.414 174.231 115.414 174.216C115.414 174.201 115.417 174.186 115.423 174.173C115.429 174.159 115.437 174.146 115.448 174.136C125.166 166.456 133.777 157.471 141.038 147.436C141.648 146.606 143.208 144.756 144.708 145.566C146.028 146.276 145.718 148.226 145.398 149.316Z" fill="#4A3059"/>
<path d="M110.668 186.146C96.4682 180.746 65.0382 150.696 64.7182 150.396C64.7034 150.388 64.6908 150.376 64.6814 150.362C64.6719 150.348 64.6658 150.332 64.6635 150.315C64.6613 150.298 64.6629 150.281 64.6683 150.265C64.6737 150.249 64.6828 150.235 64.6948 150.223C64.7067 150.211 64.7213 150.202 64.7373 150.196C64.7534 150.191 64.7705 150.189 64.7872 150.192C64.804 150.194 64.8201 150.2 64.8341 150.209C64.8481 150.219 64.8598 150.231 64.8682 150.246C65.1782 150.546 96.5781 180.566 110.708 185.946C110.734 185.957 110.755 185.978 110.766 186.004C110.777 186.03 110.778 186.06 110.768 186.086C110.759 186.105 110.744 186.12 110.727 186.131C110.709 186.141 110.689 186.147 110.668 186.146Z" fill="#4A3059"/>
<path d="M118.878 180.006C118.861 180.006 118.845 180.001 118.831 179.992C118.817 179.984 118.806 179.971 118.798 179.956C106.878 160.326 89.1881 133.486 89.0081 133.216C88.9898 133.197 88.9796 133.172 88.9796 133.146C88.9796 133.12 88.9898 133.095 89.0081 133.076C89.0285 133.057 89.0553 133.047 89.0831 133.047C89.111 133.047 89.1378 133.057 89.1581 133.076C89.3381 133.346 107.028 160.176 118.938 179.816C118.957 179.837 118.968 179.863 118.968 179.891C118.968 179.919 118.957 179.946 118.938 179.966L118.878 180.006Z" fill="#4A3059"/>
<path d="M92.0582 180.206C92.0356 180.215 92.0107 180.215 91.9882 180.206C91.9692 180.186 91.9586 180.159 91.9586 180.131C91.9586 180.103 91.9692 180.076 91.9882 180.056L94.9882 176.436C94.9966 176.426 95.0073 176.417 95.0194 176.411C95.0315 176.406 95.0447 176.403 95.0582 176.403C95.0716 176.403 95.0848 176.406 95.0969 176.411C95.1091 176.417 95.1197 176.426 95.1282 176.436C95.1465 176.455 95.1567 176.48 95.1567 176.506C95.1567 176.532 95.1465 176.557 95.1282 176.576L92.1282 180.206C92.1054 180.214 92.0809 180.214 92.0582 180.206Z" fill="#4A3059"/>
<path d="M69.9081 155.166C68.1896 154.778 66.6322 153.871 65.4481 152.566C65.4298 152.547 65.4196 152.522 65.4196 152.496C65.4196 152.47 65.4298 152.445 65.4481 152.426C65.4685 152.407 65.4953 152.397 65.5231 152.397C65.551 152.397 65.5778 152.407 65.5981 152.426C66.7508 153.695 68.2661 154.578 69.9381 154.956C69.9657 154.963 69.9894 154.981 70.0044 155.005C70.0193 155.029 70.0242 155.058 70.0181 155.086C70.0114 155.11 69.9969 155.131 69.977 155.145C69.957 155.16 69.9328 155.167 69.9081 155.166Z" fill="#4A3059"/>
<path d="M101.608 186.376C101.582 186.385 101.554 186.385 101.528 186.376C101.509 186.356 101.499 186.329 101.499 186.301C101.499 186.273 101.509 186.246 101.528 186.226L104.858 183.116C104.867 183.106 104.877 183.097 104.889 183.091C104.902 183.086 104.915 183.083 104.928 183.083C104.942 183.083 104.955 183.086 104.967 183.091C104.979 183.097 104.99 183.106 104.998 183.116C105.017 183.136 105.028 183.163 105.028 183.191C105.028 183.219 105.017 183.246 104.998 183.266L101.668 186.366C101.65 186.376 101.629 186.38 101.608 186.376Z" fill="#4A3059"/>
<path d="M111.538 184.886C111.53 184.903 111.517 184.917 111.501 184.928C111.485 184.938 111.467 184.945 111.448 184.946H111.388C108.466 183.488 105.655 181.817 102.978 179.946C101.711 179.073 100.458 178.196 99.2181 177.316C87.7581 169.206 75.9081 160.816 66.3681 150.126C65.945 149.553 65.4153 149.068 64.8081 148.696C64.5172 148.524 64.1837 148.438 63.846 148.447C63.5082 148.456 63.1797 148.559 62.8981 148.746C62.0581 149.406 62.3181 150.746 62.6881 151.746C63.3063 153.447 64.0106 155.116 64.7981 156.746C64.2981 155.836 63.7981 154.936 63.3581 154.056C62.9181 153.176 62.7681 152.566 62.4981 151.816C61.9381 150.256 62.0281 149.126 62.7681 148.536C63.0815 148.323 63.4491 148.203 63.828 148.191C64.2069 148.178 64.5815 148.274 64.9081 148.466C65.5233 148.83 66.0658 149.305 66.5081 149.866C76.0281 160.526 87.8681 168.916 99.3281 177.016C100.648 177.946 101.978 178.896 103.328 179.816C105.92 181.62 108.637 183.237 111.458 184.656C111.548 184.766 111.558 184.826 111.538 184.886Z" fill="#4A3059"/>
<path d="M147.988 105.946L153.488 102.846C153.525 102.825 153.567 102.812 153.609 102.807C153.652 102.802 153.695 102.806 153.736 102.818C153.777 102.83 153.815 102.851 153.848 102.878C153.881 102.905 153.908 102.938 153.928 102.976C153.951 103.012 153.966 103.053 153.972 103.095C153.978 103.138 153.976 103.181 153.965 103.222C153.953 103.264 153.934 103.302 153.907 103.336C153.88 103.369 153.846 103.396 153.808 103.416L148.208 106.316C148.183 106.33 148.156 106.339 148.128 106.341C148.1 106.344 148.071 106.342 148.044 106.333C148.017 106.325 147.992 106.311 147.97 106.293C147.948 106.274 147.931 106.252 147.918 106.226C147.892 106.179 147.884 106.124 147.897 106.072C147.91 106.02 147.943 105.975 147.988 105.946Z" fill="#4A3059"/>
<path d="M148.678 108.386L154.848 107.056C154.933 107.038 155.021 107.054 155.094 107.101C155.167 107.148 155.219 107.222 155.238 107.306C155.253 107.392 155.235 107.48 155.186 107.553C155.138 107.626 155.063 107.677 154.978 107.696L148.778 108.816C148.723 108.825 148.666 108.811 148.62 108.779C148.573 108.747 148.541 108.699 148.53 108.644C148.518 108.589 148.528 108.531 148.558 108.483C148.587 108.435 148.634 108.401 148.688 108.386H148.678Z" fill="#4A3059"/>
<path d="M146.388 104.046L150.848 99.5961C150.879 99.565 150.915 99.5402 150.956 99.5234C150.996 99.5065 151.039 99.4978 151.083 99.4978C151.127 99.4978 151.17 99.5065 151.211 99.5234C151.251 99.5402 151.287 99.565 151.318 99.5961C151.376 99.6589 151.408 99.7409 151.408 99.8261C151.408 99.9113 151.376 99.9934 151.318 100.056L146.698 104.356C146.655 104.391 146.6 104.408 146.545 104.404C146.49 104.4 146.438 104.375 146.4 104.335C146.362 104.294 146.341 104.241 146.341 104.186C146.34 104.131 146.361 104.077 146.398 104.036L146.388 104.046Z" fill="#4A3059"/>
<path d="M130.728 27.6962L138.598 23.1362C138.693 23.0803 138.799 23.0437 138.908 23.0286C139.017 23.0134 139.129 23.02 139.235 23.0478C139.342 23.0757 139.442 23.1243 139.53 23.191C139.618 23.2576 139.692 23.3409 139.748 23.4362C139.857 23.6302 139.886 23.8595 139.828 24.0745C139.77 24.2896 139.63 24.4733 139.438 24.5862L131.268 28.6962C131.202 28.7304 131.13 28.7511 131.055 28.7571C130.981 28.7631 130.906 28.7541 130.836 28.7309C130.765 28.7076 130.699 28.6704 130.643 28.6215C130.587 28.5726 130.541 28.513 130.508 28.4462C130.442 28.3167 130.429 28.1669 130.469 28.0275C130.51 27.8881 130.603 27.7696 130.728 27.6962Z" fill="#4A3059"/>
<path d="M131.798 31.1962L140.658 29.1462C140.876 29.0958 141.104 29.1339 141.294 29.252C141.483 29.3701 141.618 29.5587 141.668 29.7762C141.719 29.9937 141.68 30.2222 141.562 30.4117C141.444 30.6011 141.256 30.7358 141.038 30.7862L132.038 32.2862C131.892 32.3093 131.743 32.274 131.624 32.1878C131.504 32.1017 131.423 31.9717 131.398 31.8262C131.373 31.6901 131.401 31.5497 131.475 31.433C131.549 31.3162 131.664 31.2317 131.798 31.1962Z" fill="#4A3059"/>
<path d="M128.358 24.9961L134.718 18.4861C134.879 18.327 135.096 18.2381 135.322 18.2391C135.548 18.24 135.764 18.3307 135.923 18.4911C136.082 18.6516 136.171 18.8687 136.17 19.0947C136.169 19.3207 136.079 19.537 135.918 19.6961L129.118 25.8061C129.065 25.8574 129.002 25.8976 128.933 25.9246C128.865 25.9515 128.791 25.9647 128.718 25.9633C128.644 25.9619 128.571 25.946 128.503 25.9164C128.436 25.8869 128.374 25.8443 128.323 25.7911C128.272 25.738 128.232 25.6752 128.205 25.6065C128.178 25.5377 128.165 25.4644 128.166 25.3905C128.167 25.3167 128.183 25.2439 128.213 25.1762C128.242 25.1086 128.285 25.0474 128.338 24.9961H128.358Z" fill="#4A3059"/>
<path d="M89.5482 28.0361L81.4182 23.9561C81.3197 23.9062 81.232 23.8374 81.1601 23.7536C81.0882 23.6698 81.0335 23.5727 80.9991 23.4678C80.9648 23.3628 80.9514 23.2522 80.9598 23.1421C80.9683 23.032 80.9983 22.9246 81.0482 22.8261C81.0981 22.7276 81.1669 22.6399 81.2507 22.568C81.3345 22.4961 81.4316 22.4415 81.5365 22.4071C81.6415 22.3727 81.7521 22.3594 81.8622 22.3678C81.9723 22.3762 82.0797 22.4062 82.1782 22.4561L90.1182 27.0461C90.1821 27.0833 90.2381 27.1328 90.2828 27.1917C90.3275 27.2506 90.3601 27.3178 90.3787 27.3894C90.3973 27.461 90.4015 27.5356 90.3911 27.6088C90.3807 27.6821 90.3559 27.7525 90.3182 27.8161C90.2827 27.8817 90.2344 27.9396 90.1763 27.9863C90.1181 28.033 90.0512 28.0676 89.9795 28.0881C89.9077 28.1086 89.8326 28.1146 89.7586 28.1057C89.6845 28.0967 89.613 28.0731 89.5482 28.0361Z" fill="#4A3059"/>
<path d="M88.8082 31.6962L79.8082 30.1862C79.6972 30.1658 79.5913 30.1238 79.4966 30.0625C79.4019 30.0012 79.3201 29.9219 79.2561 29.8291C79.192 29.7362 79.1468 29.6316 79.1232 29.5213C79.0995 29.411 79.0978 29.2971 79.1182 29.1862C79.1385 29.0752 79.1805 28.9693 79.2418 28.8746C79.3031 28.7799 79.3824 28.6981 79.4753 28.634C79.5681 28.57 79.6727 28.5248 79.783 28.5012C79.8933 28.4775 80.0072 28.4758 80.1182 28.4962L88.9882 30.4962C89.1473 30.52 89.2904 30.6061 89.3861 30.7355C89.4817 30.8649 89.522 31.027 89.4982 31.1862C89.4743 31.3453 89.3882 31.4884 89.2588 31.5841C89.1294 31.6797 88.9673 31.72 88.8082 31.6962Z" fill="#4A3059"/>
<path d="M91.6782 25.1661L84.9382 19.0561C84.8561 18.9787 84.7901 18.8858 84.7439 18.7828C84.6977 18.6798 84.6723 18.5687 84.6691 18.4559C84.6658 18.3431 84.6848 18.2307 84.725 18.1252C84.7652 18.0198 84.8257 17.9232 84.9032 17.8411C84.9807 17.7591 85.0736 17.6931 85.1765 17.6469C85.2795 17.6007 85.3906 17.5753 85.5034 17.572C85.6163 17.5688 85.7286 17.5878 85.8341 17.6279C85.9396 17.6681 86.0361 17.7287 86.1182 17.8061L92.4782 24.3061C92.5668 24.4136 92.6131 24.5498 92.6082 24.689C92.6033 24.8282 92.5475 24.9608 92.4515 25.0617C92.3555 25.1627 92.2259 25.225 92.0871 25.2368C91.9483 25.2487 91.8099 25.2093 91.6982 25.1261L91.6782 25.1661Z" fill="#4A3059"/>
<path d="M114.908 19.8661C115.981 19.2412 116.891 18.3723 117.565 17.3299C118.239 16.2874 118.658 15.1008 118.788 13.8662C118.894 12.6306 118.707 11.3875 118.243 10.2374C117.78 9.08732 117.052 8.0626 116.118 7.24615C115.36 6.55237 114.407 6.10892 113.388 5.97615C112.881 5.9138 112.367 5.98745 111.897 6.18954C111.428 6.39163 111.021 6.71488 110.718 7.12615C109.778 8.53615 110.718 10.6162 112.248 11.3262C113.045 11.6185 113.895 11.7351 114.741 11.6677C115.587 11.6004 116.408 11.3508 117.148 10.9362C118.094 10.3817 119.1 9.93871 120.148 9.61615C120.676 9.46303 121.238 9.47696 121.757 9.65601C122.276 9.83506 122.727 10.1705 123.048 10.6162C123.828 11.9862 122.588 13.6762 121.218 14.4662C120.152 15.0832 118.96 15.4498 117.732 15.5382C116.504 15.6266 115.271 15.4344 114.128 14.9762C112.995 14.4948 112.005 13.7276 111.257 12.7496C110.508 11.7715 110.027 10.6161 109.858 9.39615C109.727 8.17007 109.954 6.9322 110.514 5.8332C111.073 4.7342 111.94 3.82149 113.008 3.20615C113.93 2.68026 115.002 2.48103 116.051 2.64076C117.1 2.80048 118.065 3.30979 118.788 4.08615C120.328 6.01615 119.878 9.30615 121.968 10.6162C122.608 10.9746 123.348 11.1093 124.073 10.9988C124.798 10.8883 125.465 10.5389 125.968 10.0062C126.45 9.46238 126.793 8.80976 126.967 8.10434C127.141 7.39891 127.142 6.66175 126.968 5.95615C126.268 2.81615 122.818 0.87615 119.608 1.00615C116.398 1.13615 113.468 2.85615 110.978 4.87615C109.99 5.57002 109.206 6.51623 108.708 7.61615C108.451 8.47607 108.448 9.39178 108.698 10.2537C108.948 11.1156 109.441 11.8872 110.118 12.4762C111.542 13.623 113.292 14.2914 115.118 14.3862C117.358 14.705 119.639 14.2234 121.558 13.0262C122.497 12.4072 123.221 11.512 123.629 10.4641C124.038 9.41618 124.111 8.2673 123.838 7.17615C123.491 6.23282 122.867 5.41619 122.048 4.83286C121.229 4.24952 120.253 3.92657 119.248 3.90615C118.272 3.84702 117.304 4.10801 116.49 4.64948C115.676 5.19094 115.061 5.98328 114.738 6.90615C114.228 8.77615 115.818 11.0462 117.738 10.8262C119.898 10.5762 121.418 7.71615 123.528 8.22615C125.038 8.59615 125.528 10.6762 124.838 12.0362C124.409 12.6828 123.847 13.231 123.191 13.6447C122.534 14.0584 121.797 14.3282 121.028 14.4362C118.39 15.0137 115.635 14.7189 113.178 13.5962C112.435 13.1438 111.596 12.8731 110.728 12.8062C109.858 12.8062 108.948 13.6162 109.178 14.4462C109.299 14.7217 109.48 14.9663 109.709 15.162C109.938 15.3576 110.207 15.4992 110.498 15.5762C112.311 16.2917 114.255 16.6162 116.203 16.5283C118.15 16.4404 120.057 15.9421 121.798 15.0662C123.521 14.1633 125.035 12.9078 126.241 11.3813C127.447 9.85482 128.319 8.09153 128.798 6.20615" stroke="#4A3059" stroke-width="0.58" stroke-linecap="round" stroke-linejoin="round"/>
<defs>
<linearGradient id="paint0_linear" x1="129.238" y1="87.2462" x2="113.908" y2="61.2862" gradientUnits="userSpaceOnUse">
<stop offset="0.01" stop-color="#F79392" stop-opacity="0"/>
<stop offset="1" stop-color="#EF737E" stop-opacity="0.7"/>
</linearGradient>
<linearGradient id="paint1_linear" x1="109.848" y1="53.3162" x2="112.478" y2="56.1662" gradientUnits="userSpaceOnUse">
<stop offset="0.01" stop-color="#F79392" stop-opacity="0"/>
<stop offset="1" stop-color="#EF737E"/>
</linearGradient>
</defs>
</svg>
