<svg width="198" height="205" viewBox="0 0 198 205" fill="none" xmlns="http://www.w3.org/2000/svg">
<path d="M22.1309 61.0053C22.1309 49.0053 24.2209 36.7153 29.7009 26.0953C35.1809 15.4753 44.2209 6.60531 55.2109 3.05531C59.7909 1.57531 64.8609 1.05531 69.2609 3.05531C75.2609 5.71531 78.8809 12.5753 79.6409 19.4053C80.9109 30.6953 75.6409 41.7853 69.0009 50.7753C62.3609 59.7653 54.0609 67.3353 47.6509 76.5453C42.0109 84.6453 36.7409 97.6153 39.1709 108.545C36.6447 105.575 34.2716 102.478 32.0609 99.2653C29.6969 95.4701 27.7744 91.4172 26.3309 87.1853C23.5038 78.7482 22.0849 69.9033 22.1309 61.0053Z" fill="#8B6FED"/>
<path d="M56.7209 15.4853C56.6608 15.7182 56.6608 15.9625 56.7209 16.1953C56.8514 17.2219 57.2594 18.1934 57.9009 19.0053C58.1109 19.2653 58.4309 19.5253 58.7409 19.4253C59.0509 19.3253 59.1609 18.9253 59.1809 18.5953C59.2332 17.4413 58.8793 16.3055 58.1809 15.3853C58.0793 15.2352 57.9462 15.1089 57.7909 15.0153C57.6901 14.9736 57.5818 14.9528 57.4726 14.954C57.3635 14.9552 57.2557 14.9784 57.1558 15.0223C57.0558 15.0662 56.9658 15.1299 56.8911 15.2094C56.8163 15.289 56.7585 15.3828 56.7209 15.4853Z" fill="#4A3059"/>
<path d="M69.0609 23.1053C68.8754 23.2562 68.6556 23.3593 68.4209 23.4053C67.4002 23.6623 66.329 23.6381 65.3209 23.3353C65.0009 23.2353 64.6409 23.0353 64.6109 22.7053C64.5809 22.3753 64.9209 22.1353 65.2209 21.9953C66.2718 21.5182 67.4554 21.4192 68.5709 21.7153C68.7486 21.7568 68.9155 21.8351 69.0609 21.9453C69.1396 22.0201 69.2022 22.11 69.245 22.2097C69.2878 22.3094 69.3099 22.4168 69.3099 22.5253C69.3099 22.6338 69.2878 22.7412 69.245 22.8409C69.2022 22.9406 69.1396 23.0306 69.0609 23.1053Z" fill="#4A3059"/>
<path d="M56.7409 26.3553C57.684 26.5131 58.5621 26.938 59.271 27.5796C59.98 28.2212 60.4901 29.0526 60.7409 29.9753C60.9479 30.9167 60.8303 31.9004 60.4073 32.7664C59.9842 33.6325 59.2807 34.3299 58.4109 34.7453C58.2589 34.8331 58.0865 34.8793 57.9109 34.8793C57.7354 34.8793 57.5629 34.8331 57.4109 34.7453C57.174 34.5241 57.0219 34.2269 56.9809 33.9053C56.7088 33.0406 56.1846 32.2768 55.4755 31.712C54.7663 31.1472 53.9046 30.8071 53.0009 30.7353C52.1709 30.7353 50.8609 30.8653 50.4609 29.8653C50.1809 29.1453 50.8109 28.6053 51.3309 28.2153C52.8188 26.9068 54.763 26.2384 56.7409 26.3553Z" fill="#4A3059"/>
<path d="M69.7709 26.0953C69.9425 26.2448 70.0697 26.4386 70.1385 26.6556C70.2073 26.8725 70.2151 27.1042 70.1609 27.3253C70.0813 27.5252 69.954 27.7025 69.7902 27.842C69.6264 27.9814 69.4309 28.0787 69.2209 28.1253C68.7938 28.1951 68.3581 28.1951 67.9309 28.1253L65.4909 27.9053C64.9909 27.8553 64.3909 27.7453 64.2009 27.2853C64.1533 27.1502 64.1375 27.0058 64.1549 26.8636C64.1722 26.7214 64.2222 26.5851 64.3009 26.4653C64.4618 26.2309 64.6738 26.036 64.9209 25.8953C65.6536 25.4309 66.5105 25.2012 67.3772 25.237C68.2439 25.2727 69.079 25.5722 69.7709 26.0953Z" fill="#4A3059"/>
<path d="M53.0709 17.9453C52.8439 17.9135 52.6125 17.9453 52.4024 18.0371C52.1923 18.1289 52.0118 18.2771 51.8809 18.4653C51.7803 18.6547 51.7276 18.8659 51.7276 19.0803C51.7276 19.2948 51.7803 19.506 51.8809 19.6953C52.1003 20.0723 52.3808 20.4102 52.7109 20.6953L54.4909 22.3753C54.8509 22.7253 55.3309 23.0953 55.8109 22.9453C55.9442 22.893 56.0628 22.8094 56.1568 22.7014C56.2508 22.5935 56.3174 22.4645 56.3509 22.3253C56.4161 22.0491 56.4161 21.7615 56.3509 21.4853C56.2263 20.6328 55.8461 19.8381 55.2606 19.2061C54.675 18.5741 53.9115 18.1345 53.0709 17.9453Z" fill="#4A3059"/>
<path d="M144.261 94.9153C140.621 79.6953 133.331 65.5453 124.611 52.5453C119.781 45.3353 114.411 38.2753 111.731 30.0253C109.051 21.7753 109.631 11.7853 115.731 5.55533C122.601 -1.51468 134.591 -1.44468 143.111 3.55532C151.631 8.55532 157.241 17.2653 161.461 26.1753C170.401 45.0553 174.461 66.4253 171.691 87.1753C169.925 100.453 165.247 113.176 157.991 124.435C156.071 127.435 148.991 139.365 145.111 139.295C141.541 139.245 144.471 133.595 144.921 131.665C145.767 127.955 146.315 124.183 146.561 120.385C147.083 111.828 146.308 103.241 144.261 94.9153Z" fill="#7D82B8"/>
<path d="M123.071 29.8154C122.221 30.2854 121.341 31.0754 121.521 32.0254C121.701 32.9754 123.021 33.3953 124.061 33.3553C125.752 33.2853 127.39 32.7451 128.791 31.7954C129.485 31.3985 130.012 30.7621 130.271 30.0054C131.141 26.4254 124.291 29.1354 123.071 29.8154Z" fill="#4A3059"/>
<path d="M137.431 22.1054C136.881 22.8854 136.431 23.9854 137.001 24.7554C137.571 25.5254 138.941 25.3554 139.861 24.8654C141.355 24.0719 142.599 22.8771 143.451 21.4154C143.907 20.7522 144.103 19.9439 144.001 19.1454C143.251 15.5554 138.241 21.0054 137.431 22.1054Z" fill="#4A3059"/>
<path d="M138.481 31.8953C140.628 30.7415 143.144 30.4827 145.481 31.1753C145.528 31.1897 145.569 31.2189 145.599 31.2585C145.628 31.2981 145.644 31.3461 145.644 31.3953C145.644 31.4446 145.628 31.4926 145.599 31.5322C145.569 31.5718 145.528 31.601 145.481 31.6153C140.898 32.7357 136.9 35.5284 134.271 39.4453C134.244 39.4832 134.207 39.5117 134.163 39.5268C134.119 39.542 134.072 39.543 134.028 39.5297C133.983 39.5164 133.944 39.4895 133.916 39.4528C133.888 39.4162 133.872 39.3715 133.871 39.3253C133.631 36.3053 135.921 33.2853 138.481 31.8953Z" fill="#4A3059"/>
<path d="M136.641 16.3853C136.706 16.6446 136.706 16.916 136.641 17.1753C136.498 18.324 136.033 19.4089 135.301 20.3053C135.071 20.5853 134.731 20.8853 134.371 20.7653C134.011 20.6453 133.911 20.2253 133.891 19.8553C133.84 18.5854 134.232 17.3373 135.001 16.3253C135.12 16.1614 135.269 16.0222 135.441 15.9153C135.551 15.8672 135.669 15.8412 135.788 15.8388C135.908 15.8364 136.027 15.8576 136.138 15.9013C136.25 15.945 136.352 16.0102 136.438 16.0932C136.524 16.1763 136.593 16.2756 136.641 16.3853Z" fill="#4A3059"/>
<path d="M123.051 24.7753C123.264 24.9366 123.51 25.0492 123.771 25.1053C124.891 25.3855 126.067 25.3544 127.171 25.0153C127.521 24.9153 127.921 24.7053 127.951 24.3353C127.981 23.9653 127.611 23.7053 127.281 23.5453C126.128 23.0135 124.824 22.9072 123.601 23.2453C123.404 23.2871 123.22 23.3726 123.061 23.4953C122.976 23.5783 122.908 23.6775 122.861 23.787C122.814 23.8965 122.79 24.0142 122.789 24.1332C122.788 24.2523 122.81 24.3703 122.855 24.4805C122.9 24.5908 122.967 24.6909 123.051 24.7753Z" fill="#4A3059"/>
<path d="M1.13093 120.615C3.27093 108.075 7.69093 96.0453 10.5509 83.6153C12.0009 77.2753 13.4009 70.2453 18.4909 66.1353C24.3109 61.4353 34.0709 62.9653 38.1709 69.2153C40.3409 72.5153 40.9409 76.5553 42.2509 80.2753C43.5609 83.9953 46.0609 87.7953 49.9309 88.5753C51.9309 88.9853 54.1109 88.4753 56.2009 88.5753C61.7109 88.8353 66.2009 93.2353 68.9809 97.9853C72.5509 104.045 74.3109 110.985 76.5309 117.655C78.7509 124.325 81.5909 131.085 86.7409 135.875C91.8909 140.665 99.9009 143.005 106.171 139.825C111.681 137.025 114.521 130.955 117.531 125.565C120.541 120.175 124.931 114.565 131.091 114.085C134.311 113.845 137.561 115.085 140.731 114.475C144.571 113.705 147.411 110.285 148.821 106.635C150.231 102.985 150.541 99.0053 151.311 95.1553C153.626 83.733 159.964 73.5208 169.171 66.3753C175.051 61.8453 183.461 58.7653 189.691 62.7753C194.281 65.7253 196.071 71.5353 196.811 76.9353C199.241 94.6153 194.151 112.385 188.481 129.305C185.311 138.765 181.771 148.425 175.031 155.795C166.121 165.535 152.871 169.915 140.031 173.085C107.268 181.161 73.4059 183.836 39.7809 181.005C26.0009 179.855 10.1209 176.005 4.62093 161.525C-0.119074 149.055 -1.07907 133.595 1.13093 120.615Z" fill="#FFC2E2"/>
<path d="M72.6709 169.795C67.6709 169.895 62.7309 170.045 58.0509 170.215H57.8209C50.1209 170.495 42.9909 170.865 36.6209 171.305H36.3509L31.2909 171.695H31.0709C29.5509 171.825 28.0709 171.945 26.6909 172.085H26.4309C24.5109 172.265 22.7109 172.455 21.0109 172.655H20.7609C19.0409 172.855 17.4609 173.075 16.0009 173.295H15.7709L13.9609 173.575H13.7409C12.7409 173.745 11.8409 173.925 11.0109 174.095C10.9345 174.104 10.8573 174.104 10.7809 174.095C9.78092 174.325 8.83092 174.555 8.06092 174.785L7.84092 174.855C7.46092 174.975 7.11092 175.095 6.84092 175.225C6.35837 174.871 5.91874 174.461 5.53092 174.005C2.7383 169.341 1.83327 163.785 3.00092 158.475C3.00092 158.215 3.10092 157.965 3.16092 157.715C3.22092 157.465 3.36092 156.955 3.48092 156.585C4.62092 152.915 6.73092 149.585 8.31092 146.105C8.34885 146.039 8.37904 145.969 8.40092 145.895C8.80354 145.01 9.15414 144.102 9.45092 143.175C9.6986 142.421 9.90227 141.653 10.0609 140.875L10.1209 140.605C10.2809 139.785 10.4209 138.935 10.5209 138.095V137.805C10.8309 135.125 10.8709 132.385 10.9409 129.685C10.9409 129.505 10.9409 129.315 10.9409 129.135C10.9409 128.955 10.9409 128.825 10.9409 128.675C11.0909 124.455 11.4509 120.175 13.1809 116.335C13.9218 114.56 15.0261 112.96 16.4229 111.637C17.8197 110.314 19.4779 109.298 21.2909 108.655C21.3629 108.631 21.4364 108.611 21.5109 108.595C22.1071 108.419 22.7207 108.309 23.3409 108.265C25.6125 108.126 27.8708 108.699 29.8009 109.905C29.8911 109.953 29.978 110.006 30.0609 110.065C32.3461 111.533 34.2733 113.495 35.7009 115.805C38.4109 120.085 39.7809 125.065 42.0209 129.625C44.2609 134.185 47.7509 138.565 52.6709 139.805C54.7909 140.325 57.0109 140.225 59.1409 140.695C64.5509 141.885 68.6209 146.695 70.5109 151.865C72.4009 157.035 72.5109 162.755 72.5709 168.295L72.6709 169.795Z" fill="#613F75"/>
<g opacity="0.42">
<path opacity="0.42" d="M8.06093 175.005L7.84093 175.075C5.13151 169.922 3.48557 164.277 3.00093 158.475C3.00093 158.215 3.10093 157.965 3.16093 157.715C3.56832 163.758 5.23753 169.648 8.06093 175.005Z" fill="#E5C3D1"/>
<path opacity="0.42" d="M12.0009 154.465C12.2682 160.958 13.6202 167.359 16.0009 173.405H15.7709C13.3878 167.339 12.0358 160.917 11.7709 154.405V153.845C11.8566 151.906 11.4939 149.972 10.7109 148.195C10.1872 147.24 9.36549 146.481 8.37093 146.035C8.40885 145.969 8.43905 145.899 8.46093 145.825C9.5047 146.288 10.3662 147.082 10.9109 148.085C11.7192 149.915 12.0923 151.907 12.0009 153.905V154.465Z" fill="#E5C3D1"/>
<path opacity="0.42" d="M31.2909 171.725H31.0709C29.7559 164.837 27.3953 158.19 24.0709 152.015C21.9109 147.825 19.4609 143.695 17.0709 139.705C15.0709 136.255 12.9509 132.705 11.0709 129.115C11.0709 128.965 11.0709 128.805 11.0709 128.655C13.0709 132.395 15.2009 136.025 17.3109 139.595C19.6809 143.595 22.1309 147.715 24.3109 151.915C27.6376 158.123 29.9917 164.804 31.2909 171.725Z" fill="#E5C3D1"/>
<path opacity="0.42" d="M33.6009 165.875C34.4876 167.749 35.4895 169.566 36.6009 171.315H36.3309C35.23 169.587 34.2284 167.797 33.3309 165.955C26.4667 151.979 22.8662 136.626 22.8009 121.055V119.635C22.8009 116.185 22.8009 112.635 21.6409 109.385C21.5505 109.13 21.447 108.88 21.3309 108.635C21.4029 108.611 21.4764 108.591 21.5509 108.575C21.6609 108.815 21.7609 109.065 21.8509 109.305C23.0509 112.585 23.0409 116.175 23.0309 119.635V121.055C23.1099 136.604 26.7244 151.93 33.6009 165.875Z" fill="#E5C3D1"/>
<path opacity="0.42" d="M58.0509 170.215H57.8209C57.7603 168.158 57.4446 166.115 56.8809 164.135C54.3109 154.465 48.8009 145.835 43.4609 137.475C39.0509 130.565 34.4609 123.475 31.5809 115.695C30.8441 113.818 30.2817 111.876 29.9009 109.895C29.9911 109.943 30.078 109.996 30.1609 110.055C30.5381 111.957 31.0836 113.821 31.7909 115.625C34.7009 123.335 39.2509 130.465 43.6509 137.355C49.0009 145.725 54.5209 154.355 57.1009 164.085C57.6636 166.083 57.9826 168.141 58.0509 170.215Z" fill="#E5C3D1"/>
<path opacity="0.42" d="M20.6209 172.115C20.7295 172.335 20.8602 172.542 21.0109 172.735H20.7609C20.6299 172.567 20.516 172.386 20.4209 172.195C19.9259 171.058 19.6153 169.85 19.5009 168.615V168.435C18.4642 161.137 16.5781 153.985 13.8809 147.125C13.1571 144.976 12.0303 142.983 10.5609 141.255C10.4204 141.109 10.2701 140.972 10.1109 140.845L10.1709 140.575C10.3609 140.745 10.5409 140.915 10.7209 141.105C12.2196 142.847 13.3643 144.865 14.0909 147.045C16.7987 153.919 18.6851 161.089 19.7109 168.405V168.585C19.8195 169.804 20.1269 170.996 20.6209 172.115Z" fill="#E5C3D1"/>
<path opacity="0.42" d="M26.9309 171.435C26.8705 171.675 26.7902 171.909 26.6909 172.135H26.4309C26.5504 171.889 26.6442 171.631 26.7109 171.365C26.9781 169.802 26.8509 168.197 26.3409 166.695C23.5136 156.003 18.0936 146.173 10.5609 138.075V137.785C18.2003 145.925 23.6982 155.835 26.5609 166.625C27.0899 168.171 27.2173 169.827 26.9309 171.435Z" fill="#E5C3D1"/>
<path opacity="0.42" d="M21.0009 119.915C21.1306 118.211 20.7549 116.507 19.9209 115.015C19.0609 113.785 18.1809 113.245 17.2809 113.405C15.2809 113.775 13.8909 117.465 13.4109 119.405C12.9123 121.397 12.8182 123.468 13.1342 125.497C13.4503 127.525 14.17 129.47 15.2509 131.215C15.6295 131.877 16.1567 132.442 16.7909 132.865C17.1701 133.1 17.6053 133.227 18.0509 133.235C18.4033 133.243 18.7506 133.15 19.0509 132.965C19.6514 132.474 20.0443 131.774 20.1509 131.005C21.1309 127.375 21.0509 123.585 21.0009 119.915ZM20.0009 130.915C19.8822 131.628 19.5048 132.273 18.9409 132.725C18.6282 132.886 18.2786 132.961 17.9275 132.944C17.5764 132.926 17.2361 132.816 16.9409 132.625C16.3371 132.217 15.8344 131.677 15.4709 131.045C14.4082 129.324 13.6998 127.408 13.3873 125.409C13.0748 123.41 13.1644 121.369 13.6509 119.405C14.2009 117.255 15.6509 113.945 17.3409 113.625C18.1509 113.475 18.9609 113.985 19.7709 115.125C20.7709 116.525 20.7709 118.405 20.7709 119.915C20.8209 123.575 20.9009 127.345 19.9309 130.925L20.0009 130.915Z" fill="#E5C3D1"/>
<path opacity="0.42" d="M48.3109 159.705C46.3809 151.705 42.4309 144.235 38.6109 137.035C37.7609 135.435 36.8809 133.785 36.0409 132.155C33.6542 127.664 31.6472 122.981 30.0409 118.155C29.8762 117.574 29.7493 116.983 29.6609 116.385C29.3509 114.585 28.9509 112.385 28.0009 111.755C27.7908 111.59 27.5435 111.478 27.2805 111.429C27.0174 111.38 26.7465 111.396 26.4909 111.475C26.1839 111.649 25.9172 111.886 25.7086 112.17C25.5 112.455 25.3542 112.78 25.2809 113.125C24.8709 114.585 25.4309 117.125 25.8809 119.125C26.0509 119.895 26.2209 120.625 26.3109 121.195C26.7209 123.835 27.1909 126.505 27.7209 129.125C28.7809 134.295 30.0909 139.465 31.6409 144.485C33.6409 150.875 36.3009 158.115 41.4309 163.345C42.5442 164.611 44.094 165.411 45.7709 165.585C46.3911 165.597 46.996 165.392 47.4809 165.005C48.6309 164.005 48.9209 162.245 48.3109 159.705ZM47.3109 164.765C45.7009 166.025 43.3109 164.845 41.5709 163.125C39.0739 160.478 37.0299 157.437 35.5209 154.125C34.0542 150.942 32.8209 147.657 31.8309 144.295C30.2909 139.295 28.9709 134.125 27.9209 128.965C27.3909 126.345 26.9209 123.675 26.5009 121.035C26.4109 120.455 26.2509 119.735 26.0709 118.965C25.6309 116.965 25.0709 114.505 25.4709 113.105C25.5338 112.793 25.6615 112.497 25.8458 112.237C26.0301 111.977 26.2669 111.758 26.5409 111.595C26.6603 111.556 26.7852 111.536 26.9109 111.535C27.2479 111.553 27.5733 111.664 27.8509 111.855C28.7109 112.405 29.1209 114.675 29.4109 116.335C29.4996 116.939 29.6265 117.537 29.7909 118.125C31.409 122.982 33.4363 127.692 35.8509 132.205C36.6909 133.835 37.5709 135.495 38.4209 137.095C42.2309 144.275 46.1709 151.715 48.0909 159.695C48.6709 162.205 48.4109 163.895 47.3009 164.765H47.3109Z" fill="#E5C3D1"/>
<path opacity="0.42" d="M5.73094 158.875C5.74845 159.624 5.90441 160.363 6.19094 161.055C7.7176 165.475 9.32427 169.885 11.0109 174.285C10.9345 174.294 10.8573 174.294 10.7809 174.285C9.10093 169.945 7.50094 165.535 6.00094 161.135C5.702 160.415 5.53925 159.645 5.52094 158.865C5.52371 158.465 5.63492 158.074 5.84273 157.732C6.05053 157.391 6.34714 157.112 6.70093 156.925C7.14046 156.778 7.61496 156.773 8.05792 156.909C8.50088 157.045 8.89007 157.317 9.17094 157.685C9.69562 158.409 10.0572 159.238 10.2309 160.115L14.0009 173.725H13.7809L10.0009 160.175C9.83629 159.33 9.49556 158.53 9.00094 157.825C8.75089 157.494 8.40374 157.248 8.0077 157.122C7.61166 156.997 7.18638 156.998 6.79094 157.125C6.47307 157.295 6.20679 157.546 6.02022 157.854C5.83365 158.163 5.7337 158.515 5.73094 158.875Z" fill="#E5C3D1"/>
</g>
<path d="M186.321 147.215C186.114 149.456 186.078 151.709 186.211 153.955C186.211 154.055 186.211 154.155 186.211 154.255C186.351 156.995 186.591 159.745 186.561 162.485C186.589 165.521 186.078 168.538 185.051 171.395C185.051 171.505 184.951 171.635 184.901 171.755C184.293 173.273 183.427 174.674 182.341 175.895C180.951 175.105 178.061 174.365 173.931 173.675H173.701C172.601 173.485 171.421 173.315 170.151 173.145H169.911C167.711 172.845 165.271 172.565 162.611 172.305H162.371C159.131 171.985 155.581 171.695 151.761 171.425H151.461C141.201 170.725 128.981 170.195 115.551 169.915H115.331H112.451C112.943 167.76 113.89 165.735 115.228 163.976C116.566 162.217 118.265 160.764 120.211 159.715C120.401 159.625 120.591 159.525 120.781 159.455L121.041 159.345C122.081 158.922 123.155 158.587 124.251 158.345C124.349 158.331 124.446 158.311 124.541 158.285C127.231 157.745 130.051 157.565 132.761 157.035C134.826 156.631 136.839 155.993 138.761 155.135C138.849 155.111 138.934 155.074 139.011 155.025C141.294 153.998 143.44 152.691 145.401 151.135L145.651 150.935C148.753 148.425 151.315 145.313 153.181 141.785C155.721 136.945 156.881 131.495 159.181 126.535C159.813 125.171 160.556 123.86 161.401 122.615C161.451 122.545 161.491 122.475 161.541 122.415C163.309 119.697 165.862 117.58 168.861 116.345L169.131 116.245C169.652 116.063 170.187 115.923 170.731 115.825C171.776 115.651 172.832 115.548 173.891 115.515H174.111C175.154 115.486 176.192 115.359 177.211 115.135L177.461 115.075C178.097 114.908 178.706 114.652 179.271 114.315C181.451 112.965 182.491 110.425 183.611 107.995L183.721 107.775C184.348 106.166 185.313 104.71 186.551 103.505L186.751 103.345C187.143 103.03 187.577 102.77 188.041 102.575C190.831 101.415 194.221 103.025 195.851 105.575C197.481 108.125 197.671 111.355 197.331 114.365C196.021 125.735 187.921 135.465 186.451 146.785C186.451 146.955 186.401 147.115 186.381 147.275C186.361 147.435 186.321 147.185 186.321 147.215Z" fill="#613F75"/>
<g opacity="0.47">
<path opacity="0.47" d="M121.051 159.175C120.95 159.651 120.806 160.116 120.621 160.565C119.926 162.097 119.107 163.568 118.171 164.965C117.138 166.482 116.264 168.1 115.561 169.795H115.341C116.04 168.055 116.925 166.395 117.981 164.845C118.906 163.456 119.719 161.995 120.411 160.475C120.578 160.093 120.705 159.694 120.791 159.285L121.051 159.175Z" fill="#E5C3D1"/>
<path opacity="0.47" d="M169.081 116.105C168.09 118.959 167.305 121.88 166.731 124.845C165.991 128.465 165.471 132.205 164.951 135.845C164.051 142.245 163.111 148.845 161.031 155.095C159.079 161.087 155.929 166.62 151.771 171.355H151.471C155.682 166.61 158.862 161.043 160.811 155.005C162.891 148.795 163.811 142.185 164.731 135.795C165.241 132.175 165.731 128.445 166.501 124.795C167.075 121.883 167.847 119.013 168.811 116.205L169.081 116.105Z" fill="#E5C3D1"/>
<path opacity="0.47" d="M186.401 146.625C186.401 146.795 186.351 146.955 186.331 147.115C181.191 154.575 176.241 162.335 174.331 171.115C174.144 171.95 174.007 172.795 173.921 173.645H173.691C173.774 172.787 173.914 171.935 174.111 171.095C176.061 162.105 181.161 154.205 186.401 146.625Z" fill="#E5C3D1"/>
<path opacity="0.47" d="M170.371 136.505C170.091 139.135 169.811 141.845 169.471 144.505C168.216 153.983 165.919 163.292 162.621 172.265H162.381C165.693 163.296 167.994 153.985 169.241 144.505C169.591 141.865 169.871 139.155 170.141 136.505C170.861 129.415 171.621 122.145 173.841 115.395H174.061C171.841 122.125 171.091 129.405 170.371 136.505Z" fill="#E5C3D1"/>
<path opacity="0.47" d="M186.841 139.645C184.371 145.475 181.281 151.125 178.291 156.585C176.841 159.245 175.291 161.985 173.921 164.725C172.492 167.44 171.236 170.242 170.161 173.115H169.921C171.006 170.214 172.275 167.385 173.721 164.645C175.131 161.915 176.641 159.165 178.091 156.505C181.219 151.012 184.07 145.365 186.631 139.585C190.871 129.585 192.491 120.335 191.461 112.175C191.282 110.067 190.654 108.022 189.621 106.175C188.889 104.94 187.801 103.954 186.501 103.345L186.701 103.185C187.998 103.819 189.082 104.816 189.821 106.055C190.868 107.919 191.502 109.985 191.681 112.115C192.731 120.315 191.091 129.575 186.841 139.645Z" fill="#E5C3D1"/>
<path opacity="0.47" d="M188.411 115.195C188.396 113.522 188.032 111.87 187.341 110.345C187.011 109.631 186.51 109.008 185.882 108.534C185.254 108.059 184.519 107.747 183.741 107.625H183.671L183.561 107.845H183.711C184.452 107.964 185.152 108.264 185.75 108.717C186.348 109.171 186.826 109.764 187.141 110.445C187.803 111.945 188.144 113.566 188.141 115.205C188.697 124.959 185.992 134.619 180.451 142.665C179.191 144.485 177.954 145.272 176.741 145.025C176.345 144.922 175.98 144.726 175.675 144.453C175.371 144.18 175.136 143.838 174.991 143.455C174.652 142.637 174.449 141.769 174.391 140.885C173.682 132.967 174.465 124.985 176.701 117.355C176.841 116.905 176.961 116.415 177.101 115.905L177.371 114.905L177.121 114.965L176.881 115.845C176.741 116.345 176.621 116.845 176.481 117.285C174.81 123.101 173.975 129.125 174.001 135.175C174.001 137.085 174.081 138.995 174.251 140.895C174.421 142.795 174.981 144.895 176.771 145.245C176.937 145.26 177.105 145.26 177.271 145.245C178.411 145.245 179.571 144.415 180.721 142.745C186.252 134.661 188.956 124.975 188.411 115.195Z" fill="#E5C3D1"/>
<path opacity="0.47" d="M182.161 172.055C181.598 171.848 181.104 171.489 180.733 171.018C180.362 170.546 180.13 169.981 180.061 169.385C180.008 169.092 179.985 168.794 179.991 168.495C180.018 167.571 180.162 166.653 180.421 165.765C181.011 163.435 183.321 157.245 186.221 154.255C186.221 154.155 186.221 154.055 186.221 153.955C182.951 157.135 180.591 164.155 180.221 165.705C179.845 166.907 179.726 168.174 179.871 169.425C179.947 170.063 180.199 170.667 180.598 171.17C180.997 171.673 181.527 172.056 182.131 172.275C182.385 172.344 182.648 172.377 182.911 172.375C183.621 172.35 184.311 172.136 184.911 171.755C184.961 171.635 185.021 171.505 185.061 171.395C184.655 171.71 184.185 171.933 183.684 172.047C183.183 172.161 182.663 172.164 182.161 172.055Z" fill="#E5C3D1"/>
<path opacity="0.47" d="M161.491 122.275C161.441 122.335 161.401 122.405 161.351 122.475C162.23 124.282 162.603 126.293 162.431 128.295C162.281 137.295 159.431 145.925 156.651 153.225C156.041 155.189 155.018 157 153.651 158.535C152.361 159.815 150.101 160.805 148.151 159.925C145.331 158.645 145.221 154.665 145.411 152.415C145.411 151.875 145.511 151.335 145.581 150.795L145.331 150.995C145.261 151.475 145.221 151.935 145.181 152.395C144.991 154.705 145.111 158.785 148.061 160.135C148.591 160.367 149.163 160.486 149.741 160.485C151.278 160.429 152.735 159.785 153.811 158.685C155.188 157.13 156.212 155.295 156.811 153.305C159.591 145.985 162.451 137.305 162.611 128.305C162.8 126.231 162.412 124.144 161.491 122.275Z" fill="#E5C3D1"/>
<path opacity="0.47" d="M139.001 154.885C138.729 156.569 138.266 158.216 137.621 159.795C135.621 164.655 131.491 168.175 127.121 168.735C126.816 168.772 126.508 168.789 126.201 168.785C124.421 168.785 122.601 168.135 121.921 166.555C121.341 165.205 121.811 163.645 122.361 162.315C122.922 160.911 123.56 159.539 124.271 158.205C124.369 158.191 124.466 158.171 124.561 158.145C123.818 159.525 123.15 160.944 122.561 162.395C122.041 163.695 121.561 165.185 122.131 166.465C122.881 168.225 125.131 168.755 127.131 168.465C131.411 167.915 135.451 164.465 137.451 159.665C138.067 158.149 138.513 156.57 138.781 154.955C138.857 154.941 138.931 154.918 139.001 154.885Z" fill="#E5C3D1"/>
</g>
<path d="M95.6709 183.925C144.94 183.925 184.881 178.956 184.881 172.825C184.881 166.695 144.94 161.725 95.6709 161.725C46.4016 161.725 6.46092 166.695 6.46092 172.825C6.46092 178.956 46.4016 183.925 95.6709 183.925Z" fill="#8B6FED"/>
<path d="M101.821 67.2253C101.821 67.2253 101.971 67.1653 102.251 67.0853C104.411 66.4053 114.191 63.7553 120.151 68.5453C126.891 73.9653 131.311 88.8753 131.751 101.245C132.191 113.615 127.751 134.055 127.751 134.055H79.6109C79.6109 134.055 76.7409 100.145 75.4109 93.6253C74.0809 87.1053 80.4909 74.4053 82.5909 73.4053C84.6909 72.4053 102.001 67.1653 102.001 67.1653" fill="#613F75"/>
<path d="M102.661 66.7853C101.841 70.0553 100.981 73.4153 98.9909 76.1353C97.0009 78.8553 93.5809 80.8253 90.2909 80.1353C87.2009 79.4353 85.0009 76.6053 84.0009 73.6253L84.5709 73.4953C90.6713 72.1192 96.5696 69.9649 102.121 67.0853L102.661 66.7853Z" fill="#F7A9A8"/>
<g style="mix-blend-mode:multiply" opacity="0.44">
<path d="M101.501 69.3553C100.432 71.7664 98.9227 73.9571 97.0509 75.8153C95.1059 77.4161 92.6248 78.2169 90.1109 78.0553C88.213 77.993 86.4163 77.1845 85.1109 75.8053C84.8128 75.509 84.597 75.1402 84.4848 74.7351C84.3726 74.3301 84.3678 73.9028 84.4709 73.4953C90.5713 72.1192 96.4696 69.9649 102.021 67.0853C102.071 67.8764 101.891 68.665 101.501 69.3553Z" fill="#EF737E"/>
</g>
<path d="M103.291 66.8853C108.711 68.2553 111.681 61.6653 109.561 59.0553C107.831 56.9153 105.971 57.9153 105.001 58.6953C104.765 58.8949 104.544 59.1122 104.341 59.3453L103.881 62.6753L103.291 66.8653V66.8853Z" fill="#F7A9A8"/>
<path d="M107.661 60.8453C106.964 61.1854 106.349 61.6727 105.859 62.2735C105.368 62.8743 105.014 63.5744 104.821 64.3253" stroke="#4A3059" stroke-width="0.26" stroke-linecap="round" stroke-linejoin="round"/>
<path d="M106.391 61.7853C106.729 62.0789 106.967 62.4718 107.069 62.9081C107.171 63.3444 107.134 63.8018 106.961 64.2153" stroke="#4A3059" stroke-width="0.26" stroke-linecap="round" stroke-linejoin="round"/>
<path d="M77.5909 67.2753H77.6909C77.9706 67.2957 78.2513 67.2957 78.5309 67.2753C79.1033 67.2643 79.6717 67.1769 80.2209 67.0153L79.4109 61.3553L79.1709 59.7753C78.3941 59.1854 77.5165 58.7415 76.5809 58.4653C75.8683 58.2635 75.1136 58.2635 74.4009 58.4653C73.7091 58.6828 73.1081 59.1221 72.6909 59.7153C71.0009 62.0053 73.5209 66.6953 77.5909 67.2753Z" fill="#F7A9A8"/>
<path d="M75.6009 60.5153C76.1539 61.0571 76.5831 61.7121 76.8593 62.4353C77.1355 63.1585 77.252 63.9329 77.2009 64.7053" stroke="#4A3059" stroke-width="0.26" stroke-linecap="round" stroke-linejoin="round"/>
<path d="M76.5109 61.8053C76.0978 61.9785 75.7497 62.2776 75.5163 62.66C75.283 63.0424 75.1761 63.4887 75.2109 63.9353" stroke="#4A3059" stroke-width="0.26" stroke-linecap="round" stroke-linejoin="round"/>
<path d="M77.0709 58.4853C77.0709 58.7453 77.0709 58.9853 77.0709 59.2353C77.1374 60.241 77.2576 61.2424 77.4309 62.2353C77.4309 62.4653 77.5209 62.7053 77.5609 62.9453L77.7109 63.6453C77.7109 63.8853 77.8109 64.1253 77.8709 64.3653C78.0909 65.3053 78.3709 66.2553 78.6909 67.1953C78.9209 67.8553 79.1909 68.5053 79.4809 69.1953C80.0949 70.5579 80.8777 71.8379 81.8109 73.0053C82.7715 74.2786 84.0066 75.3191 85.4245 76.0497C86.8423 76.7802 88.4065 77.1821 90.0009 77.2253H90.6209C90.7908 77.2352 90.9611 77.2352 91.1309 77.2253H91.2409C94.7035 76.9935 97.936 75.4096 100.241 72.8153C100.892 72.107 101.48 71.3442 102.001 70.5353C102.668 69.4099 103.237 68.2288 103.701 67.0053C103.697 66.9855 103.697 66.9651 103.701 66.9453C103.831 66.6353 103.941 66.3253 104.051 65.9453C104.323 65.1116 104.551 64.2637 104.731 63.4053C105.04 61.9077 105.207 60.3843 105.231 58.8553V58.8053C105.341 52.3553 102.911 45.7153 96.8009 42.8053C95.8951 42.3574 94.938 42.0215 93.9509 41.8053C92.8886 41.5894 91.8041 41.5021 90.7209 41.5453C87.4304 41.6334 84.2773 42.884 81.8209 45.0753C78.0009 48.5653 76.8709 53.5853 77.0709 58.4853Z" fill="#F7A9A8"/>
<g opacity="0.35">
<g style="mix-blend-mode:multiply" opacity="0.33">
<path d="M77.4809 62.3453C78.035 66.2049 79.5363 69.8673 81.8509 73.0053C83.3475 72.7793 84.7011 71.9896 85.6343 70.798C86.5675 69.6063 87.0097 68.103 86.8704 66.5958C86.731 65.0887 86.0207 63.6919 84.8848 62.6915C83.749 61.6912 82.2736 61.163 80.7609 61.2153C79.5788 61.2535 78.4357 61.6473 77.4809 62.3453Z" fill="#F68BD0"/>
</g>
<g style="mix-blend-mode:multiply" opacity="0.33">
<path d="M94.0009 67.0053C94.0217 67.7841 94.1957 68.5512 94.513 69.2628C94.8303 69.9743 95.2847 70.6164 95.8503 71.1522C96.4159 71.6881 97.0815 72.1072 97.8091 72.3857C98.5367 72.6642 99.3121 72.7966 100.091 72.7753H100.321C100.951 72.0692 101.513 71.3059 102.001 70.4953C102.676 69.3848 103.251 68.217 103.721 67.0053C103.851 66.6653 103.971 66.3253 104.081 66.0053C104.358 65.1729 104.585 64.3248 104.761 63.4653C104.602 63.2473 104.428 63.0402 104.241 62.8453C103.395 61.9383 102.285 61.3201 101.068 61.0778C99.8519 60.8356 98.59 60.9816 97.4609 61.4953C97.2306 61.598 97.0068 61.7149 96.7909 61.8453C95.9231 62.3947 95.2109 63.1576 94.7224 64.0611C94.2338 64.9646 93.9854 65.9783 94.0009 67.0053Z" fill="#F68BD0"/>
</g>
</g>
<path d="M94.6409 60.7453C94.6693 60.9611 94.7604 61.1638 94.9031 61.3282C95.0457 61.4926 95.2335 61.6115 95.4432 61.67C95.6528 61.7284 95.875 61.724 96.0822 61.6572C96.2893 61.5904 96.4723 61.4642 96.6082 61.2942C96.7442 61.1242 96.8272 60.9181 96.8469 60.7013C96.8666 60.4845 96.8222 60.2668 96.7191 60.0751C96.616 59.8834 96.4588 59.7262 96.2671 59.6232C96.0754 59.5201 95.8577 59.4756 95.6409 59.4953C95.492 59.5089 95.3474 59.5524 95.2158 59.6232C95.0841 59.694 94.9681 59.7906 94.8747 59.9074C94.7813 60.0241 94.7125 60.1585 94.6723 60.3025C94.6321 60.4465 94.6215 60.5971 94.6409 60.7453Z" fill="#4A3059"/>
<path d="M84.0009 60.5553C84.0078 60.7756 84.0807 60.9886 84.2101 61.167C84.3395 61.3453 84.5195 61.4806 84.7268 61.5555C84.934 61.6303 85.1589 61.6412 85.3724 61.5867C85.5859 61.5322 85.7781 61.4148 85.9241 61.2498C86.0701 61.0848 86.1632 60.8798 86.1914 60.6613C86.2195 60.4427 86.1813 60.2208 86.0819 60.0242C85.9824 59.8276 85.8262 59.6654 85.6334 59.5586C85.4407 59.4519 85.2203 59.4054 85.0009 59.4253C84.7216 59.4507 84.4625 59.5818 84.2766 59.7919C84.0907 60.0019 83.9921 60.275 84.0009 60.5553Z" fill="#4A3059"/>
<g style="mix-blend-mode:multiply" opacity="0.33">
<g style="mix-blend-mode:multiply" opacity="0.67">
<path d="M87.1409 61.0054C86.6294 61.7065 86.012 62.3238 85.3109 62.8354C85.3109 62.8354 86.1809 64.1054 86.7509 63.3754C87.1072 62.6396 87.2426 61.8165 87.1409 61.0054Z" fill="#F68BD0"/>
</g>
<g style="mix-blend-mode:multiply" opacity="0.67">
<path d="M93.8109 60.2853C94.2948 61.1044 94.8291 61.8926 95.4109 62.6453C95.4109 62.6453 94.2109 63.6453 93.5609 62.8253C92.9109 62.0053 93.8109 60.2853 93.8109 60.2853Z" fill="#F68BD0"/>
</g>
</g>
<path d="M82.8209 58.5753C83.5053 58.6255 84.1916 58.5088 84.8209 58.2353C85.3906 58.0532 85.9299 57.7869 86.4209 57.4453C86.9178 57.098 87.2728 56.5832 87.4209 55.9953C87.4845 55.702 87.4648 55.3967 87.3641 55.114C87.2633 54.8313 87.0856 54.5824 86.8509 54.3953C85.6909 53.5553 84.3509 54.7553 83.2609 55.1253C82.3309 55.4453 81.2609 56.0153 81.3609 57.2053C81.422 57.5615 81.5976 57.8879 81.8611 58.1352C82.1246 58.3825 82.4616 58.537 82.8209 58.5753Z" fill="#4A3059"/>
<path d="M94.3009 56.7253C94.7057 57.264 95.2293 57.702 95.8309 58.0053C96.3391 58.3225 96.8919 58.5618 97.4709 58.7153C98.0536 58.8677 98.6718 58.8038 99.2109 58.5353C99.4777 58.3973 99.7005 58.1875 99.8543 57.9295C100.008 57.6715 100.087 57.3756 100.081 57.0753C99.9709 55.6453 98.1909 55.3853 97.2009 54.7953C96.2109 54.2053 95.2009 53.7953 94.3909 54.6853C94.1475 54.9651 94.006 55.3191 93.9897 55.6896C93.9733 56.0601 94.0831 56.4252 94.3009 56.7253Z" fill="#4A3059"/>
<path d="M87.7309 56.2654C87.9968 56.4052 88.2292 56.601 88.4122 56.8392C88.5952 57.0774 88.7244 57.3524 88.7909 57.6454C88.9417 58.2096 88.969 58.7996 88.8709 59.3754C88.6458 60.4826 88.3108 61.5646 87.8709 62.6054C87.4533 63.6028 87.3084 64.6934 87.4509 65.7654C87.5365 66.2826 87.7715 66.7636 88.1268 67.1491C88.4821 67.5346 88.9424 67.8079 89.4509 67.9354C89.4681 67.9378 89.4846 67.9436 89.4995 67.9525C89.5143 67.9614 89.5273 67.9732 89.5375 67.9872C89.5478 68.0012 89.5551 68.0171 89.5591 68.0339C89.5632 68.0508 89.5638 68.0683 89.5609 68.0854C89.5544 68.1154 89.5381 68.1425 89.5146 68.1624C89.4911 68.1823 89.4617 68.1939 89.4309 68.1954C88.8272 68.1209 88.2639 67.8525 87.8257 67.4306C87.3875 67.0086 87.0981 66.4559 87.0009 65.8554C86.8381 64.7046 86.9973 63.5312 87.4609 62.4654C87.8946 61.4533 88.2295 60.4018 88.4609 59.3254C88.5609 58.8001 88.5609 58.2606 88.4609 57.7354C88.4115 57.4816 88.3094 57.2411 88.1613 57.0292C88.0131 56.8174 87.8223 56.6389 87.6009 56.5054C87.5702 56.4884 87.5469 56.4604 87.5358 56.4271C87.5247 56.3937 87.5265 56.3574 87.5409 56.3254C87.5482 56.3078 87.5592 56.292 87.5732 56.2792C87.5872 56.2664 87.6038 56.2567 87.6219 56.251C87.64 56.2453 87.6592 56.2436 87.678 56.2461C87.6969 56.2486 87.7149 56.2551 87.7309 56.2654Z" fill="#4A3059"/>
<path d="M92.4709 66.3353C92.5666 66.4132 92.6446 66.5106 92.6998 66.6209C92.7549 66.7312 92.786 66.8521 92.7909 66.9753C92.8342 67.2257 92.7806 67.4831 92.6409 67.6953C92.4109 67.9653 92.0609 67.7653 91.8909 67.6953L91.2609 67.4353L91.4509 67.2853L91.5709 67.9253C91.577 67.9531 91.5721 67.9822 91.5572 68.0065C91.5422 68.0307 91.5185 68.0482 91.4909 68.0553C91.4778 68.0582 91.4642 68.0584 91.4509 68.056C91.4377 68.0535 91.4251 68.0483 91.4139 68.0409C91.4027 68.0334 91.3931 68.0237 91.3857 68.0125C91.3783 68.0012 91.3733 67.9886 91.3709 67.9753L91.1809 67.3453C91.1714 67.3108 91.1754 67.274 91.1921 67.2424C91.2089 67.2108 91.237 67.1868 91.2709 67.1753C91.3034 67.1646 91.3385 67.1646 91.3709 67.1753L91.9809 67.4853C92.1909 67.5953 92.3809 67.6853 92.4909 67.5653C92.6129 67.3943 92.6665 67.1838 92.6409 66.9753C92.6421 66.8698 92.6223 66.7652 92.5829 66.6674C92.5434 66.5695 92.485 66.4805 92.4109 66.4053L92.4709 66.3253V66.3353Z" fill="#4A3059"/>
<path d="M89.1809 71.0054C89.7553 70.3068 90.5022 69.7705 91.3476 69.4495C92.193 69.1285 93.1077 69.034 94.0009 69.1754" stroke="#4A3059" stroke-width="0.25" stroke-linecap="round" stroke-linejoin="round"/>
<path d="M91.0009 71.2753C91.5235 71.1373 92.0224 70.9215 92.4809 70.6353" stroke="#4A3059" stroke-width="0.26" stroke-linecap="round" stroke-linejoin="round"/>
<path d="M83.3109 41.8954C83.8699 44.361 85.2139 46.5787 87.1409 48.2154C89.0942 49.8681 91.5195 50.862 94.0709 51.0554C94.7304 51.0342 95.3853 51.1714 95.9809 51.4554C96.6409 51.8654 96.9809 52.6454 97.4509 53.2254C98.2503 54.0292 99.276 54.5699 100.391 54.7754C101.501 54.9791 102.587 55.2974 103.631 55.7254C104.153 55.9374 104.612 56.2808 104.962 56.7224C105.313 57.1639 105.543 57.6885 105.631 58.2454C107.111 58.0054 108.081 56.4254 108.631 55.0553C109.321 53.3053 109.991 51.3554 109.301 49.5954C108.722 48.5205 108.025 47.5142 107.221 46.5954C106.49 45.3543 105.874 44.0488 105.381 42.6953C104.873 41.3276 103.963 40.1457 102.771 39.3054C100.771 38.0654 98.1709 38.5953 95.7709 38.4453C93.3709 38.2953 90.7709 37.3154 88.3209 37.7154C87.1999 37.9301 86.1519 38.4264 85.2755 39.1576C84.3991 39.8888 83.723 40.8309 83.3109 41.8954Z" fill="#7D82B8"/>
<path d="M85.4509 43.1653C85.8114 44.1476 85.9087 45.2069 85.7333 46.2384C85.5579 47.2699 85.1158 48.2375 84.4509 49.0453C83.2809 50.4453 81.4509 51.2353 80.3209 52.6453C78.9009 54.4053 78.5309 57.0053 76.8109 58.4653C76.3384 58.2539 75.9258 57.9285 75.6099 57.5184C75.294 57.1082 75.0848 56.6262 75.0009 56.1153C74.8012 55.1051 74.8012 54.0656 75.0009 53.0553C75.6309 49.4053 76.8309 45.6053 79.6809 43.2453C80.5339 42.4847 81.5972 42.0001 82.7309 41.8553C83.2654 41.7422 83.8222 41.8094 84.3144 42.0464C84.8065 42.2834 85.2062 42.6769 85.4509 43.1653Z" fill="#7D82B8"/>
<path d="M78.5909 62.5953C78.9209 62.5153 79.0509 62.1253 79.1109 61.8053C79.5543 59.2697 79.7685 56.6993 79.7509 54.1253C79.7754 53.7485 79.7383 53.3702 79.6409 53.0053C79.5854 52.815 79.4817 52.6422 79.3398 52.5038C79.1979 52.3654 79.0226 52.266 78.8309 52.2153C76.9309 51.8253 76.3009 55.8753 76.4409 57.1253C76.5509 58.0053 77.6509 62.8153 78.5909 62.5953Z" fill="#7D82B8"/>
<path d="M103.071 62.0554C103.067 62.2189 103.099 62.3813 103.167 62.5302C103.235 62.6792 103.335 62.8109 103.461 62.9154C103.607 62.9824 103.771 63.0001 103.928 62.9659C104.085 62.9316 104.226 62.8472 104.331 62.7254C104.533 62.4737 104.677 62.1798 104.751 61.8654C105.141 60.6554 105.521 59.4454 105.901 58.2354C106.254 57.4267 106.342 56.5269 106.151 55.6654C106.046 55.3947 105.887 55.148 105.684 54.9397C105.482 54.7315 105.24 54.5661 104.972 54.4533C104.704 54.3404 104.417 54.2825 104.126 54.2828C103.836 54.2832 103.548 54.3419 103.281 54.4554C101.981 55.0754 102.781 56.1354 102.911 57.1254C103.111 58.7254 102.881 60.4254 103.071 62.0554Z" fill="#7D82B8"/>
<path d="M106.101 54.7053C106.211 52.2853 105.021 51.9353 105.401 48.7053C105.701 46.1853 106.511 45.2853 106.131 44.3253C105.627 43.3085 104.899 42.4195 104.001 41.7253L100.311 38.3353C99.8909 37.9553 99.6909 37.7753 99.6709 37.2053C99.6509 36.6353 100.371 36.1053 100.541 36.2053C100.331 35.844 100.22 35.4333 100.221 35.0153C100.21 34.8048 100.252 34.5949 100.343 34.4046C100.434 34.2143 100.571 34.0496 100.741 33.9253C100.913 33.8033 101.122 33.7454 101.332 33.7619C101.542 33.7783 101.74 33.868 101.891 34.0153C101.807 33.895 101.753 33.7568 101.732 33.6117C101.712 33.4666 101.725 33.3187 101.772 33.1797C101.818 33.0408 101.897 32.9147 102.001 32.8115C102.105 32.7083 102.232 32.6308 102.371 32.5853C102.861 32.4053 103.471 32.6453 104.061 33.2553C106.74 35.4185 109.25 37.7819 111.571 40.3253C115.571 44.4653 112.251 52.2653 110.881 57.8853C109.183 56.9909 107.582 55.9254 106.101 54.7053Z" fill="#F7A9A8"/>
<path d="M106.431 32.3453C106.271 31.9653 106.131 31.4853 106.431 31.1953C106.579 31.0964 106.753 31.0436 106.931 31.0436C107.109 31.0436 107.283 31.0964 107.431 31.1953C107.715 31.4131 107.944 31.6938 108.101 32.0153C109.841 35.0153 112.481 39.2653 112.891 42.6353C112.891 42.9953 112.091 42.2353 111.891 42.5653C111.816 42.7399 111.687 42.8862 111.524 42.9832C111.36 43.0802 111.17 43.1229 110.981 43.1053C110.521 43.0453 110.281 42.6053 110.101 42.2153C108.781 39.0053 107.821 35.6153 106.431 32.3453Z" fill="#F7A9A8"/>
<path d="M100.551 36.2253C100.551 36.2253 105.391 40.0053 107.001 41.4453" stroke="#4A3059" stroke-width="0.22" stroke-linecap="round" stroke-linejoin="round"/>
<path d="M101.901 34.0053C101.901 34.0053 107.521 38.7253 108.901 40.3153" stroke="#4A3059" stroke-width="0.22" stroke-linecap="round" stroke-linejoin="round"/>
<path d="M108.191 36.8453C108.191 36.8453 110.401 39.0853 110.871 39.6753" stroke="#4A3059" stroke-width="0.22" stroke-linecap="round" stroke-linejoin="round"/>
<path d="M105.461 53.0053C105.461 53.0053 93.6409 69.5353 92.4609 81.7053C91.2809 93.8753 92.6909 99.6153 102.521 96.6353C112.351 93.6553 120.971 90.6353 120.971 90.6353L108.111 79.7253L114.851 60.7753L105.461 53.0053Z" fill="#613F75"/>
<path d="M114.851 60.7753C114.851 60.7753 109.661 74.6253 108.111 80.4753" stroke="#4A3059" stroke-width="0.22" stroke-linecap="round" stroke-linejoin="round"/>
<path d="M92.6109 80.2253C92.6109 80.2253 90.4709 90.0853 92.8309 93.8453C95.1909 97.6053 105.831 94.2153 109.991 92.0053C114.151 89.7953 116.321 88.7653 116.321 88.7653" stroke="#4A3059" stroke-width="0.22" stroke-linecap="round" stroke-linejoin="round"/>
<path d="M110.001 92.0053C110.001 92.0053 115.161 91.7153 116.551 92.1553" stroke="#4A3059" stroke-width="0.22" stroke-linecap="round" stroke-linejoin="round"/>
<path d="M103.631 55.7253L113.661 63.7653" stroke="#4A3059" stroke-width="0.22" stroke-linecap="round" stroke-linejoin="round"/>
<path d="M111.711 69.7253C116.583 71.9332 120.532 75.7699 122.881 80.5753C125.193 85.3536 126.626 90.5092 127.111 95.7953C128.192 104.916 127.74 114.154 125.771 123.125C125.861 122.835 125.951 122.555 126.051 122.275" stroke="#4A3059" stroke-width="0.22" stroke-linecap="round" stroke-linejoin="round"/>
<path d="M75.8209 56.4853C76.1509 54.0753 77.3809 53.9553 77.5809 50.7453C77.7409 48.2153 77.1109 47.1853 77.6509 46.3053C78.3284 45.3802 79.2072 44.6211 80.2209 44.0853L84.4609 41.4253C84.9409 41.1253 85.2109 41.0053 85.3409 40.4253C85.4709 39.8453 84.9909 39.1853 84.4909 39.3553C84.8005 39.0169 85.0235 38.6086 85.1409 38.1653C85.1855 37.9612 85.1806 37.7495 85.1266 37.5477C85.0727 37.3459 84.9713 37.1599 84.8309 37.0053C84.6816 36.8567 84.4853 36.7645 84.2756 36.7444C84.0659 36.7244 83.8557 36.7777 83.6809 36.8953C83.786 36.7916 83.8653 36.6647 83.9122 36.5247C83.9591 36.3847 83.9724 36.2356 83.951 36.0896C83.9295 35.9435 83.874 35.8045 83.7889 35.6839C83.7037 35.5633 83.5914 35.4644 83.4609 35.3953C83.1616 35.2784 82.8352 35.2492 82.52 35.3112C82.2047 35.3732 81.9136 35.5238 81.6809 35.7453C78.6523 37.401 75.751 39.2795 73.0009 41.3653C68.3009 44.7153 70.1909 53.0053 70.5309 58.7653C72.3655 58.1828 74.1376 57.419 75.8209 56.4853Z" fill="#F7A9A8"/>
<path d="M71.0509 43.6953C72.2167 41.4223 73.6649 39.3056 75.3609 37.3953C77.6809 35.0153 81.6509 36.2353 81.6509 36.2353L71.0509 43.6953Z" fill="#F7A9A8"/>
<path d="M84.4909 39.3853C84.4909 39.3853 79.0009 42.6253 78.1209 43.1353" stroke="#4A3059" stroke-width="0.22" stroke-linecap="round" stroke-linejoin="round"/>
<path d="M83.5709 37.0053C83.5709 37.0053 76.1909 41.0053 75.5709 41.4653" stroke="#4A3059" stroke-width="0.22" stroke-linecap="round" stroke-linejoin="round"/>
<path d="M81.1209 36.1453C78.6777 37.3942 76.3012 38.7694 74.0009 40.2653" stroke="#4A3059" stroke-width="0.22" stroke-linecap="round" stroke-linejoin="round"/>
<path d="M69.1209 56.3953L78.1209 53.5253C78.1209 53.5253 88.5609 78.0053 88.8909 85.5653C89.2209 93.1253 83.2609 100.475 74.4209 95.8353C65.5809 91.1953 69.1209 56.3953 69.1209 56.3953Z" fill="#613F75"/>
<path d="M78.1709 53.5253C78.1709 53.5253 86.6109 73.5253 87.8209 80.3653C89.0309 87.2053 91.5409 93.6253 83.1509 96.2753" stroke="#4A3059" stroke-width="0.22" stroke-linecap="round" stroke-linejoin="round"/>
<path d="M68.8209 59.1553L79.2809 56.2853" stroke="#4A3059" stroke-width="0.22" stroke-linecap="round" stroke-linejoin="round"/>
<path d="M88.8709 170.515C87.2303 178.716 84.5416 186.671 80.8709 194.185C80.0009 196.005 79.0009 197.855 79.0009 199.865C79.0009 201.875 80.3609 204.045 82.3609 204.185C84.3609 204.325 85.7109 202.765 87.3609 201.955C90.5309 200.425 94.9009 201.335 97.1809 198.655C98.3809 197.255 98.5809 195.275 98.7109 193.425C99.2509 186.305 99.7842 179.182 100.311 172.055C96.5409 171.435 92.5309 170.725 88.7609 170.055C88.8309 170.265 88.9109 170.355 88.8709 170.515Z" fill="#613F75"/>
<path d="M129.081 133.615C129.081 133.615 133.481 149.025 128.621 160.305C123.761 171.585 107.481 173.695 94.2509 171.005C81.0209 168.315 80.1909 169.485 73.0009 156.375C67.7609 146.755 70.6509 135.915 70.6509 135.915L72.1709 131.405L129.081 133.615Z" fill="#EF737E"/>
<path d="M69.6609 187.175C68.8409 189.005 67.9109 191.005 68.3509 193.005C68.7909 195.005 70.2709 196.155 71.2809 197.725C72.3709 199.445 73.2809 201.855 75.1909 202.055C77.1009 202.255 78.3509 200.285 79.1909 198.545C83.9309 189.085 87.8209 178.835 88.1109 168.115C88.1109 168.675 79.9909 168.265 79.2509 168.195C77.3509 168.015 75.3609 167.325 74.5709 169.615C73.6309 172.305 73.5709 175.615 72.7909 178.385C71.9668 181.389 70.9206 184.327 69.6609 187.175Z" fill="#613F75"/>
<g style="mix-blend-mode:multiply" opacity="0.06">
<path d="M69.6609 187.175C68.8409 189.005 67.9109 191.005 68.3509 193.005C68.7909 195.005 70.2709 196.155 71.2809 197.725C72.3709 199.445 73.2809 201.855 75.1909 202.055C77.1009 202.255 78.3509 200.285 79.1909 198.545C83.9309 189.085 87.8209 178.835 88.1109 168.115C88.1109 168.675 79.9909 168.265 79.2509 168.195C77.3509 168.015 75.3609 167.325 74.5709 169.615C73.6309 172.305 73.5709 175.615 72.7909 178.385C71.9668 181.389 70.9206 184.327 69.6609 187.175Z" fill="#613F75"/>
</g>
<path d="M88.6309 168.375C88.6309 156.645 88.8309 144.895 89.4909 133.185C90.0909 122.565 90.6209 110.555 95.6109 100.905C98.3309 95.6553 105.731 93.1653 111.041 96.2253C116.041 99.1153 117.601 105.155 118.231 110.495C120.141 126.765 112.921 142.805 108.231 158.015C106.938 162.169 105.628 166.312 104.301 170.445C104.301 170.445 95.2609 172.065 88.6309 168.375Z" fill="#EF737E"/>
<path d="M88.6309 169.215C88.6309 169.215 79.5009 173.095 74.6309 169.515C74.6309 169.515 66.8209 141.795 67.8509 124.065C68.8809 106.335 70.0009 97.1253 79.7909 96.2053C90.7909 95.2053 92.1709 108.715 92.7909 115.575C93.4109 122.435 88.6309 169.215 88.6309 169.215Z" fill="#EF737E"/>
<path d="M114.631 99.4253C114.631 99.4253 121.811 110.425 129.081 133.615C131.931 142.705 131.501 157.185 127.081 162.045C122.661 166.905 101.591 171.615 101.591 171.615L114.631 99.4253Z" fill="#EF737E"/>
<path d="M115.441 126.255C112.041 141.945 108.331 157.955 100.361 172.055" stroke="#4A3059" stroke-width="0.46" stroke-linecap="round" stroke-linejoin="round"/>
<path d="M113.371 136.005C115.005 134.132 116.311 131.995 117.231 129.685" stroke="#4A3059" stroke-width="0.46" stroke-linecap="round" stroke-linejoin="round"/>
<path d="M99.4009 171.765C105.344 158.066 109.705 143.733 112.401 129.045C112.549 127.762 112.943 126.52 113.561 125.385C113.873 124.82 114.342 124.357 114.912 124.053C115.482 123.75 116.128 123.618 116.771 123.675C118.771 124.015 119.511 126.485 119.771 128.515C120.331 132.175 120.921 135.905 122.631 139.185C124.341 142.465 127.391 145.295 131.071 145.725" stroke="#4A3059" stroke-width="0.22" stroke-linecap="round" stroke-linejoin="round"/>
<path d="M110.321 171.465C109.984 168.881 110.258 166.254 111.121 163.795C111.611 162.405 111.961 160.925 113.301 160.325C114.25 160.02 115.272 160.02 116.221 160.325C117.98 160.635 119.672 161.247 121.221 162.135C121.986 162.59 122.648 163.2 123.164 163.925C123.681 164.649 124.041 165.474 124.221 166.345" stroke="#4A3059" stroke-width="0.22" stroke-linecap="round" stroke-linejoin="round"/>
<path d="M110.281 171.175C112.407 170.971 114.423 170.135 116.071 168.775C116.455 168.514 116.743 168.135 116.891 167.695C116.921 167.585 116.929 167.47 116.914 167.356C116.899 167.243 116.861 167.134 116.803 167.035C116.746 166.936 116.669 166.85 116.577 166.782C116.486 166.713 116.382 166.663 116.271 166.635C115.641 166.575 115.341 167.545 115.751 168.035C115.984 168.253 116.264 168.413 116.569 168.503C116.875 168.594 117.197 168.611 117.511 168.555C118.733 168.465 119.918 168.098 120.977 167.481C122.036 166.864 122.94 166.014 123.621 164.995" stroke="#4A3059" stroke-width="0.22" stroke-linecap="round" stroke-linejoin="round"/>
<path d="M92.3109 109.475C92.3109 109.475 87.2309 147.755 87.6709 169.855" stroke="#4A3059" stroke-width="0.46" stroke-linecap="round" stroke-linejoin="round"/>
<path d="M73.7609 166.695L87.6809 167.155C92.6809 167.315 97.2909 168.545 102.261 168.745" stroke="#4A3059" stroke-width="0.22" stroke-linecap="round" stroke-linejoin="round"/>
<path d="M88.8609 28.4353L85.0009 26.5353L88.3109 23.8453L85.2209 23.4453C84.9409 23.4453 84.6109 23.3353 84.5009 23.0653C84.3909 22.7953 84.6709 22.4553 84.9309 22.2453L87.5909 20.0753L84.5909 19.7753C84.2509 19.7753 83.8309 19.6253 83.7909 19.2853C83.7509 18.9453 83.9509 18.8753 84.1109 18.7153L86.3609 16.5753L82.1809 16.3453" stroke="#4A3059" stroke-width="0.75" stroke-linecap="round" stroke-linejoin="round"/>
<path d="M95.1709 26.2053L92.6409 22.7053L96.8309 21.8953L94.3009 20.0853C94.0709 19.9253 93.8109 19.6953 93.8409 19.4153C93.8709 19.1353 94.2809 18.9453 94.6109 18.8853L98.0009 18.2353L95.4809 16.5453C95.2009 16.3553 94.8809 16.0453 95.0109 15.7353C95.0709 15.6398 95.1514 15.5589 95.2465 15.4983C95.3416 15.4378 95.449 15.3992 95.5609 15.3853L98.5609 14.5553L95.0009 12.3753" stroke="#4A3059" stroke-width="0.75" stroke-linecap="round" stroke-linejoin="round"/>
<path d="M100.051 30.3553C99.7809 28.9453 99.5009 27.5253 99.2209 26.1153L103.371 27.1153C102.851 26.2153 102.371 25.3153 101.821 24.4153C101.671 24.1753 101.531 23.8553 101.681 23.6153C101.831 23.3753 102.271 23.3753 102.601 23.4553L105.931 24.2653L104.351 21.6853C104.171 21.3953 104.011 20.9753 104.261 20.7453C104.355 20.6854 104.461 20.6464 104.571 20.6309C104.682 20.6154 104.794 20.6237 104.901 20.6553L107.971 21.1553L105.621 17.6853" stroke="#4A3059" stroke-width="0.75" stroke-linecap="round" stroke-linejoin="round"/>
</svg>
