<svg width="212" height="196" viewBox="0 0 212 196" fill="none" xmlns="http://www.w3.org/2000/svg">
<path d="M17.4809 161.275C14.0109 146.875 10.4809 132.055 12.5709 117.385C13.1109 113.555 14.1009 109.625 16.6509 106.725C19.2009 103.825 23.6509 102.295 27.0509 104.135C28.4809 104.915 29.6309 106.205 31.1709 106.695C33.7609 107.505 36.5809 105.695 37.9309 103.355C39.2809 101.015 39.5709 98.2047 40.0409 95.5247C40.8509 90.9547 42.3609 86.3447 45.4609 82.8847C48.5609 79.4247 53.5109 77.3347 57.9709 78.6247C63.0809 80.1047 66.0709 85.2547 68.6109 89.9347C71.1509 94.6147 74.2909 99.7147 79.4709 100.935C83.8209 101.935 88.5509 99.9347 92.8009 101.315C97.3809 102.825 99.8009 107.725 101.471 112.255C106.467 125.896 108.914 140.339 108.691 154.865C78.6909 159.395 47.8109 160.865 17.4809 161.275Z" fill="#EF737E"/>
<g opacity="0.4">
<path opacity="0.4" d="M61.2109 186.645C52.881 182.981 44.815 178.744 37.0709 173.965L36.7409 173.775C27.7409 168.305 18.3609 162.655 10.5509 155.305C5.70395 150.798 2.32429 144.937 0.85087 138.485C-1.14913 129.345 0.39087 119.135 5.32087 109.745C9.59271 101.829 15.8049 95.1268 23.3749 90.2679C30.9449 85.4089 39.6248 82.5519 48.6009 81.9647C59.0909 81.3847 69.5009 83.9647 79.6009 86.5247C83.7009 87.5247 87.9409 88.6147 92.1309 89.4547C96.3209 90.2947 100.681 90.9647 104.911 91.5747C117.221 93.4047 129.911 95.3047 140.501 102.035C154.241 110.805 162.561 127.345 161.711 144.185C160.891 160.295 151.711 176.055 137.711 185.305C121.601 195.955 99.3109 198.425 76.5509 192.085C71.3221 190.615 66.1973 188.798 61.2109 186.645ZM133.211 98.7547C124.341 94.9547 114.451 93.4847 104.821 92.0447C100.581 91.4147 96.2009 90.7647 91.9709 89.9247C87.7409 89.0847 83.5509 88.0247 79.4509 86.9647C69.4509 84.4447 59.0409 81.8447 48.6209 82.4247C39.7279 83.0099 31.1292 85.8439 23.6309 90.6608C16.1326 95.4778 9.9803 102.12 5.75087 109.965C0.86087 119.255 -0.70913 129.345 1.32087 138.375C2.77989 144.742 6.12148 150.523 10.9109 154.965C18.6909 162.285 28.0109 167.915 37.0209 173.365L37.3509 173.565C52.1409 182.515 64.6409 188.245 76.6909 191.565C99.3109 197.865 121.461 195.415 137.451 184.845C151.321 175.675 160.451 160.065 161.261 144.105C162.101 127.435 153.871 111.105 140.261 102.385C138.018 100.989 135.667 99.7751 133.231 98.7547H133.211Z" fill="#E5C3D1"/>
<path opacity="0.4" d="M62.2509 184.035C54.3446 180.572 46.6894 176.562 39.3409 172.035L39.0309 171.855C30.4609 166.665 21.6009 161.305 14.1809 154.335C9.57425 150.048 6.36789 144.472 4.98086 138.335C3.03086 129.665 4.53086 119.975 9.22086 111.065C13.2755 103.556 19.1694 97.1985 26.3506 92.5883C33.5319 87.978 41.7656 85.2655 50.2809 84.7047C60.2809 84.1547 70.1109 86.6347 79.6609 89.0347C83.5509 90.0347 87.5709 91.0347 91.5409 91.8147C95.5109 92.5947 99.6909 93.2247 103.711 93.8147C115.391 95.5547 127.461 97.3547 137.471 103.745C150.471 112.065 158.401 127.745 157.591 143.745C156.811 159.035 148.081 173.985 134.801 182.745C119.511 192.845 98.3709 195.195 76.8009 189.175C71.8418 187.787 66.981 186.07 62.2509 184.035ZM130.561 100.665C122.151 97.0647 112.771 95.6647 103.641 94.3047C99.6409 93.7047 95.4609 93.0847 91.4509 92.3047C87.4409 91.5247 83.4509 90.4947 79.5409 89.5247C70.0309 87.1347 60.1909 84.6647 50.3109 85.2047C41.8776 85.7647 33.7239 88.4534 26.6116 93.0194C19.4993 97.5855 13.6606 103.88 9.64086 111.315C5.01086 120.125 3.52086 129.695 5.45086 138.315C6.83636 144.321 9.9925 149.772 14.5109 153.965C21.9109 160.965 30.7309 166.265 39.2809 171.435L39.5909 171.625C53.5909 180.115 65.4809 185.545 76.9109 188.735C98.3609 194.735 119.371 192.385 134.531 182.365C147.691 173.665 156.341 158.865 157.111 143.725C157.921 127.915 150.111 112.385 137.211 104.165C135.093 102.82 132.869 101.65 130.561 100.665Z" fill="#E5C3D1"/>
<path opacity="0.4" d="M63.8109 180.085C56.5664 176.905 49.5498 173.23 42.8109 169.085L42.5309 168.915C34.6609 164.155 26.5309 159.235 19.7109 152.835C15.4709 148.907 12.5154 143.79 11.2309 138.155C9.44086 130.155 10.8209 121.285 15.1209 113.155C18.8327 106.242 24.2408 100.386 30.8372 96.1369C37.4336 91.888 45.0018 89.3856 52.8309 88.8647C61.9709 88.3647 71.0409 90.6347 79.8309 92.8647C83.3909 93.7547 87.0909 94.6847 90.7309 95.4147C94.3709 96.1447 98.1909 96.6847 101.911 97.2347C112.631 98.8347 123.721 100.495 132.911 106.355C144.911 113.995 152.131 128.355 151.391 143.085C150.671 157.085 142.651 170.855 130.451 178.915C116.451 188.195 97.0009 190.345 77.1809 184.825C72.6259 183.537 68.1598 181.954 63.8109 180.085ZM11.7009 138.085C12.968 143.602 15.8631 148.612 20.0109 152.465C26.7809 158.835 34.9009 163.745 42.7509 168.465L43.0309 168.635C55.9109 176.425 66.7909 181.415 77.2809 184.335C96.9709 189.825 116.281 187.695 130.161 178.495C142.231 170.495 150.161 156.925 150.871 143.035C151.611 128.535 144.451 114.285 132.621 106.745C123.511 100.935 112.481 99.2847 101.811 97.7447C98.1109 97.1947 94.3009 96.6247 90.6109 95.8947C86.9209 95.1647 83.2609 94.2347 79.6909 93.3347C70.9609 91.1147 61.9109 88.8447 52.9109 89.3547C45.1671 89.8632 37.6798 92.3327 31.153 96.5311C24.6263 100.729 19.2745 106.519 15.6009 113.355C11.3009 121.405 9.91086 130.185 11.7009 138.045V138.085Z" fill="#E5C3D1"/>
<path opacity="0.4" d="M65.2709 176.385C58.6158 173.477 52.1732 170.106 45.9909 166.295L45.7309 166.135C38.5209 161.775 31.0609 157.265 24.8209 151.395C20.9525 147.794 18.2528 143.116 17.0709 137.965C15.4209 130.655 16.6909 122.495 20.6409 114.965C24.0519 108.639 29.0131 103.283 35.0596 99.3983C41.106 95.5137 48.0397 93.2277 55.2109 92.7547C63.5909 92.2847 71.9109 94.3747 79.9109 96.3947C83.1809 97.2147 86.5609 98.0647 89.9109 98.7347C93.2609 99.4047 96.7709 99.9247 100.151 100.425C109.981 101.895 120.151 103.425 128.571 108.785C139.571 115.785 146.201 129.005 145.511 142.465C144.861 155.335 137.511 167.925 126.321 175.315C113.451 183.825 95.6509 185.795 77.4809 180.735C73.3175 179.562 69.2381 178.108 65.2709 176.385ZM122.741 106.255C115.661 103.255 107.741 102.045 100.101 100.905C96.7109 100.395 93.2109 99.9047 89.8409 99.2047C86.4709 98.5047 83.1009 97.6847 79.8409 96.8647C71.8409 94.8647 63.5709 92.7747 55.2609 93.2347C48.1673 93.7092 41.3103 95.9765 35.3321 99.8243C29.354 103.672 24.4505 108.975 21.0809 115.235C17.1709 122.605 15.9109 130.645 17.5409 137.845C18.691 142.908 21.3393 147.508 25.1409 151.045C31.3509 156.875 38.7909 161.375 45.9809 165.725L46.2409 165.885C58.0409 173.015 68.0109 177.595 77.6309 180.275C95.6309 185.275 113.321 183.345 126.071 174.915C137.131 167.605 144.401 155.165 145.071 142.435C145.751 129.155 139.181 116.105 128.351 109.185C126.563 108.058 124.687 107.078 122.741 106.255Z" fill="#E5C3D1"/>
<path opacity="0.4" d="M66.9109 172.175C60.951 169.563 55.1804 166.539 49.6409 163.125L49.4109 162.985C42.9409 159.075 36.2609 154.985 30.6609 149.775C27.1874 146.542 24.7659 142.341 23.7109 137.715C22.3083 130.686 23.442 123.387 26.9109 117.115C29.968 111.441 34.4164 106.636 39.8387 103.152C45.261 99.6675 51.4795 97.6177 57.9109 97.1947C65.4209 96.7747 72.9109 98.6447 80.0809 100.455C83.0109 101.185 86.0809 101.955 89.0809 102.545C92.0809 103.135 95.2209 103.615 98.2409 104.065C107.051 105.375 116.161 106.735 123.721 111.555C133.561 117.835 139.531 129.695 138.911 141.755C138.331 153.295 131.731 164.585 121.711 171.215C110.171 178.835 94.2109 180.605 77.9209 176.065C74.1671 175.018 70.4887 173.719 66.9109 172.175ZM24.2009 137.605C25.2333 142.139 27.6062 146.257 31.0109 149.425C36.5709 154.655 43.2309 158.685 49.6809 162.575L49.9109 162.715C60.4809 169.115 69.4109 173.205 78.0209 175.605C94.1809 180.105 110.021 178.355 121.411 170.815C131.311 164.265 137.821 153.125 138.411 141.735C139.021 129.835 133.141 118.155 123.411 111.965C115.941 107.195 106.881 105.845 98.1209 104.535C95.1209 104.085 91.9609 103.625 88.9309 103.015C85.9009 102.405 82.9309 101.655 79.9309 100.925C72.7609 99.1147 65.3509 97.2547 57.9309 97.6747C51.5826 98.0911 45.4441 100.114 40.0917 103.553C34.7392 106.991 30.3483 111.734 27.3309 117.335C23.9109 123.504 22.7911 130.687 24.1709 137.605H24.2009Z" fill="#E5C3D1"/>
<path opacity="0.4" d="M68.8109 167.435C63.6333 165.165 58.6211 162.535 53.8109 159.565L53.6109 159.445C47.9909 156.045 42.1809 152.535 37.3109 147.955C34.2829 145.14 32.1744 141.477 31.2609 137.445C30.0339 131.327 31.0191 124.973 34.0409 119.515C36.7038 114.575 40.5787 110.392 45.3016 107.361C50.0246 104.33 55.4406 102.548 61.0409 102.185C67.5809 101.815 74.0409 103.445 80.3209 105.015C82.8709 105.655 85.5009 106.325 88.1009 106.835C90.7009 107.345 93.4409 107.765 96.1009 108.155C103.761 109.305 111.691 110.485 118.261 114.675C122.544 117.54 126.008 121.47 128.312 126.08C130.616 130.689 131.681 135.819 131.401 140.965C131.042 146.104 129.502 151.092 126.9 155.539C124.298 159.987 120.705 163.773 116.401 166.605C106.401 173.235 92.4809 174.775 78.3109 170.825C75.0721 169.908 71.8983 168.775 68.8109 167.435ZM113.571 112.795C108.071 110.445 101.931 109.525 95.9509 108.635C93.3109 108.245 90.5909 107.835 87.9509 107.305C85.3109 106.775 82.7009 106.125 80.1409 105.485C73.9109 103.965 67.4809 102.305 61.0209 102.665C55.5059 103.025 50.173 104.782 45.5235 107.77C40.8739 110.757 37.0603 114.878 34.4409 119.745C31.4713 125.101 30.5003 131.339 31.7009 137.345C32.5966 141.28 34.6559 144.855 37.6109 147.605C42.4409 152.145 48.2309 155.605 53.8309 159.035L54.0309 159.155C63.2209 164.715 71.0309 168.275 78.4709 170.355C92.4709 174.265 106.251 172.755 116.171 166.195C120.4 163.403 123.929 159.675 126.486 155.3C129.042 150.925 130.556 146.02 130.911 140.965C131.178 135.898 130.119 130.849 127.839 126.316C125.56 121.782 122.138 117.922 117.911 115.115C116.53 114.224 115.078 113.448 113.571 112.795Z" fill="#E5C3D1"/>
<path opacity="0.4" d="M70.6809 162.695C66.2727 160.751 62.0056 158.503 57.9109 155.965L57.7409 155.865C52.9609 152.975 48.0209 149.985 43.8809 146.095C41.3058 143.694 39.5086 140.576 38.7209 137.145C37.701 131.963 38.5401 126.588 41.0909 121.965C43.3612 117.759 46.6629 114.199 50.6859 111.619C54.709 109.039 59.3216 107.524 64.0909 107.215C69.6509 106.905 75.1609 108.285 80.4809 109.625C82.6509 110.165 84.8909 110.735 87.1009 111.175C89.3109 111.615 91.6309 111.955 93.8709 112.295C100.381 113.295 107.121 114.295 112.711 117.835C116.351 120.269 119.296 123.607 121.259 127.521C123.222 131.435 124.136 135.792 123.911 140.165C123.606 144.532 122.299 148.77 120.091 152.551C117.884 156.332 114.835 159.553 111.181 161.965C102.651 167.605 90.8409 168.965 78.7809 165.565C76.0218 164.784 73.3162 163.825 70.6809 162.695ZM108.681 116.265C104.011 114.265 98.7909 113.485 93.6809 112.725C91.4409 112.395 89.1309 112.045 86.8909 111.605C84.6509 111.165 82.4309 110.605 80.2509 110.055C74.9609 108.725 69.4909 107.345 64.0109 107.655C59.3314 107.963 54.8067 109.454 50.8608 111.988C46.915 114.523 43.6772 118.017 41.4509 122.145C38.9335 126.693 38.108 131.986 39.1209 137.085C39.8761 140.418 41.6185 143.447 44.1209 145.775C48.2209 149.635 53.1209 152.615 57.8909 155.485L58.0709 155.595C65.8709 160.315 72.4709 163.335 78.8209 165.105C90.7409 168.425 102.411 167.105 110.821 161.575C114.416 159.204 117.416 156.037 119.587 152.318C121.759 148.6 123.043 144.43 123.341 140.135C123.57 135.839 122.675 131.557 120.747 127.712C118.818 123.867 115.921 120.59 112.341 118.205C111.192 117.456 109.981 116.807 108.721 116.265H108.681Z" fill="#E5C3D1"/>
<path opacity="0.4" d="M72.0309 159.265C68.1935 157.582 64.4779 155.634 60.9109 153.435L60.7609 153.345C56.5909 150.825 52.2809 148.215 48.6609 144.815C46.4104 142.718 44.8425 139.994 44.1609 136.995C43.2432 132.449 43.9697 127.725 46.2109 123.665C48.1866 119.993 51.0632 116.884 54.5704 114.629C58.0776 112.374 62.1004 111.048 66.2609 110.775C71.1109 110.505 75.9209 111.715 80.5709 112.885C82.4609 113.355 84.4109 113.885 86.3309 114.225C88.2509 114.565 90.3309 114.915 92.2409 115.225C97.9309 116.075 103.811 116.955 108.691 120.065C111.885 122.188 114.471 125.106 116.194 128.533C117.918 131.959 118.72 135.775 118.521 139.605C118.256 143.424 117.114 147.13 115.184 150.436C113.254 153.742 110.587 156.558 107.391 158.665C99.9409 163.585 89.6309 164.735 79.1109 161.805C76.6966 161.118 74.3313 160.269 72.0309 159.265ZM105.221 118.765C101.151 117.025 96.6009 116.345 92.2209 115.685C90.2209 115.395 88.2209 115.095 86.2909 114.685C84.3609 114.275 82.4009 113.805 80.5009 113.325C75.8909 112.165 71.1209 110.975 66.3409 111.235C62.2624 111.503 58.3188 112.802 54.8801 115.011C51.4413 117.22 48.62 120.267 46.6809 123.865C44.502 127.827 43.7936 132.431 44.6809 136.865C45.3406 139.769 46.86 142.407 49.0409 144.435C52.6209 147.795 56.9109 150.435 61.0409 152.905L61.1909 152.995C66.8148 156.576 72.9054 159.366 79.2909 161.285C89.6709 164.185 99.8409 163.065 107.181 158.205C110.313 156.142 112.927 153.384 114.819 150.145C116.711 146.907 117.831 143.276 118.091 139.535C118.288 135.789 117.505 132.056 115.82 128.705C114.135 125.354 111.605 122.5 108.481 120.425C107.443 119.781 106.352 119.226 105.221 118.765Z" fill="#E5C3D1"/>
<path opacity="0.4" d="M73.3809 155.845C70.0982 154.402 66.9204 152.731 63.8709 150.845L63.7409 150.775C60.0507 148.715 56.5882 146.271 53.4109 143.485C51.4821 141.692 50.1371 139.361 49.5509 136.795C48.776 132.902 49.403 128.86 51.3209 125.385C53.011 122.246 55.4721 119.59 58.4725 117.665C61.4728 115.741 64.9136 114.612 68.4709 114.385C72.6209 114.155 76.7209 115.185 80.7009 116.175C82.3109 116.585 83.9709 117.005 85.6209 117.325C87.2709 117.645 88.9909 117.915 90.6209 118.165C95.4709 118.885 100.501 119.635 104.621 122.305C107.354 124.119 109.567 126.614 111.042 129.544C112.517 132.474 113.202 135.739 113.031 139.015C112.804 142.278 111.828 145.445 110.178 148.27C108.529 151.095 106.251 153.503 103.521 155.305C97.1409 159.515 88.3309 160.495 79.3409 157.995C77.3095 157.409 75.3185 156.691 73.3809 155.845ZM50.0209 136.705C50.587 139.176 51.8831 141.42 53.7409 143.145C56.8948 145.907 60.3303 148.33 63.9909 150.375L64.1109 150.445C68.9135 153.499 74.1118 155.881 79.5609 157.525C88.4209 159.995 97.0809 159.035 103.341 154.905C106.01 153.144 108.238 150.792 109.851 148.031C111.464 145.27 112.419 142.175 112.641 138.985C112.806 135.795 112.139 132.617 110.705 129.762C109.271 126.908 107.119 124.476 104.461 122.705C100.371 120.095 95.3909 119.355 90.5809 118.635C88.9109 118.395 87.1909 118.135 85.5209 117.805C83.8509 117.475 82.1909 117.055 80.5809 116.645C76.6409 115.645 72.5809 114.645 68.5009 114.865C65.0259 115.092 61.6658 116.199 58.7359 118.081C55.806 119.963 53.4024 122.559 51.7509 125.625C49.881 128.997 49.268 132.923 50.0209 136.705Z" fill="#E5C3D1"/>
<path opacity="0.4" d="M74.6309 152.675C71.8686 151.469 69.1952 150.069 66.6309 148.485L66.5209 148.415C63.4142 146.682 60.4982 144.627 57.8209 142.285C56.1951 140.77 55.0626 138.802 54.5709 136.635C53.9006 133.338 54.4252 129.91 56.0509 126.965C57.4765 124.318 59.5513 122.077 62.0807 120.452C64.6101 118.827 67.5109 117.871 70.5109 117.675C74.0109 117.475 77.5109 118.345 80.8109 119.185C82.1709 119.525 83.5709 119.875 84.9509 120.185C86.3309 120.495 87.7909 120.675 89.1909 120.885C93.2809 121.495 97.5109 122.125 101.041 124.375C103.346 125.907 105.211 128.013 106.455 130.485C107.698 132.957 108.276 135.711 108.131 138.475C107.943 141.226 107.124 143.896 105.736 146.279C104.349 148.662 102.431 150.693 100.131 152.215C94.7609 155.765 87.3309 156.585 79.7609 154.475C78.0122 153.991 76.2982 153.39 74.6309 152.675ZM98.4809 123.585C95.4677 122.453 92.3222 121.71 89.1209 121.375C87.7109 121.165 86.2609 120.945 84.8609 120.665C83.4609 120.385 82.0609 120.035 80.6909 119.665C77.3809 118.835 73.9609 117.975 70.5409 118.165C67.6269 118.351 64.8081 119.275 62.3489 120.849C59.8896 122.424 57.8705 124.597 56.4809 127.165C54.9111 129.995 54.3972 133.291 55.0309 136.465C55.4855 138.571 56.5702 140.489 58.1409 141.965C60.7964 144.261 63.6855 146.272 66.7609 147.965L66.8709 148.035C70.9115 150.604 75.2856 152.606 79.8709 153.985C87.3109 156.055 94.5909 155.255 99.8709 151.785C102.112 150.306 103.983 148.33 105.337 146.012C106.691 143.693 107.493 141.093 107.681 138.415C107.821 135.736 107.261 133.067 106.057 130.67C104.852 128.273 103.044 126.231 100.811 124.745C100.064 124.3 99.2855 123.912 98.4809 123.585Z" fill="#E5C3D1"/>
<path opacity="0.4" d="M75.9109 149.525C73.6656 148.538 71.4906 147.398 69.4009 146.115L69.3109 146.055C66.7814 144.642 64.4083 142.966 62.2309 141.055C60.9034 139.82 59.9797 138.213 59.5809 136.445C59.047 133.767 59.4755 130.987 60.7909 128.595C61.9535 126.437 63.6454 124.611 65.7078 123.286C67.7701 121.962 70.1352 121.184 72.5809 121.025C75.4038 121.02 78.2116 121.438 80.9109 122.265C82.0109 122.545 83.1509 122.825 84.2709 123.055C85.3909 123.285 86.5709 123.455 87.7109 123.625C91.0409 124.115 94.4809 124.625 97.3509 126.465C99.2333 127.713 100.758 129.429 101.775 131.446C102.792 133.462 103.266 135.709 103.151 137.965C102.994 140.207 102.323 142.383 101.189 144.324C100.054 146.265 98.4879 147.918 96.6109 149.155C92.2409 152.045 86.1909 152.725 80.0209 151.005C78.6205 150.6 77.2476 150.106 75.9109 149.525ZM60.0209 136.355C60.399 138.028 61.2739 139.548 62.5309 140.715C64.6836 142.601 67.03 144.253 69.5309 145.645H69.6209C72.8909 147.733 76.4346 149.359 80.1509 150.475C86.1509 152.165 92.0909 151.475 96.3509 148.695C98.1524 147.506 99.6584 145.921 100.754 144.062C101.849 142.202 102.505 140.117 102.671 137.965C102.789 135.791 102.339 133.624 101.364 131.677C100.389 129.73 98.9227 128.072 97.1109 126.865C94.3309 125.095 90.9409 124.585 87.6609 124.095C86.5109 123.925 85.3309 123.755 84.1909 123.525C83.0509 123.295 81.9209 123.015 80.8109 122.735C78.141 121.917 75.3632 121.506 72.5709 121.515C70.21 121.674 67.9279 122.428 65.9378 123.709C63.9477 124.989 62.3146 126.752 61.1909 128.835C59.9244 131.124 59.5099 133.789 60.0209 136.355Z" fill="#E5C3D1"/>
</g>
<path d="M97.6009 150.735C99.2909 141.975 101.071 132.985 105.801 125.415C110.531 117.845 118.951 111.905 127.801 112.725C130.451 112.965 133.241 113.725 135.681 112.725C137.771 111.825 139.071 109.725 140.301 107.865C143.999 102.092 148.089 96.5787 152.541 91.3647C155.301 88.1347 158.891 84.7347 163.111 85.2347C164.452 85.4657 165.722 86.0003 166.824 86.7975C167.926 87.5948 168.832 88.6337 169.471 89.8347C170.733 92.2452 171.533 94.8702 171.831 97.5747C172.131 99.4447 172.501 101.575 174.081 102.575C176.301 104.025 179.301 102.315 180.831 100.155C182.361 97.9947 183.241 95.3047 185.281 93.6247C188.181 91.2347 192.761 91.7247 195.661 94.1047C198.561 96.4847 199.941 100.345 200.151 104.105C200.361 107.865 199.531 111.565 198.711 115.235C194.838 132.568 190.961 149.901 187.081 167.235C157.481 160.965 127.481 155.585 97.6009 150.735Z" fill="#EF737E"/>
<g opacity="0.4">
<path opacity="0.4" d="M110.841 166.165C102.507 162.518 94.4371 158.295 86.6909 153.525L86.3709 153.325C77.3709 147.865 67.9909 142.215 60.1709 134.855C55.3208 130.352 51.9434 124.489 50.4809 118.035C48.4209 108.895 50.0109 98.6847 54.9509 89.2947C59.2173 81.3737 65.4261 74.6664 72.9946 69.802C80.5631 64.9376 89.2434 62.0757 98.2209 61.4847C108.711 60.9047 119.121 63.4847 129.221 66.0447C133.321 67.0447 137.561 68.1447 141.741 68.9747C145.921 69.8047 150.331 70.4647 154.571 71.0947C166.881 72.9347 179.571 74.8247 190.161 81.5647C203.891 90.3247 212.221 106.875 211.361 123.715C210.541 139.825 201.361 155.575 187.361 164.835C171.251 175.475 148.961 177.945 126.211 171.605C120.971 170.138 115.836 168.32 110.841 166.165ZM182.841 78.2847C173.971 74.4847 164.081 73.0047 154.461 71.5747C150.221 70.9447 145.831 70.2847 141.611 69.4447C137.391 68.6047 133.171 67.5447 129.061 66.5147C119.061 63.9947 108.661 61.3847 98.2409 61.9647C89.3457 62.551 80.7453 65.3876 73.2467 70.2083C65.748 75.029 59.597 81.6757 55.3709 89.5247C50.4909 98.8147 48.9109 108.905 50.9109 117.965C52.3532 124.324 55.6818 130.099 60.4609 134.535C68.2409 141.855 77.5609 147.535 86.5809 152.945L86.9009 153.145C101.691 162.085 114.201 167.815 126.251 171.145C148.861 177.445 171.011 175.005 187.001 164.425C200.871 155.265 210.001 139.645 210.811 123.685C211.661 107.015 203.421 90.6847 189.811 81.9647C187.592 80.5549 185.265 79.3244 182.851 78.2847H182.841Z" fill="#E5C3D1"/>
<path opacity="0.4" d="M111.911 163.555C104.005 160.09 96.3502 156.081 89.0009 151.555L88.6909 151.365C80.1209 146.185 71.2609 140.825 63.8409 133.845C59.2377 129.556 56.032 123.981 54.6409 117.845C52.6909 109.165 54.2009 99.4847 58.8809 90.5747C62.9324 83.0712 68.822 76.7186 75.998 72.1118C83.174 67.505 91.4018 64.7947 99.9109 64.2347C109.911 63.6847 119.741 66.1647 129.291 68.5547C133.181 69.5547 137.201 70.5547 141.171 71.3347C145.141 72.1147 149.321 72.7547 153.341 73.3347C165.021 75.0747 177.101 76.8747 187.111 83.2547C200.111 91.5747 208.041 107.255 207.221 123.255C206.451 138.545 197.711 153.495 184.431 162.255C169.151 172.365 148.001 174.705 126.431 168.695C121.483 167.304 116.632 165.587 111.911 163.555ZM180.221 80.1947C171.811 76.5847 162.431 75.1947 153.301 73.8247C149.301 73.2247 145.121 72.6047 141.111 71.8247C137.101 71.0447 133.111 70.0247 129.211 69.0447C119.651 66.6347 109.811 64.1647 99.9109 64.7147C91.478 65.2706 83.3246 67.9601 76.216 72.5307C69.1073 77.1013 63.2765 83.4031 59.2709 90.8447C54.6409 99.6547 53.1509 109.225 55.0709 117.785C56.4451 123.815 59.6019 129.292 64.1309 133.505C71.5109 140.445 80.3509 145.795 88.9109 150.965L89.2209 151.155C103.221 159.635 115.111 165.075 126.541 168.255C147.991 174.255 169.001 171.915 184.171 161.885C197.321 153.195 205.971 138.385 206.741 123.245C207.551 107.435 199.741 91.9047 186.851 83.6847C184.728 82.3388 182.497 81.1715 180.181 80.1947H180.221Z" fill="#E5C3D1"/>
<path opacity="0.4" d="M113.431 159.605C106.184 156.429 99.1674 152.754 92.4309 148.605L92.1509 148.435C84.2809 143.675 76.1509 138.755 69.3309 132.345C65.1088 128.415 62.1649 123.308 60.8809 117.685C59.0909 109.685 60.4709 100.815 64.7809 92.6847C68.4986 85.7838 73.9083 79.9402 80.5024 75.7021C87.0966 71.464 94.6592 68.9702 102.481 68.4547C111.621 67.9447 120.691 70.2247 129.481 72.4547C133.051 73.3547 136.741 74.2747 140.381 75.0047C144.021 75.7347 147.861 76.3047 151.551 76.8547C162.271 78.4547 173.361 80.1047 182.551 85.9747C194.551 93.6047 201.771 107.975 201.031 122.695C200.311 136.695 192.291 150.465 180.101 158.525C166.101 167.805 146.651 169.955 126.821 164.435C122.254 163.127 117.781 161.514 113.431 159.605ZM61.3209 117.605C62.5935 123.114 65.488 128.116 69.6309 131.965C76.4109 138.335 84.5209 143.245 92.3709 147.965L92.6509 148.135C105.531 155.965 116.411 160.965 126.911 163.885C146.601 169.365 165.911 167.235 179.791 158.035C191.861 150.035 199.791 136.475 200.511 122.585C201.251 108.075 194.081 93.8347 182.251 86.2847C173.141 80.4747 162.111 78.8247 151.441 77.2847C147.751 76.7347 143.931 76.1747 140.251 75.4347C136.571 74.6947 132.911 73.7347 129.311 72.8347C120.581 70.6347 111.551 68.3747 102.481 68.8347C94.7383 69.3478 87.2529 71.8192 80.7269 76.0171C74.2009 80.215 68.8482 86.0018 65.1709 92.8347C60.9109 100.965 59.5609 109.715 61.3209 117.565V117.605Z" fill="#E5C3D1"/>
<path opacity="0.4" d="M114.911 155.965C108.259 153.048 101.816 149.673 95.6309 145.865L95.3709 145.715C88.1609 141.345 80.7009 136.835 74.4609 130.965C70.5873 127.364 67.8869 122.681 66.7109 117.525C65.0709 110.215 66.3309 102.055 70.2809 94.5247C73.6867 88.1935 78.6444 82.8308 84.6891 78.9391C90.7338 75.0474 97.6677 72.7543 104.841 72.2747C113.221 71.8147 121.531 73.9047 129.561 75.9247C132.841 76.7447 136.221 77.5947 139.561 78.2547C142.901 78.9147 146.411 79.4447 149.791 79.9547C159.621 81.4147 169.791 82.9547 178.211 88.3047C189.211 95.3047 195.841 108.535 195.161 121.985C194.501 134.865 187.161 147.455 175.961 154.845C163.091 163.345 145.291 165.325 127.121 160.255C122.96 159.097 118.881 157.664 114.911 155.965ZM172.381 85.8247C165.311 82.8247 157.381 81.6247 149.741 80.4747C146.351 79.9747 142.861 79.4747 139.481 78.7747C136.101 78.0747 132.741 77.2647 129.481 76.4347C121.481 74.4347 113.201 72.3447 104.891 72.8147C97.7966 73.2816 90.9378 75.5459 84.96 79.3946C78.9823 83.2434 74.0822 88.5499 70.7209 94.8147C66.8209 102.215 65.5709 110.255 67.1909 117.455C68.3467 122.518 70.9981 127.117 74.8009 130.655C81.0009 136.495 88.4409 140.995 95.6309 145.335L95.8909 145.495C107.691 152.635 117.671 157.205 127.281 159.885C145.281 164.885 162.981 162.965 175.731 154.535C186.791 147.225 194.061 134.775 194.731 122.055C195.411 108.765 188.851 95.7147 178.011 88.8047C176.213 87.6422 174.324 86.6289 172.361 85.7747L172.381 85.8247Z" fill="#E5C3D1"/>
<path opacity="0.4" d="M116.551 151.695C110.593 149.097 104.823 146.09 99.2809 142.695L99.0509 142.555C92.5809 138.645 85.9009 134.555 80.3009 129.335C76.8085 126.11 74.3691 121.907 73.3009 117.275C71.9035 110.246 73.037 102.949 76.5009 96.6747C79.558 91.0006 84.0064 86.1961 89.4287 82.7118C94.851 79.2276 101.069 77.1778 107.501 76.7547C115.021 76.3347 122.501 78.2047 129.671 80.0147C132.601 80.7547 135.671 81.5147 138.671 82.1147C141.671 82.7147 144.811 83.1747 147.841 83.6247C156.651 84.9447 165.761 86.2947 173.311 91.1247C183.161 97.4047 189.121 109.255 188.511 121.325C187.921 132.865 181.331 144.155 171.301 150.775C159.761 158.405 143.811 160.175 127.521 155.635C123.781 154.567 120.116 153.251 116.551 151.695ZM73.8209 117.135C74.8538 121.672 77.2264 125.793 80.6309 128.965C86.1909 134.195 92.8509 138.225 99.3009 142.125L99.5309 142.265C110.101 148.655 119.041 152.755 127.651 155.155C143.801 159.655 159.651 157.905 171.031 150.355C180.941 143.815 187.451 132.665 188.031 121.275C188.631 109.385 182.761 97.6947 173.031 91.5047C165.551 86.7447 156.501 85.3947 147.741 84.0847C144.741 83.6347 141.571 83.1647 138.551 82.5647C135.531 81.9647 132.551 81.2047 129.551 80.4647C122.381 78.6647 114.971 76.8047 107.551 77.2147C101.209 77.636 95.0778 79.6598 89.7312 83.0965C84.3846 86.5332 79.9976 91.2704 76.9809 96.8647C73.5642 103.035 72.4446 110.217 73.8209 117.135Z" fill="#E5C3D1"/>
<path opacity="0.4" d="M118.431 146.965C113.255 144.694 108.243 142.068 103.431 139.105L103.211 138.965C97.5809 135.565 91.7709 132.045 86.9009 127.465C83.8969 124.643 81.8071 120.985 80.9009 116.965C79.6814 110.846 80.6699 104.493 83.6909 99.0347C86.3518 94.0921 90.2259 89.9074 94.9491 86.8741C99.6723 83.8408 105.089 82.0584 110.691 81.6947C117.231 81.3347 123.691 82.9647 129.971 84.5347C132.521 85.1747 135.151 85.8347 137.751 86.3547C140.351 86.8747 143.091 87.2847 145.751 87.6747C153.421 88.8147 161.341 89.9947 167.911 94.1947C172.208 97.0495 175.688 100.974 178.007 105.582C180.327 110.19 181.407 115.323 181.141 120.475C180.781 125.613 179.241 130.599 176.639 135.044C174.037 139.49 170.445 143.275 166.141 146.105C156.141 152.745 142.221 154.285 128.051 150.335C124.771 149.432 121.557 148.306 118.431 146.965ZM163.201 92.3347C157.691 89.9747 151.551 89.0547 145.571 88.1647C142.941 87.7747 140.211 87.3647 137.571 86.8447C134.931 86.3247 132.321 85.6647 129.771 85.0247C123.541 83.4547 117.091 81.8347 110.631 82.1947C105.119 82.5586 99.7903 84.3156 95.1432 87.3011C90.496 90.2867 86.6829 94.4031 84.0609 99.2647C81.0972 104.624 80.1265 110.859 81.3209 116.865C82.2143 120.801 84.2739 124.377 87.2309 127.125C92.0609 131.675 97.8509 135.175 103.461 138.555L103.651 138.675C112.841 144.235 120.651 147.795 128.091 149.885C142.091 153.795 155.871 152.275 165.791 145.715C170.028 142.922 173.563 139.191 176.123 134.81C178.683 130.429 180.198 125.516 180.551 120.455C180.813 115.388 179.752 110.341 177.472 105.809C175.193 101.277 171.774 97.4155 167.551 94.6047C166.165 93.7274 164.711 92.9648 163.201 92.3247V92.3347Z" fill="#E5C3D1"/>
<path opacity="0.4" d="M120.301 142.215C115.894 140.284 111.627 138.049 107.531 135.525L107.361 135.425C102.581 132.535 97.6409 129.545 93.5009 125.655C90.9253 123.26 89.1307 120.144 88.3509 116.715C87.3072 111.505 88.1471 106.093 90.7209 101.445C92.9883 97.2367 96.2892 93.6749 100.313 91.0945C104.337 88.5141 108.951 87 113.721 86.6947C119.281 86.3847 124.791 87.7747 130.111 89.1047C132.281 89.6547 134.521 90.2147 136.731 90.6547C138.941 91.0947 141.261 91.4447 143.501 91.7747C150.011 92.7747 156.751 93.7747 162.341 97.3247C165.997 99.7541 168.957 103.093 170.932 107.014C172.906 110.934 173.826 115.301 173.601 119.685C173.295 124.056 171.986 128.297 169.777 132.081C167.568 135.865 164.517 139.09 160.861 141.505C152.321 147.145 140.511 148.505 128.461 145.095C125.678 144.323 122.952 143.361 120.301 142.215ZM158.301 95.7847C153.631 93.7847 148.421 93.0047 143.301 92.2547C141.061 91.9147 138.741 91.5747 136.501 91.1247C134.261 90.6747 132.041 90.1247 129.871 89.5747C124.581 88.2447 119.111 86.8747 113.621 87.1747C108.94 87.4829 104.414 88.9751 100.468 91.5113C96.5223 94.0476 93.2852 97.5448 91.0609 101.675C88.5426 106.219 87.7204 111.51 88.7409 116.605C89.4942 119.942 91.2368 122.974 93.7409 125.305C97.8409 129.165 102.741 132.135 107.521 135.015L107.691 135.115C115.501 139.835 122.091 142.865 128.451 144.635C140.361 147.955 152.031 146.635 160.451 141.095C164.046 138.726 167.047 135.561 169.221 131.844C171.394 128.127 172.681 123.96 172.981 119.665C173.206 115.368 172.311 111.086 170.383 107.24C168.454 103.394 165.559 100.115 161.981 97.7247C160.821 96.9829 159.604 96.3342 158.341 95.7847H158.301Z" fill="#E5C3D1"/>
<path opacity="0.4" d="M121.651 138.795C117.809 137.108 114.087 135.16 110.511 132.965L110.361 132.875C106.191 130.355 101.881 127.745 98.2709 124.345C96.018 122.253 94.4465 119.532 93.7609 116.535C92.8539 111.983 93.5872 107.257 95.8309 103.195C97.8042 99.5324 100.674 96.4301 104.171 94.1777C107.669 91.9252 111.68 90.5962 115.831 90.3147C120.691 90.0447 125.491 91.2447 130.141 92.4147C132.031 92.8947 133.981 93.4147 135.911 93.7647C137.841 94.1147 139.911 94.4547 141.811 94.7647C147.501 95.6047 153.381 96.4847 158.271 99.6047C161.463 101.73 164.047 104.649 165.77 108.075C167.493 111.5 168.297 115.315 168.101 119.145C167.825 122.953 166.678 126.646 164.748 129.941C162.819 133.235 160.158 136.042 156.971 138.145C149.511 143.075 139.201 144.215 128.681 141.285C126.286 140.609 123.937 139.777 121.651 138.795ZM154.841 98.2947C150.771 96.5447 146.221 95.8647 141.791 95.2047C139.841 94.9147 137.791 94.6147 135.861 94.2047C133.931 93.7947 131.971 93.3247 130.081 92.8547C125.461 91.6947 120.691 90.4947 115.911 90.7647C111.835 91.0323 107.894 92.3306 104.457 94.538C101.02 96.7453 98.1996 99.7894 96.2609 103.385C94.0786 107.345 93.3701 111.951 94.2609 116.385C94.9139 119.287 96.4222 121.928 98.5909 123.965C102.171 127.335 106.461 129.965 110.591 132.435L110.741 132.525C116.367 136.105 122.457 138.898 128.841 140.825C139.231 143.715 149.391 142.595 156.731 137.745C159.863 135.679 162.478 132.919 164.372 129.68C166.265 126.44 167.388 122.808 167.651 119.065C167.841 115.323 167.058 111.597 165.377 108.249C163.696 104.901 161.175 102.047 158.061 99.9647C157.034 99.3219 155.958 98.7634 154.841 98.2947Z" fill="#E5C3D1"/>
<path opacity="0.4" d="M123.011 135.365C119.725 133.922 116.544 132.252 113.491 130.365L113.361 130.285C109.672 128.226 106.21 125.786 103.031 123.005C101.107 121.208 99.7635 118.879 99.1709 116.315C98.4015 112.444 99.0174 108.427 100.911 104.965C102.604 101.831 105.064 99.1777 108.062 97.2539C111.06 95.33 114.497 94.1983 118.051 93.9647C122.201 93.7347 126.311 94.7647 130.281 95.7647C131.891 96.1647 133.561 96.5847 135.201 96.9147C136.841 97.2447 138.571 97.4947 140.201 97.7447C145.061 98.4747 150.081 99.2147 154.261 101.885C156.989 103.704 159.199 106.2 160.673 109.129C162.147 112.058 162.836 115.32 162.671 118.595C162.442 121.859 161.464 125.026 159.813 127.851C158.162 130.676 155.882 133.083 153.151 134.885C146.781 139.105 137.961 140.085 128.971 137.575C126.937 136.971 124.946 136.233 123.011 135.365ZM99.6409 116.225C100.207 118.699 101.503 120.946 103.361 122.675C106.515 125.434 109.951 127.854 113.611 129.895L113.741 129.975C118.539 133.031 123.734 135.413 129.181 137.055C138.041 139.525 146.711 138.565 152.961 134.425C155.631 132.667 157.859 130.317 159.472 127.558C161.085 124.798 162.039 121.703 162.261 118.515C162.43 115.324 161.764 112.145 160.33 109.29C158.896 106.435 156.742 104.003 154.081 102.235C149.991 99.6247 145.021 98.8847 140.211 98.1647C138.541 97.9147 136.811 97.6547 135.141 97.3247C133.471 96.9947 131.821 96.5747 130.201 96.1747C126.271 95.1747 122.201 94.1747 118.121 94.3847C114.646 94.614 111.287 95.7214 108.357 97.6034C105.428 99.4853 103.024 102.08 101.371 105.145C99.506 108.519 98.8933 112.443 99.6409 116.225Z" fill="#E5C3D1"/>
<path opacity="0.4" d="M124.261 132.205C121.5 130.993 118.826 129.589 116.261 128.005L116.151 127.945C113.047 126.203 110.132 124.146 107.451 121.805C105.827 120.289 104.694 118.321 104.201 116.155C103.545 112.869 104.073 109.458 105.691 106.525C107.119 103.88 109.194 101.64 111.723 100.015C114.252 98.3905 117.152 97.4338 120.151 97.2347C123.651 97.0447 127.151 97.9147 130.451 98.7547C131.811 99.0947 133.211 99.4447 134.591 99.7547C135.971 100.065 137.431 100.255 138.831 100.465C142.921 101.075 147.161 101.695 150.681 103.945C152.981 105.482 154.843 107.588 156.085 110.06C157.328 112.531 157.909 115.282 157.771 118.045C157.583 120.796 156.764 123.466 155.376 125.849C153.989 128.232 152.071 130.263 149.771 131.785C144.391 135.335 136.971 136.165 129.391 134.055C127.642 133.551 125.929 132.933 124.261 132.205ZM148.101 103.105C145.088 101.973 141.942 101.23 138.741 100.895C137.341 100.685 135.881 100.475 134.481 100.195C133.081 99.9147 131.681 99.5547 130.321 99.1947C127.011 98.3647 123.591 97.5047 120.161 97.6947C117.247 97.8824 114.429 98.8065 111.97 100.381C109.511 101.955 107.491 104.127 106.101 106.695C104.529 109.524 104.015 112.821 104.651 115.995C105.124 118.065 106.208 119.946 107.761 121.395C110.417 123.71 113.306 125.745 116.381 127.465L116.491 127.535C120.527 130.123 124.902 132.143 129.491 133.535C136.931 135.615 144.221 134.805 149.491 131.335C151.728 129.854 153.594 127.878 154.943 125.559C156.293 123.24 157.089 120.641 157.271 117.965C157.412 115.286 156.853 112.616 155.648 110.219C154.443 107.822 152.635 105.78 150.401 104.295C149.667 103.838 148.898 103.44 148.101 103.105Z" fill="#E5C3D1"/>
<path opacity="0.4" d="M125.501 129.045C123.256 128.058 121.081 126.918 118.991 125.635H118.901C116.375 124.221 114.006 122.545 111.831 120.635C110.489 119.385 109.561 117.756 109.171 115.965C108.636 113.286 109.068 110.505 110.391 108.115C111.553 105.958 113.243 104.131 115.303 102.805C117.364 101.48 119.726 100.698 122.171 100.535C125.011 100.525 127.836 100.943 130.551 101.775C131.651 102.045 132.791 102.335 133.911 102.555C135.031 102.775 136.211 102.955 137.351 103.125C140.681 103.625 144.121 104.125 146.991 105.965C148.868 107.214 150.388 108.93 151.401 110.945C152.415 112.959 152.887 115.203 152.771 117.455C152.616 119.699 151.945 121.877 150.811 123.82C149.676 125.762 148.109 127.417 146.231 128.655C141.861 131.545 135.811 132.215 129.651 130.495C128.236 130.106 126.85 129.621 125.501 129.045ZM109.641 115.875C110.02 117.552 110.899 119.076 112.161 120.245C114.316 122.124 116.662 123.773 119.161 125.165L119.251 125.225C122.525 127.312 126.072 128.937 129.791 130.055C135.791 131.735 141.721 131.055 145.981 128.275C147.794 127.078 149.308 125.479 150.404 123.602C151.5 121.726 152.149 119.622 152.301 117.455C152.415 115.287 151.962 113.127 150.987 111.187C150.012 109.248 148.549 107.596 146.741 106.395C143.961 104.615 140.571 104.115 137.291 103.625C136.151 103.455 134.971 103.275 133.831 103.045C132.691 102.815 131.551 102.535 130.441 102.255C127.774 101.441 124.999 101.033 122.211 101.045C119.849 101.201 117.566 101.954 115.574 103.232C113.582 104.51 111.947 106.273 110.821 108.355C109.554 110.644 109.14 113.309 109.651 115.875H109.641Z" fill="#E5C3D1"/>
</g>
<path d="M123.991 152.375C124.511 150.377 125.507 148.535 126.894 147.005C128.281 145.476 130.017 144.305 131.955 143.593C133.893 142.88 135.974 142.648 138.021 142.914C140.068 143.181 142.02 143.94 143.711 145.125C144.971 146.005 146.221 147.125 147.711 147.125C149.541 147.125 150.871 145.425 151.891 143.895C153.708 140.909 155.866 138.143 158.321 135.655C160.807 133.147 164.153 131.678 167.681 131.545C171.171 131.545 174.751 133.765 175.681 137.135C176.551 140.235 175.261 144.045 177.371 146.485C179.481 148.925 183.781 148.075 186.651 146.285C189.521 144.495 192.341 142.035 195.711 142.155C199.441 142.295 202.411 145.925 202.651 149.645C202.891 153.365 200.891 156.945 198.161 159.495C195.431 162.045 192.051 163.725 188.701 165.375C169.771 164.025 150.601 162.295 131.871 159.265C130.002 159.078 128.185 158.545 126.511 157.695C124.961 156.765 123.521 154.185 123.991 152.375Z" fill="#B892FF"/>
<path d="M13.8409 164.885C12.3309 161.225 10.7909 157.435 10.9209 153.485C11.0509 149.535 13.3309 145.365 17.1509 144.345C19.1509 143.815 21.4209 144.155 23.1509 143.055C25.8109 141.395 25.7609 137.565 27.1509 134.785C29.0809 131.075 33.8709 129.455 37.9409 130.415C42.0109 131.375 45.3109 134.475 47.4509 138.055C48.7009 140.155 49.6209 142.445 51.0609 144.415C52.5009 146.385 54.6109 148.065 57.0609 148.165C59.8109 148.275 62.1809 146.415 64.7209 145.355C66.7603 144.478 68.9814 144.107 71.195 144.274C73.4085 144.441 75.5489 145.141 77.4337 146.314C79.3185 147.486 80.8919 149.097 82.0197 151.009C83.1475 152.921 83.7963 155.078 83.9109 157.295C60.9109 159.085 36.6309 161.795 13.8409 164.885Z" fill="#B892FF"/>
<path d="M101.771 173.505C150.46 173.505 189.931 169.838 189.931 165.315C189.931 160.792 150.46 157.125 101.771 157.125C53.0815 157.125 13.6109 160.792 13.6109 165.315C13.6109 169.838 53.0815 173.505 101.771 173.505Z" fill="#FFC2E2"/>
<path d="M104.221 161.085L91.5509 163.795L90.0709 156.235L98.2109 152.875C98.2109 152.875 103.701 159.075 104.221 161.085Z" fill="#F79392"/>
<path d="M55.4909 161.625C55.8309 165.975 59.6109 167.745 64.1509 168.275C71.4509 169.135 80.6909 166.765 80.6909 166.765C80.6909 166.765 83.8009 167.055 85.2509 167.255C86.7355 167.322 88.2018 166.904 89.4272 166.063C90.6526 165.222 91.5702 164.004 92.0409 162.595C92.5078 161.108 92.5303 159.517 92.1058 158.018C91.6812 156.519 90.828 155.176 89.6509 154.155C89.0199 153.651 88.2912 153.283 87.5109 153.075C85.5109 152.545 82.8109 153.395 80.7909 153.395C78.5114 153.379 76.2504 152.984 74.1009 152.225C71.0657 151.469 67.9088 151.336 64.8209 151.835C59.8409 152.625 55.0009 155.185 55.4909 161.625Z" fill="#8B6FED"/>
<path d="M55.4909 161.625C55.8309 165.975 59.6109 167.745 64.1509 168.275C62.7235 167.209 61.4542 165.946 60.3809 164.525C59.6645 163.605 59.1426 162.549 58.8469 161.421C58.5513 160.294 58.488 159.118 58.6609 157.965C58.8878 156.965 59.3103 156.02 59.9041 155.184C60.498 154.348 61.2514 153.638 62.1209 153.095C62.9578 152.551 63.8666 152.127 64.8209 151.835C59.8409 152.625 55.0009 155.185 55.4909 161.625Z" fill="#FFE8E8"/>
<path d="M79.9909 155.905C80.5699 157.17 80.8854 158.539 80.918 159.93C80.9507 161.321 80.6999 162.704 80.1809 163.995" stroke="#FFE8E8" stroke-width="0.38" stroke-linecap="round" stroke-linejoin="round"/>
<path d="M76.9109 155.905C77.4899 157.17 77.8054 158.539 77.838 159.93C77.8707 161.321 77.6199 162.704 77.1009 163.995" stroke="#FFE8E8" stroke-width="0.38" stroke-linecap="round" stroke-linejoin="round"/>
<path d="M73.9109 155.905C74.4854 157.171 74.7984 158.54 74.831 159.93C74.8637 161.32 74.6153 162.703 74.1009 163.995" stroke="#FFE8E8" stroke-width="0.38" stroke-linecap="round" stroke-linejoin="round"/>
<path d="M65.0909 151.885C66.5789 154.427 67.3364 157.33 67.28 160.275C67.2235 163.22 66.3553 166.092 64.7709 168.575" stroke="#FFE8E8" stroke-width="0.38" stroke-linecap="round" stroke-linejoin="round"/>
<path d="M125.251 125.215C125.251 125.215 135.721 121.725 144.251 123.665C152.781 125.605 154.981 134.515 152.251 140.205C149.521 145.895 146.951 151.065 136.991 154.815C127.031 158.565 85.8109 160.115 85.8109 160.115C85.8109 160.115 46.8109 153.905 46.5209 137.885C46.2309 121.865 62.9109 123.015 62.9109 123.015C62.9109 123.015 104.441 134.645 125.251 125.215Z" fill="#7D82B8"/>
<path d="M66.9609 129.605C66.9609 129.605 79.6309 130.905 94.8809 142.275C110.131 153.645 112.881 154.815 112.881 154.815L106.421 163.735C106.421 163.735 67.4809 159.965 58.0409 151.455C48.6009 142.945 66.9609 129.605 66.9609 129.605Z" fill="#7D82B8"/>
<path d="M68.7709 130.905C68.7709 130.905 84.7709 135.035 96.3009 143.435C107.831 151.835 112.841 154.815 112.841 154.815" stroke="#FFC2E2" stroke-width="0.19" stroke-linecap="round" stroke-linejoin="round"/>
<path d="M100.031 145.865C107.351 142.465 114.661 139.065 122.031 135.865C128.351 133.095 134.881 130.425 141.771 130.025" stroke="#FFC2E2" stroke-width="0.19" stroke-linecap="round" stroke-linejoin="round"/>
<path d="M130.021 132.605C131.544 131.094 133.401 129.96 135.441 129.295" stroke="#FFC2E2" stroke-width="0.19" stroke-linecap="round" stroke-linejoin="round"/>
<path d="M74.3509 130.205C76.4708 131.35 78.3568 132.883 79.9109 134.725" stroke="#FFC2E2" stroke-width="0.19" stroke-linecap="round" stroke-linejoin="round"/>
<path d="M99.4909 130.905C99.6409 133.245 99.8009 135.595 99.9609 137.905C99.9517 138.63 100.105 139.347 100.411 140.005C100.521 140.314 100.733 140.578 101.011 140.753C101.289 140.929 101.617 141.006 101.945 140.973C102.272 140.939 102.578 140.797 102.815 140.569C103.052 140.341 103.205 140.04 103.251 139.715C103.361 139.175 103.381 138.621 103.311 138.075C103.118 135.468 102.924 132.858 102.731 130.245" stroke="#FFC2E2" stroke-width="0.19" stroke-linecap="round" stroke-linejoin="round"/>
<path d="M106.911 163.015L119.531 165.735L121.021 158.175L112.871 154.815C112.871 154.815 108.211 160.465 106.911 163.015Z" fill="#F79392"/>
<path d="M155.561 163.565C155.231 167.915 151.441 169.685 146.901 170.215C139.611 171.065 130.361 168.705 130.361 168.705C130.361 168.705 127.251 168.995 125.801 169.195C124.316 169.262 122.85 168.844 121.625 168.003C120.399 167.162 119.482 165.944 119.011 164.535C118.544 163.048 118.521 161.457 118.946 159.958C119.371 158.459 120.224 157.116 121.401 156.095C122.032 155.591 122.761 155.223 123.541 155.015C125.541 154.485 128.241 155.325 130.261 155.325C132.527 155.313 134.775 154.921 136.911 154.165C139.945 153.405 143.103 153.272 146.191 153.775C151.211 154.565 156.051 157.125 155.561 163.565Z" fill="#8B6FED"/>
<path d="M155.561 163.565C155.231 167.915 151.441 169.685 146.901 170.215C148.326 169.146 149.595 167.884 150.671 166.465C151.388 165.543 151.909 164.486 152.205 163.356C152.501 162.227 152.564 161.049 152.391 159.895C152.162 158.897 151.739 157.954 151.145 157.12C150.551 156.286 149.799 155.577 148.931 155.035C148.096 154.493 147.191 154.069 146.241 153.775C151.211 154.565 156.051 157.125 155.561 163.565Z" fill="#FFE8E8"/>
<path d="M131.061 157.845C130.482 159.116 130.17 160.493 130.145 161.889C130.119 163.286 130.38 164.673 130.911 165.965" stroke="#FFE8E8" stroke-width="0.38" stroke-linecap="round" stroke-linejoin="round"/>
<path d="M134.111 157.845C133.524 159.113 133.204 160.487 133.17 161.884C133.135 163.281 133.387 164.669 133.911 165.965" stroke="#FFE8E8" stroke-width="0.38" stroke-linecap="round" stroke-linejoin="round"/>
<path d="M137.171 157.845C136.592 159.108 136.276 160.476 136.243 161.865C136.211 163.254 136.462 164.636 136.981 165.925" stroke="#FFE8E8" stroke-width="0.38" stroke-linecap="round" stroke-linejoin="round"/>
<path d="M145.961 153.825C144.473 156.367 143.715 159.27 143.772 162.215C143.828 165.16 144.696 168.032 146.281 170.515" stroke="#FFE8E8" stroke-width="0.38" stroke-linecap="round" stroke-linejoin="round"/>
<path d="M129.321 67.5647C129.321 67.5647 129.181 67.8847 129.131 67.8847H124.401C124.457 65.6038 124.119 63.3304 123.401 61.1647C123.212 63.433 122.831 65.6811 122.261 67.8847H99.7909C101.601 62.5847 103.231 57.2947 105.151 52.0247C107.581 45.3647 110.151 38.6247 114.541 33.0247C115.538 31.8471 116.818 30.9422 118.261 30.3947C119.313 33.5824 119.801 36.9293 119.701 40.2847C119.641 42.1747 119.401 44.1147 120.001 45.9147C121.071 49.1247 124.441 50.9147 126.551 53.5447C128.046 55.4961 129.002 57.8069 129.321 60.2447C129.638 62.6744 129.638 65.135 129.321 67.5647Z" fill="#EF737E"/>
<path d="M100.911 40.1647L98.7509 69.5347H77.6109C77.0435 67.3199 76.6589 65.0624 76.4609 62.7847C75.5609 64.4347 75.7509 67.9947 75.8709 69.5347H71.0309C70.267 68.0071 69.8692 66.3226 69.8692 64.6147C69.8692 62.9067 70.267 61.2223 71.0309 59.6947C72.1409 57.2247 74.2809 55.4047 75.9609 53.3447C79.6809 48.7347 77.1409 41.0547 79.1309 35.7647C79.3309 35.2547 83.6009 25.5847 84.1309 25.7647L100.911 40.1647Z" fill="#EF737E"/>
<path d="M110.391 68.4747C110.391 68.4747 109.601 72.5347 101.971 73.4747C94.5009 74.4747 92.1609 69.1147 92.1609 69.1147C93.3386 66.0318 94.0432 62.7884 94.2509 59.4947C94.3809 58.3247 94.4209 57.4947 94.4409 57.2647V57.1847L107.381 56.7847H108.051L108.411 58.6447L110.391 68.4747Z" fill="#F79392"/>
<g style="mix-blend-mode:multiply" opacity="0.44">
<path d="M108.411 58.6647C108.141 59.1247 107.741 62.9647 102.261 63.6647C98.0109 64.2447 94.8409 60.5747 94.2609 59.4847C94.3909 58.3147 94.4309 57.4847 94.4509 57.2547C98.7031 58.4941 103.242 58.3257 107.391 56.7747H108.061L108.411 58.6647Z" fill="#EF737E"/>
</g>
<path d="M86.9609 49.0447C81.6109 50.6947 78.4709 43.5047 80.5009 40.5847C82.1709 38.1847 84.0509 39.2247 85.0309 40.0747C85.2749 40.2874 85.4991 40.5217 85.7009 40.7747L86.2609 44.4247L86.9609 49.0247V49.0447Z" fill="#F79392"/>
<path d="M81.9809 42.5247C82.7577 42.8759 83.4484 43.3925 84.0046 44.0385C84.5608 44.6846 84.9691 45.4444 85.2009 46.2647" stroke="#4A3059" stroke-width="0.29" stroke-linecap="round" stroke-linejoin="round"/>
<path d="M83.4109 43.5147C83.0423 43.8466 82.7893 44.2874 82.6886 44.773C82.5879 45.2586 82.6447 45.7637 82.8509 46.2147" stroke="#4A3059" stroke-width="0.29" stroke-linecap="round" stroke-linejoin="round"/>
<path d="M114.911 48.7547H114.851C114.583 48.7987 114.312 48.8221 114.041 48.8247C113.488 48.822 112.939 48.7377 112.411 48.5747L113.031 42.3247L113.211 40.5747C113.922 39.9203 114.755 39.4108 115.661 39.0747C116.327 38.8252 117.056 38.7937 117.741 38.9847C118.436 39.2247 119.028 39.6937 119.421 40.3147C121.051 42.7847 118.781 48.0247 114.911 48.7547Z" fill="#F79392"/>
<path d="M117.281 41.2547C116.677 41.87 116.216 42.6115 115.933 43.4258C115.649 44.2402 115.55 45.1072 115.641 45.9647" stroke="#4A3059" stroke-width="0.29" stroke-linecap="round" stroke-linejoin="round"/>
<path d="M116.311 42.6947C116.765 42.8708 117.154 43.1838 117.423 43.5905C117.692 43.9973 117.827 44.4775 117.811 44.9647" stroke="#4A3059" stroke-width="0.29" stroke-linecap="round" stroke-linejoin="round"/>
<path d="M115.581 38.9647C115.581 39.2347 115.581 39.5147 115.581 39.7847C115.581 40.8547 115.431 41.9747 115.271 43.1347L115.151 43.9147C115.151 44.1847 115.061 44.4447 115.011 44.7047C114.961 44.9647 114.911 45.2247 114.851 45.4947C114.632 46.5557 114.355 47.604 114.021 48.6347C113.781 49.3747 113.501 50.0947 113.201 50.8047C112.58 52.2884 111.777 53.6891 110.811 54.9747C109.795 56.4328 108.46 57.6401 106.907 58.5048C105.355 59.3694 103.625 59.8687 101.851 59.9647H101.171C100.984 59.9747 100.797 59.9747 100.611 59.9647H100.491C98.9669 59.9027 97.462 59.6024 96.0309 59.0747C93.9123 58.2789 92.0012 57.014 90.4409 55.3747C89.725 54.6323 89.0789 53.8256 88.5109 52.9647C87.7309 51.754 87.0616 50.4755 86.5109 49.1447C86.5165 49.1184 86.5165 49.0911 86.5109 49.0647C86.3709 48.7147 86.2409 48.3847 86.1109 48.0647C85.7821 47.1544 85.505 46.2263 85.2809 45.2847C84.8932 43.6436 84.6621 41.9695 84.5909 40.2847C84.2809 33.1847 86.7809 25.7947 93.4309 22.3947C94.4152 21.8871 95.4603 21.5074 96.5409 21.2647C97.7019 20.9995 98.89 20.872 100.081 20.8847C103.664 20.8691 107.14 22.1033 109.911 24.3747C114.261 28.0847 115.661 33.5747 115.581 38.9647Z" fill="#F79392"/>
<g opacity="0.35">
<g style="mix-blend-mode:multiply" opacity="0.33">
<path d="M115.261 43.3247C114.661 47.4647 113.261 51.9447 110.751 55.2247C109.772 55.0976 108.834 54.7505 108.008 54.2093C107.182 53.6682 106.49 52.947 105.982 52.1C105.475 51.253 105.166 50.3021 105.078 49.3186C104.991 48.3352 105.127 47.3446 105.477 46.4214C105.827 45.4981 106.381 44.666 107.099 43.9876C107.816 43.3091 108.678 42.8019 109.619 42.504C110.56 42.206 111.557 42.1251 112.534 42.2672C113.511 42.4094 114.443 42.7709 115.261 43.3247Z" fill="#F68BD0"/>
</g>
<g style="mix-blend-mode:multiply" opacity="0.33">
<path d="M97.2209 48.9047C97.2196 49.7635 97.0491 50.6137 96.7192 51.4067C96.3893 52.1996 95.9065 52.9199 95.2983 53.5262C94.6901 54.1326 93.9684 54.6132 93.1744 54.9407C92.3804 55.2681 91.5297 55.436 90.6709 55.4347H90.4209C89.704 54.6741 89.061 53.8471 88.5009 52.9647C87.717 51.7527 87.0475 50.4705 86.5009 49.1347C86.3509 48.7647 86.2109 48.3947 86.0709 48.0147C85.7456 47.105 85.4751 46.1767 85.2609 45.2347C85.4266 44.988 85.6105 44.7541 85.8109 44.5347C86.4226 43.8413 87.1752 43.2863 88.0184 42.9069C88.8617 42.5276 89.7762 42.3325 90.7009 42.3347C91.5733 42.341 92.4361 42.5176 93.2409 42.8547C93.4983 42.9592 93.7459 43.0863 93.9809 43.2347C94.9718 43.8114 95.7931 44.6393 96.3619 45.6348C96.9308 46.6303 97.227 47.7581 97.2209 48.9047Z" fill="#F68BD0"/>
</g>
</g>
<path d="M95.8409 42.2647C95.8032 42.5862 95.6403 42.8798 95.3876 43.0819C95.1349 43.2841 94.8127 43.3785 94.4909 43.3447C94.2513 43.3176 94.0252 43.2202 93.841 43.0646C93.6568 42.9091 93.5228 42.7025 93.4559 42.4708C93.3891 42.2392 93.3923 41.993 93.4653 41.7632C93.5383 41.5334 93.6777 41.3304 93.8659 41.1798C94.0542 41.0292 94.2828 40.9378 94.523 40.917C94.7632 40.8963 95.0042 40.9471 95.2155 41.0632C95.4268 41.1793 95.5989 41.3553 95.7102 41.5692C95.8216 41.783 95.867 42.0251 95.8409 42.2647Z" fill="#4A3059"/>
<path d="M107.911 42.0847C107.911 42.324 107.84 42.558 107.707 42.7569C107.574 42.9559 107.385 43.111 107.164 43.2026C106.943 43.2942 106.7 43.3181 106.465 43.2714C106.23 43.2248 106.015 43.1095 105.845 42.9403C105.676 42.7711 105.561 42.5555 105.514 42.3208C105.467 42.086 105.491 41.8427 105.583 41.6216C105.675 41.4005 105.83 41.2116 106.029 41.0786C106.228 40.9457 106.462 40.8747 106.701 40.8747C107.022 40.8747 107.33 41.0022 107.556 41.2291C107.783 41.456 107.911 41.7638 107.911 42.0847Z" fill="#4A3059"/>
<path d="M99.4509 47.3747C99.3442 47.5697 99.2474 47.77 99.1609 47.9747C99.0709 48.1547 99.0209 48.4247 99.1609 48.5147C99.3009 48.6047 99.5109 48.4147 99.7109 48.3447L100.331 48.0947C100.351 48.0785 100.375 48.0696 100.401 48.0696C100.426 48.0696 100.451 48.0785 100.471 48.0947C100.476 48.1056 100.479 48.1176 100.479 48.1297C100.479 48.1419 100.476 48.1538 100.471 48.1647L100.281 48.8447C100.277 48.8595 100.271 48.8734 100.262 48.8855C100.253 48.8976 100.241 48.9078 100.228 48.9153C100.215 48.9228 100.201 48.9275 100.186 48.9291C100.171 48.9308 100.155 48.9293 100.141 48.9247C100.126 48.9213 100.112 48.9149 100.1 48.9058C100.088 48.8968 100.078 48.8853 100.07 48.8722C100.063 48.859 100.058 48.8445 100.056 48.8294C100.055 48.8144 100.056 48.7992 100.061 48.7847L100.271 48.1047L100.411 48.2347L99.7809 48.4647L99.4609 48.5847C99.3985 48.6148 99.3301 48.6305 99.2609 48.6305C99.1916 48.6305 99.1232 48.6148 99.0609 48.5847C98.8509 48.3147 99.0009 48.0547 99.0609 47.8547C99.1209 47.6547 99.2809 47.4547 99.3909 47.2547C99.4011 47.2474 99.4133 47.2435 99.4259 47.2435C99.4384 47.2435 99.4507 47.2474 99.4609 47.2547C99.4682 47.2649 99.4721 47.2772 99.4721 47.2897C99.4721 47.3023 99.4682 47.3145 99.4609 47.3247L99.4509 47.3747Z" fill="#4A3059"/>
<g style="mix-blend-mode:multiply" opacity="0.33">
<g style="mix-blend-mode:multiply" opacity="0.67">
<path d="M96.7209 42.3847C96.3676 42.9351 95.9802 43.4628 95.5609 43.9647C95.5609 43.9647 96.4509 44.5947 96.9209 44.0447C97.3909 43.4947 96.7209 42.3847 96.7209 42.3847Z" fill="#F68BD0"/>
</g>
</g>
<g style="mix-blend-mode:multiply" opacity="0.33">
<g style="mix-blend-mode:multiply" opacity="0.67">
<path d="M104.911 42.2847C105.246 42.8286 105.617 43.3497 106.021 43.8447C106.021 43.8447 105.171 44.4447 104.711 43.9147C104.251 43.3847 104.911 42.2847 104.911 42.2847Z" fill="#F68BD0"/>
</g>
</g>
<path d="M103.621 40.2147C103.255 41.0079 102.98 41.8399 102.801 42.6947C102.671 43.5387 102.83 44.4018 103.251 45.1447C103.451 45.5047 103.771 45.8247 104.021 46.2247C104.162 46.4335 104.255 46.6705 104.295 46.9193C104.335 47.168 104.32 47.4224 104.251 47.6647C104.082 48.1281 103.752 48.515 103.321 48.7547C102.931 48.9999 102.501 49.1758 102.051 49.2747C102.02 49.2807 101.989 49.2747 101.963 49.2579C101.937 49.2411 101.918 49.2149 101.911 49.1847C101.907 49.1571 101.913 49.129 101.928 49.1053C101.942 49.0816 101.965 49.0637 101.991 49.0547C102.399 48.9517 102.781 48.7641 103.112 48.5039C103.442 48.2438 103.715 47.917 103.911 47.5447C103.959 47.3578 103.966 47.1627 103.931 46.9728C103.897 46.783 103.821 46.6028 103.711 46.4447C103.501 46.0847 103.191 45.7547 102.961 45.3347C102.511 44.5149 102.352 43.5664 102.511 42.6447C102.726 41.7624 103.062 40.9142 103.511 40.1247C103.516 40.1105 103.525 40.0976 103.535 40.0868C103.546 40.076 103.559 40.0675 103.573 40.0619C103.587 40.0562 103.602 40.0536 103.617 40.0541C103.632 40.0546 103.647 40.0582 103.661 40.0647C103.671 40.0907 103.673 40.1193 103.666 40.1463C103.659 40.1733 103.643 40.1973 103.621 40.2147Z" fill="#4A3059"/>
<path d="M90.6809 38.9647C90.614 39.0784 90.5788 39.2079 90.5788 39.3397C90.5788 39.4716 90.614 39.601 90.6809 39.7147C90.7625 39.7944 90.8642 39.8505 90.9751 39.8769C91.0861 39.9033 91.2021 39.8991 91.3109 39.8647C91.5263 39.7992 91.7292 39.6978 91.9109 39.5647C92.94 38.9092 94.0888 38.4639 95.2909 38.2547C95.68 38.2271 96.0538 38.0921 96.3709 37.8647C96.5232 37.6843 96.6067 37.4558 96.6067 37.2197C96.6067 36.9836 96.5232 36.7551 96.3709 36.5747C94.6409 34.4747 91.2909 37.3647 90.6809 38.9647Z" fill="#EF737E"/>
<path d="M110.301 38.1747C110.367 38.2887 110.401 38.4181 110.401 38.5497C110.401 38.6814 110.367 38.8107 110.301 38.9247C110.224 39.0096 110.127 39.0729 110.018 39.108C109.909 39.1431 109.793 39.1489 109.681 39.1247C109.46 39.0705 109.251 38.9792 109.061 38.8547C107.987 38.2811 106.812 37.9211 105.601 37.7947C105.211 37.7976 104.828 37.6863 104.501 37.4747C104.334 37.3064 104.232 37.0843 104.214 36.8481C104.196 36.6118 104.262 36.3767 104.401 36.1847C106.041 33.9647 109.581 36.6247 110.301 38.1747Z" fill="#EF737E"/>
<path d="M96.8509 51.0347C96.8509 51.0347 101.961 53.4147 105.561 50.5947" stroke="#4A3059" stroke-width="0.29" stroke-linecap="round" stroke-linejoin="round"/>
<path d="M99.5309 53.4647C100.656 53.842 101.879 53.8065 102.981 53.3647" stroke="#4A3059" stroke-width="0.29" stroke-linecap="round" stroke-linejoin="round"/>
<path d="M118.851 33.1247C118.851 30.6047 117.371 28.4147 115.771 26.5847C114.171 24.7547 113.021 22.2347 111.161 20.6447C108.312 18.221 104.77 16.7613 101.041 16.4747C98.9735 16.3585 96.9102 16.7642 95.0409 17.6547C94.2467 18.0375 93.5097 18.5289 92.8509 19.1147C92.136 19.8042 91.5231 20.5921 91.0309 21.4547C89.469 21.3287 87.9185 21.8085 86.7009 22.7947C85.2611 23.7881 84.1642 25.2029 83.5609 26.8447C83.0809 28.2847 82.8909 29.8447 82.4309 31.2647C81.9709 32.6847 80.9809 33.7247 80.6109 35.0547C80.4533 35.7606 80.5132 36.4977 80.7827 37.1689C81.0523 37.8401 81.5188 38.4139 82.1209 38.8147C82.6209 39.1047 83.2109 39.1847 83.7309 39.4347C84.2817 39.6955 84.7934 40.0321 85.2509 40.4347C85.3074 40.49 85.3713 40.5371 85.4409 40.5747C85.4578 40.7296 85.4845 40.8832 85.5209 41.0347C85.7009 41.7847 85.8809 42.5347 86.0709 43.2847C86.1084 43.5056 86.1828 43.7185 86.2909 43.9147C86.3464 44.0128 86.4242 44.0965 86.518 44.159C86.6118 44.2216 86.719 44.2612 86.8309 44.2747C86.9872 44.2549 87.1367 44.1983 87.267 44.1097C87.3974 44.021 87.5049 43.9028 87.5809 43.7647C88.1778 42.7771 88.5214 41.6572 88.5809 40.5047C88.6423 39.357 88.7792 38.2145 88.9909 37.0847C89.102 36.7057 89.179 36.3175 89.2209 35.9247C89.9009 35.2947 90.6509 34.7347 91.3109 34.0747C92.8518 32.493 93.7955 30.4252 93.9809 28.2247C94.0128 27.8922 94.0128 27.5573 93.9809 27.2247C95.2107 29.0939 97.0814 30.449 99.2409 31.0347C100.048 31.1211 100.832 31.3586 101.551 31.7347C102.551 32.4047 102.781 33.7347 103.271 34.7347C103.649 35.563 104.191 36.3058 104.865 36.9178C105.539 37.5298 106.33 37.9983 107.191 38.2947C108.864 38.6952 110.572 38.9363 112.291 39.0147C112.472 40.3011 112.74 41.574 113.091 42.8247C113.171 43.1947 113.351 43.6547 113.731 43.6347C114.111 43.6147 114.181 43.3347 114.301 43.0947C114.879 41.9281 115.39 40.7295 115.831 39.5047C115.891 39.3547 115.941 39.1947 115.991 39.0347C116.833 38.2867 117.52 37.3795 118.011 36.3652C118.502 35.351 118.787 34.2497 118.851 33.1247Z" fill="#EF737E"/>
<path d="M93.7009 63.8547C93.7009 63.8547 96.8809 68.9847 102.701 68.0147C108.521 67.0447 109.131 62.3847 109.131 62.3847L108.761 60.3847C109.599 60.3971 110.415 60.6533 111.109 61.1222C111.804 61.5911 112.346 62.2522 112.671 63.0247C113.574 64.7728 114.304 66.6048 114.851 68.4947C114.851 68.4947 112.391 74.8347 103.851 75.2847C98.7606 75.5627 93.6795 74.5911 89.0509 72.4547C89.0509 72.4547 88.9109 63.4147 94.0109 61.6847L93.7009 63.8547Z" fill="#8B6FED"/>
<path d="M129.911 117.715C128.231 111.515 124.361 108.155 124.741 105.715C125.121 103.275 127.741 75.7147 127.741 75.7147C127.741 75.7147 122.051 68.9847 114.881 68.5347C107.711 68.0847 90.2509 69.2447 90.2509 69.2447C90.2509 69.2447 82.6309 69.8947 77.5909 75.0647C77.0809 75.4647 77.1009 79.3148 77.0709 79.9748C76.5977 86.8844 77.1027 93.8263 78.5709 100.595C79.125 102.743 79.5425 104.924 79.8209 107.125C79.8209 108.125 79.8209 109.025 79.8209 109.805C79.3664 112.296 78.4797 114.689 77.2009 116.875C76.0109 119.205 70.2009 126.595 75.4809 127.605C80.1609 129.765 95.0709 135.965 106.051 132.835C119.241 129.095 119.751 127.665 124.151 126.375C128.551 125.085 131.591 123.965 129.911 117.715Z" fill="#8B6FED"/>
<path d="M126.911 74.8747C127.981 75.6347 129.791 78.8747 130.071 79.3047C131.951 82.2447 133.751 85.3047 135.411 88.3047C138.086 93.1938 140.058 98.4353 141.271 103.875C142.161 108.115 143.811 115.205 138.801 117.555C134.411 119.625 129.111 120.405 126.651 116.555C124.191 112.705 120.971 98.3247 120.971 98.3247C120.971 98.3247 126.741 74.7247 126.911 74.8747Z" fill="#8B6FED"/>
<path d="M77.5609 75.0647C77.5609 75.0647 67.3509 84.6647 67.0609 98.7147C66.9587 107.286 69.4207 115.693 74.1309 122.855L89.7409 118.785L77.5609 75.0647Z" fill="#8B6FED"/>
<path d="M65.7009 89.8947C65.7009 89.8947 70.6409 92.9947 74.8109 92.0247C74.8109 92.0247 80.9209 106.185 80.3409 115.095C79.7609 124.005 75.2009 128.385 69.0009 126.735C62.8009 125.085 60.0809 118.295 60.1709 111.225C60.2609 104.155 65.7009 89.8947 65.7009 89.8947Z" fill="#8B6FED"/>
<path d="M139.731 26.2047L132.491 77.0047" stroke="#4A3059" stroke-width="0.76" stroke-miterlimit="10"/>
<path d="M157.061 32.4747C156.991 33.0247 156.901 33.5847 156.781 34.1247C155.892 38.1947 153.544 41.7986 150.18 44.2568C146.817 46.7149 142.67 47.8574 138.522 47.4687C134.374 47.08 130.512 45.187 127.664 42.1467C124.816 39.1065 123.178 35.1291 123.061 30.9647C123.033 30.1331 123.07 29.3006 123.171 28.4747C123.434 26.2495 124.132 24.0978 125.226 22.1424C126.32 20.187 127.789 18.4664 129.548 17.0786C131.307 15.6908 133.323 14.6631 135.479 14.0542C137.635 13.4453 139.891 13.2671 142.116 13.5297C144.341 13.7924 146.493 14.4907 148.448 15.585C150.404 16.6792 152.124 18.1478 153.512 19.907C154.9 21.6662 155.927 23.6815 156.536 25.8379C157.145 27.9943 157.324 30.2495 157.061 32.4747Z" fill="#EF737E"/>
<g style="mix-blend-mode:multiply" opacity="0.26">
<path d="M135.021 36.7547C134.838 38.3946 134.081 39.9171 132.884 41.0533C131.688 42.1895 130.128 42.8665 128.481 42.9647C126.825 41.4254 125.493 39.5713 124.562 37.5108C123.631 35.4503 123.121 33.2249 123.061 30.9647C124.082 29.8943 125.417 29.175 126.872 28.9101C128.328 28.6453 129.83 28.8485 131.163 29.4905C132.496 30.1326 133.591 31.1805 134.292 32.4838C134.992 33.7871 135.261 35.2788 135.061 36.7447L135.021 36.7547Z" fill="#F68BD0"/>
</g>
<g style="mix-blend-mode:multiply" opacity="0.26">
<path d="M156.781 34.1247C156.283 36.4191 155.315 38.5855 153.938 40.4874C152.561 42.3892 150.805 43.9851 148.781 45.1747C147.811 44.7647 146.946 44.1411 146.251 43.3505C145.555 42.5599 145.047 41.6226 144.764 40.6084C144.481 39.5942 144.431 38.5292 144.616 37.4928C144.802 36.4563 145.219 35.4751 145.837 34.6222C146.454 33.7694 147.256 33.0668 148.183 32.5668C149.109 32.0668 150.137 31.7823 151.189 31.7345C152.241 31.6866 153.29 31.8767 154.258 32.2906C155.226 32.7044 156.089 33.3314 156.781 34.1247Z" fill="#F68BD0"/>
</g>
<path d="M130.911 30.1247C130.693 30.2275 130.508 30.3883 130.376 30.5894C130.243 30.7905 130.169 31.0242 130.161 31.2647C130.183 31.4912 130.262 31.7086 130.389 31.8971C130.517 32.0857 130.689 32.2395 130.891 32.3447C131.298 32.5526 131.738 32.688 132.191 32.7447L134.741 33.2247C135.271 33.3247 135.901 33.3847 136.241 32.9747C136.326 32.8504 136.382 32.7085 136.404 32.5596C136.427 32.4107 136.415 32.2586 136.371 32.1147C136.275 31.8283 136.115 31.5681 135.901 31.3547C135.294 30.6648 134.491 30.1772 133.599 29.9573C132.707 29.7374 131.769 29.7959 130.911 30.1247Z" fill="#4A3059"/>
<path d="M148.911 32.9647C149.097 33.1196 149.234 33.3239 149.309 33.554C149.383 33.7841 149.391 34.0305 149.331 34.2647C149.246 34.4764 149.111 34.6639 148.937 34.8105C148.762 34.9571 148.554 35.0582 148.331 35.1047C147.881 35.1797 147.421 35.1797 146.971 35.1047L144.381 34.9647C143.851 34.9647 143.221 34.7947 143.021 34.3047C142.967 34.1639 142.949 34.0122 142.966 33.8625C142.983 33.7129 143.036 33.5696 143.121 33.4447C143.29 33.1923 143.516 32.9833 143.781 32.8347C144.546 32.3283 145.449 32.0692 146.366 32.0924C147.284 32.1157 148.172 32.4202 148.911 32.9647Z" fill="#4A3059"/>
<path d="M149.071 28.9647C148.915 29.1658 148.708 29.3212 148.471 29.4147C147.476 29.9173 146.362 30.1354 145.251 30.0447C144.901 30.0447 144.481 29.9047 144.381 29.5647C144.281 29.2247 144.571 28.8947 144.851 28.6847C145.831 27.962 147.035 27.608 148.251 27.6847C148.444 27.6839 148.635 27.7249 148.811 27.8047C148.995 27.9274 149.125 28.1165 149.174 28.3326C149.222 28.5487 149.185 28.7751 149.071 28.9647Z" fill="#4A3059"/>
<path d="M132.481 26.6247C132.588 26.8534 132.749 27.0525 132.951 27.2047C133.808 27.9241 134.845 28.3945 135.951 28.5647C136.301 28.5647 136.731 28.5647 136.951 28.2947C137.171 28.0247 136.951 27.6047 136.701 27.2947C135.925 26.3512 134.842 25.7106 133.641 25.4847C133.45 25.4448 133.252 25.4448 133.061 25.4847C132.945 25.5173 132.838 25.5734 132.745 25.6497C132.652 25.7259 132.576 25.8206 132.521 25.9277C132.467 26.0348 132.435 26.152 132.428 26.272C132.421 26.3919 132.439 26.512 132.481 26.6247Z" fill="#4A3059"/>
<path d="M136.251 37.8247C136.725 37.3933 137.291 37.076 137.906 36.897C138.521 36.7181 139.169 36.6822 139.8 36.7922C140.431 36.9023 141.029 37.1552 141.547 37.5318C142.066 37.9083 142.491 38.3985 142.791 38.9647C142.813 39.01 142.826 39.0591 142.829 39.1094C142.831 39.1596 142.824 39.2099 142.807 39.2573C142.791 39.3048 142.765 39.3484 142.731 39.3857C142.697 39.4231 142.656 39.4533 142.611 39.4747C142.533 39.5167 142.444 39.5297 142.357 39.5114C142.271 39.4931 142.194 39.4446 142.141 39.3747C141.538 38.5449 140.639 37.9784 139.631 37.7923C138.622 37.6062 137.58 37.8147 136.721 38.3747C136.641 38.4241 136.545 38.4419 136.453 38.4249C136.36 38.4078 136.277 38.357 136.22 38.2824C136.163 38.2077 136.135 38.1145 136.143 38.0207C136.15 37.9269 136.192 37.8393 136.261 37.7747L136.251 37.8247Z" fill="#4A3059"/>
<path d="M140.181 5.13471L145.591 5.07471C145.692 5.07471 145.788 5.11474 145.86 5.18601C145.931 5.25727 145.971 5.35392 145.971 5.45471C145.97 5.5117 145.957 5.56781 145.932 5.61947C145.908 5.67112 145.874 5.71718 145.831 5.75471L141.911 8.90471L141.701 8.22471L145.201 8.43471C145.25 8.43722 145.299 8.44966 145.343 8.47128C145.388 8.4929 145.428 8.52327 145.461 8.56059C145.493 8.5979 145.518 8.64139 145.534 8.68848C145.549 8.73557 145.555 8.7853 145.551 8.83471C145.546 8.90503 145.526 8.97338 145.491 9.03471L143.441 12.0347C143.382 12.1164 143.295 12.1725 143.196 12.1911C143.097 12.2097 142.995 12.1895 142.911 12.1347C142.869 12.1066 142.834 12.0705 142.806 12.0286C142.779 11.9867 142.76 11.9398 142.751 11.8905C142.741 11.8413 142.742 11.7906 142.752 11.7416C142.762 11.6925 142.782 11.646 142.811 11.6047L144.811 8.60471L145.101 9.19471L141.661 8.96471C141.611 8.9622 141.563 8.94976 141.518 8.92813C141.474 8.90651 141.434 8.87614 141.401 8.83883C141.369 8.80152 141.344 8.75802 141.328 8.71093C141.313 8.66384 141.307 8.61412 141.311 8.56471C141.312 8.51207 141.326 8.46045 141.35 8.41371C141.374 8.36696 141.409 8.32628 141.451 8.29471L145.371 5.14471L145.631 5.81471L140.251 6.34471C140.087 6.35873 139.924 6.30797 139.797 6.20331C139.67 6.09865 139.589 5.94839 139.571 5.78471C139.557 5.62174 139.608 5.45989 139.713 5.3344C139.818 5.20891 139.968 5.12994 140.131 5.11471L140.181 5.13471Z" fill="#4A3059"/>
<path d="M152.741 7.24472L156.381 10.5547C156.448 10.6268 156.485 10.7215 156.485 10.8197C156.485 10.918 156.448 11.0126 156.381 11.0847C156.344 11.1274 156.298 11.1605 156.246 11.1814C156.193 11.2023 156.137 11.2103 156.081 11.2047L150.791 10.8947L151.091 10.2647L153.201 12.5547C153.236 12.5892 153.264 12.6304 153.284 12.6759C153.303 12.7214 153.313 12.7703 153.313 12.8197C153.313 12.8691 153.303 12.918 153.284 12.9635C153.264 13.009 153.236 13.0502 153.201 13.0847C153.151 13.1322 153.089 13.1636 153.021 13.1747L149.021 13.9447C148.972 13.9548 148.922 13.955 148.873 13.9453C148.824 13.9356 148.778 13.9162 148.737 13.8882C148.696 13.8602 148.661 13.8242 148.634 13.7823C148.607 13.7405 148.589 13.6937 148.581 13.6447C148.572 13.5968 148.573 13.5476 148.584 13.5C148.594 13.4524 148.614 13.4074 148.642 13.3674C148.669 13.3275 148.705 13.2934 148.746 13.2672C148.787 13.241 148.833 13.2232 148.881 13.2147L152.881 12.4547L152.681 13.0747L150.561 10.7847C150.492 10.7138 150.453 10.6187 150.453 10.5197C150.453 10.4207 150.492 10.3257 150.561 10.2547C150.639 10.1884 150.738 10.1528 150.841 10.1547L156.121 10.4747L155.861 11.1347L151.931 8.18472C151.865 8.13744 151.809 8.0777 151.767 8.00889C151.724 7.94009 151.696 7.86357 151.683 7.78372C151.67 7.70386 151.673 7.62222 151.691 7.54347C151.71 7.46471 151.744 7.39038 151.791 7.32472C151.838 7.25906 151.898 7.20335 151.967 7.16078C152.035 7.11821 152.112 7.08961 152.192 7.07661C152.272 7.06361 152.353 7.06646 152.432 7.08501C152.511 7.10356 152.585 7.13744 152.651 7.18472L152.741 7.24472Z" fill="#4A3059"/>
<path d="M128.391 69.7647C127.689 70.0633 127.071 70.5278 126.588 71.1183C126.106 71.7088 125.774 72.4076 125.621 73.1547C125.331 75.5347 125.281 78.6347 126.301 78.7847C127.321 78.9347 129.911 75.3347 129.911 75.3347L128.431 69.9647" fill="#F79392"/>
<path style="mix-blend-mode:multiply" opacity="0.5" d="M128.391 69.7647C127.689 70.0633 127.071 70.5278 126.588 71.1183C126.106 71.7088 125.774 72.4076 125.621 73.1547C125.331 75.5347 125.281 78.6347 126.301 78.7847C127.321 78.9347 129.911 75.3347 129.911 75.3347L128.431 69.9647" fill="url(#paint0_linear)"/>
<path d="M134.691 90.7647C134.691 90.7647 130.691 87.6647 130.621 85.4047C130.703 83.293 130.985 81.1937 131.461 79.1347C131.461 79.1347 129.781 79.2047 129.581 78.0347C129.47 77.3236 129.515 76.5971 129.711 75.9047C129.711 75.9047 127.971 74.7447 128.291 73.2547C128.385 72.6313 128.56 72.0229 128.811 71.4447C128.811 71.4447 127.261 70.0847 128.221 68.5347C129.181 66.9847 136.301 67.9547 136.301 67.9547C136.301 67.9547 138.181 70.2847 138.301 72.1547C138.421 74.0247 137.461 84.7547 137.461 84.7547L139.331 87.7547C139.331 87.7547 136.911 91.3447 134.691 90.7647Z" fill="#F79392"/>
<path d="M128.811 71.4447C130.643 70.9275 132.529 70.6255 134.431 70.5447" stroke="#4A3059" stroke-width="0.29" stroke-linecap="round" stroke-linejoin="round"/>
<path d="M129.711 75.9047C131.246 74.9672 133.024 74.5045 134.821 74.5747" stroke="#4A3059" stroke-width="0.29" stroke-linecap="round" stroke-linejoin="round"/>
<path d="M133.491 78.4847C132.853 78.7824 132.182 79.0007 131.491 79.1347C131.985 79.3941 132.554 79.4753 133.101 79.3647" stroke="#4A3059" stroke-width="0.29" stroke-linecap="round" stroke-linejoin="round"/>
<path d="M132.101 90.4447C132.101 90.4447 134.301 90.9647 140.501 86.9547C140.501 86.9547 150.711 102.465 148.501 109.185C146.291 115.905 139.191 120.045 133.121 119.185C127.051 118.325 132.101 90.4447 132.101 90.4447Z" fill="#8B6FED"/>
<path d="M140.501 86.9647C140.501 86.9647 135.201 90.5847 131.911 90.8747C131.911 90.8747 127.451 102.605 131.041 112.295" stroke="#4A3059" stroke-width="0.29" stroke-linecap="round" stroke-linejoin="round"/>
<path d="M136.241 118.965C136.957 115.927 138.509 113.151 140.722 110.951C142.935 108.751 145.72 107.214 148.761 106.515" stroke="#4A3059" stroke-width="0.29" stroke-linecap="round" stroke-linejoin="round"/>
<path d="M56.9809 31.2747L73.6409 79.8047" stroke="#4A3059" stroke-width="0.76" stroke-miterlimit="10"/>
<path d="M75.2609 28.9647C75.458 29.489 75.6282 30.0231 75.7709 30.5647C76.8198 34.591 76.3621 38.8617 74.4838 42.5742C72.6056 46.2867 69.4361 49.1854 65.571 50.7255C61.7059 52.2657 57.4115 52.3411 53.4947 50.9378C49.5779 49.5345 46.3085 46.7489 44.3009 43.1047C43.9136 42.373 43.5794 41.6144 43.3009 40.8347C42.4161 38.7146 41.9687 36.4375 41.9855 34.1402C42.0022 31.8429 42.4828 29.5726 43.3984 27.4656C44.314 25.3585 45.6458 23.4581 47.3138 21.8783C48.9818 20.2985 50.9517 19.0719 53.1053 18.272C55.259 17.4722 57.552 17.1155 59.8468 17.2235C62.1417 17.3315 64.3911 17.9019 66.4601 18.9004C68.5291 19.899 70.3751 21.3051 71.8874 23.0345C73.3997 24.764 74.5472 26.781 75.2609 28.9647Z" fill="#B892FF"/>
<g style="mix-blend-mode:multiply" opacity="0.26">
<path d="M57.5809 42.8147C58.1568 44.3554 58.1718 46.0497 57.6232 47.6004C57.0746 49.151 55.9975 50.459 54.5809 51.2947C52.4125 50.6765 50.3883 49.6343 48.6255 48.2285C46.8626 46.8227 45.3961 45.0811 44.3109 43.1047C44.7445 41.7006 45.6092 40.4685 46.7822 39.5832C47.9552 38.6979 49.3771 38.2042 50.8463 38.1721C52.3156 38.14 53.7577 38.5711 54.9682 39.4044C56.1787 40.2377 57.0963 41.4308 57.5909 42.8147H57.5809Z" fill="#F68BD0"/>
</g>
<g style="mix-blend-mode:multiply" opacity="0.26">
<path d="M75.7709 30.5647C76.3707 32.8392 76.492 35.2134 76.1271 37.5371C75.7622 39.8609 74.919 42.0836 73.6509 44.0647C72.6045 44.131 71.5566 43.9614 70.5846 43.5685C69.6126 43.1755 68.7412 42.5693 68.0349 41.7944C67.3286 41.0196 66.8054 40.096 66.5038 39.0918C66.2023 38.0876 66.1302 37.0285 66.2929 35.9928C66.4555 34.957 66.8488 33.971 67.4436 33.1076C68.0384 32.2442 68.8195 31.5254 69.7293 31.0044C70.6391 30.4833 71.6544 30.1733 72.7001 30.0972C73.7458 30.0211 74.7952 30.1809 75.7709 30.5647Z" fill="#F68BD0"/>
</g>
<path d="M50.9109 38.7747C50.764 38.9661 50.6723 39.194 50.6459 39.4338C50.6195 39.6735 50.6592 39.916 50.7609 40.1347C50.8839 40.3281 51.0539 40.4873 51.2549 40.5975C51.456 40.7076 51.6816 40.7651 51.9109 40.7647C52.3669 40.7591 52.8191 40.6815 53.2509 40.5347L55.7409 39.7947C56.2609 39.6447 56.8509 39.4147 56.9609 38.8947C56.9815 38.745 56.968 38.5925 56.9212 38.4487C56.8744 38.3049 56.7957 38.1737 56.6909 38.0647C56.477 37.8541 56.2167 37.6965 55.9309 37.6047C55.075 37.262 54.1346 37.1905 53.2368 37.3997C52.3389 37.609 51.527 38.089 50.9109 38.7747Z" fill="#4A3059"/>
<path d="M68.2509 33.1447C68.4963 33.1971 68.7213 33.3194 68.8987 33.4968C69.0762 33.6743 69.1985 33.8993 69.2509 34.1447C69.276 34.3717 69.2423 34.6013 69.153 34.8115C69.0637 35.0217 68.9218 35.2053 68.7409 35.3447C68.3717 35.624 67.955 35.8341 67.5109 35.9647L65.1009 36.9647C64.6009 37.1647 63.9909 37.3447 63.5809 36.9647C63.4721 36.8596 63.3886 36.7312 63.3366 36.5892C63.2847 36.4471 63.2656 36.2952 63.2809 36.1447C63.3224 35.844 63.4318 35.5568 63.6009 35.3047C64.0628 34.5131 64.756 33.8818 65.5872 33.4957C66.4185 33.1096 67.348 32.9871 68.2509 33.1447Z" fill="#4A3059"/>
<path d="M66.7509 30.7147C66.5686 30.8949 66.3456 31.0286 66.1009 31.1047C65.0543 31.4848 63.9244 31.5747 62.8309 31.3647C62.4909 31.2947 62.0809 31.1247 62.0209 30.7747C61.9609 30.4247 62.2809 30.1447 62.5809 29.9647C63.6344 29.342 64.8729 29.1084 66.0809 29.3047C66.2717 29.3315 66.4553 29.3961 66.6209 29.4947C66.7104 29.5657 66.7848 29.6537 66.8399 29.7538C66.895 29.8539 66.9296 29.9639 66.9417 30.0774C66.9538 30.191 66.9432 30.3059 66.9104 30.4153C66.8776 30.5247 66.8234 30.6265 66.7509 30.7147Z" fill="#4A3059"/>
<path d="M51.4809 36.1247C51.733 36.1259 51.9823 36.0712 52.2109 35.9647C53.2308 35.5194 54.1068 34.7993 54.7409 33.8847C54.9409 33.5947 55.1209 33.1947 54.9209 32.8847C54.7209 32.5747 54.2909 32.6047 53.9209 32.6847C52.7125 32.9681 51.6472 33.6784 50.9209 34.6847C50.7993 34.8345 50.7107 35.0083 50.6609 35.1947C50.6527 35.3098 50.6676 35.4254 50.7045 35.5347C50.7415 35.644 50.7998 35.7449 50.8761 35.8314C50.9525 35.918 51.0452 35.9885 51.149 36.0388C51.2529 36.0892 51.3657 36.1184 51.4809 36.1247Z" fill="#4A3059"/>
<path d="M59.1709 43.2047C59.3961 42.6038 59.7567 42.0627 60.2246 41.6236C60.6926 41.1844 61.2554 40.8589 61.8695 40.6723C62.4835 40.4857 63.1323 40.4429 63.7655 40.5474C64.3987 40.6519 64.9993 40.9007 65.5209 41.2747C65.5619 41.3035 65.5967 41.3403 65.6231 41.3829C65.6495 41.4255 65.667 41.473 65.6745 41.5226C65.682 41.5721 65.6793 41.6227 65.6666 41.6712C65.654 41.7197 65.6316 41.7651 65.6009 41.8047C65.5488 41.8764 65.4733 41.9276 65.3875 41.9495C65.3017 41.9714 65.2109 41.9626 65.1309 41.9247C64.22 41.4805 63.1744 41.3987 62.2054 41.6957C61.2365 41.9927 60.4164 42.6464 59.9109 43.5247C59.8571 43.6114 59.7715 43.6736 59.6724 43.6979C59.5733 43.7222 59.4687 43.7067 59.3809 43.6547C59.2963 43.6191 59.228 43.5533 59.1892 43.4702C59.1504 43.387 59.1438 43.2924 59.1709 43.2047Z" fill="#4A3059"/>
<path d="M44.6309 29.1447C44.8109 27.7847 44.8609 26.1447 43.7409 25.3747C42.6209 24.6047 40.8309 25.3747 39.3409 25.7247C38.2426 25.9564 37.0999 25.8495 36.0635 25.4183C35.0272 24.9871 34.146 24.2518 33.5362 23.3094C32.9264 22.3671 32.6166 21.262 32.6478 20.14C32.679 19.0179 33.0496 17.9318 33.7109 17.0247C34.0736 16.4975 34.5488 16.0572 35.1021 15.7356C35.6554 15.414 36.2732 15.219 36.9109 15.1647C39.2409 15.0647 41.1609 17.5947 40.7809 19.8947C40.523 21.0272 39.9127 22.0487 39.0376 22.8124C38.1625 23.5761 37.0678 24.0426 35.9109 24.1447C35.1912 24.2342 34.4607 24.1661 33.77 23.9451C33.0793 23.724 32.4449 23.3554 31.9109 22.8647C31.4032 22.3679 31.0645 21.7241 30.9424 21.0243C30.8204 20.3245 30.9213 19.6041 31.2309 18.9647C31.8746 18.0663 32.7633 17.372 33.7909 16.9647C34.8174 16.5539 35.6933 15.8385 36.3009 14.9147C36.8109 13.9147 36.4909 12.4647 35.4309 12.1747C35.0579 12.1294 34.6796 12.164 34.321 12.276C33.9624 12.3881 33.6317 12.5751 33.3509 12.8247C31.5542 13.9627 30.1238 15.5945 29.2309 17.5247C28.8023 18.4948 28.6386 19.5612 28.7562 20.6151C28.8739 21.6691 29.2689 22.6731 29.9009 23.5247C30.588 24.2616 31.4524 24.8102 32.4117 25.1183C33.371 25.4264 34.3932 25.4837 35.3809 25.2847C36.4042 25.1434 37.3727 24.7368 38.1902 24.1052C39.0077 23.4737 39.6457 22.6392 40.0409 21.6847C40.4123 20.7095 40.3989 19.6295 40.0034 18.6639C39.6078 17.6982 38.8597 16.9191 37.9109 16.4847C37.0481 16.2138 36.1145 16.2823 35.3005 16.6762C34.4865 17.0702 33.8536 17.76 33.5309 18.6047C33.3861 19.024 33.3361 19.4702 33.3846 19.9112C33.433 20.3521 33.5786 20.7768 33.8109 21.1547C34.0538 21.5262 34.3999 21.8188 34.8067 21.9964C35.2135 22.174 35.6633 22.2291 36.1009 22.1547C37.6309 21.8447 38.2409 20.0247 38.5409 18.4947C38.8409 16.9647 39.3509 15.1347 40.8509 14.7047C41.342 14.5948 41.8545 14.6309 42.3254 14.8086C42.7962 14.9863 43.2048 15.2978 43.5009 15.7047C44.0898 16.5291 44.3695 17.5346 44.2909 18.5447C44.1709 22.0247 41.3809 24.8847 38.2909 26.4647C37.1941 27.0606 35.9775 27.4023 34.7309 27.4647C34.1065 27.4991 33.4826 27.3899 32.907 27.1455C32.3315 26.9011 31.8197 26.5279 31.4109 26.0547C30.2009 24.5047 30.6709 22.1647 31.8709 20.6147C33.1788 19.1827 34.6919 17.9527 36.3609 16.9647C37.7109 15.9647 39.1309 14.4947 38.6309 12.9647C38.4298 12.4633 38.0875 12.031 37.6455 11.7203C37.2035 11.4097 36.6808 11.234 36.1409 11.2147C35.0562 11.1974 33.9853 11.4591 33.0309 11.9747C31.092 12.7694 29.5169 14.2553 28.6109 16.1447C27.8509 18.0747 28.4809 20.6347 30.3709 21.4947C31.0973 21.7612 31.8802 21.8359 32.644 21.7115C33.4077 21.5872 34.1265 21.268 34.7309 20.7847C35.9125 19.7946 36.9257 18.6194 37.7309 17.3047C38.2018 16.5651 38.7894 15.9065 39.4709 15.3547C39.8165 15.0834 40.22 14.8953 40.6501 14.8051C41.0802 14.7149 41.5253 14.7251 41.9509 14.8347C43.5209 15.3447 43.9509 17.4547 43.4409 19.0247C42.8346 20.7343 41.6818 22.1963 40.1609 23.1847C38.6479 24.1662 37.0099 24.9398 35.2909 25.4847C33.6009 26.0847 31.6209 26.5847 30.1009 25.6347C29.4582 25.1899 28.9753 24.5504 28.7233 23.8105C28.4713 23.0707 28.4634 22.2694 28.7009 21.5247C28.9607 20.7866 29.3901 20.1198 29.9546 19.5779C30.519 19.0361 31.2028 18.6342 31.9509 18.4047C33.1877 18.0887 34.4551 17.9077 35.7309 17.8647C37.0179 17.8241 38.261 17.3876 39.2909 16.6147C39.7902 16.2128 40.1334 15.6491 40.2612 15.021C40.389 14.3929 40.2934 13.7398 39.9909 13.1747C39.6889 12.7876 39.2836 12.4939 38.8217 12.3276C38.3598 12.1612 37.8603 12.129 37.3809 12.2347C36.4197 12.461 35.5549 12.9862 34.9109 13.7347C33.7221 15.0753 33.0178 16.7762 32.9109 18.5647C32.8143 19.5705 33.005 20.583 33.4609 21.4847C33.6944 21.9306 34.0298 22.3152 34.4399 22.6071C34.8499 22.899 35.3231 23.0901 35.8209 23.1647C36.5227 23.1682 37.2136 22.9905 37.8267 22.6489C38.4398 22.3073 38.9545 21.8134 39.3209 21.2147C40.4509 19.6947 40.9609 17.3447 39.5909 16.0347C39.2162 15.7068 38.7671 15.4754 38.2826 15.3603C37.7982 15.2453 37.293 15.2503 36.8109 15.3747C35.8416 15.6272 34.9791 16.1846 34.3509 16.9647C33.4109 18.0847 32.9609 19.9647 34.0309 20.9147C35.1009 21.8647 36.7909 21.3447 37.7609 20.3547C38.0573 20.0863 38.2947 19.7593 38.4583 19.3944C38.6218 19.0295 38.7078 18.6346 38.7109 18.2347C38.6965 17.836 38.5337 17.457 38.2544 17.1721C37.975 16.8872 37.5993 16.7169 37.2009 16.6947C36.9567 16.7339 36.7284 16.8408 36.542 17.0034C36.3557 17.166 36.2187 17.3776 36.1468 17.6142C36.0749 17.8508 36.0709 18.1029 36.1353 18.3417C36.1996 18.5804 36.3298 18.7963 36.5109 18.9647C36.7229 19.0948 36.9673 19.1624 37.2161 19.1596C37.4648 19.1568 37.7077 19.0837 37.9167 18.9489C38.1257 18.8141 38.2924 18.6229 38.3975 18.3975C38.5027 18.1721 38.5419 17.9215 38.5109 17.6747" stroke="#4A3059" stroke-width="0.66" stroke-linecap="round" stroke-linejoin="round"/>
<path d="M67.2609 88.8447C67.2609 88.8447 66.4009 74.4347 67.1109 72.9647C67.8209 71.4947 70.9109 68.8247 71.9109 68.6047C72.9109 68.3847 80.0109 73.2247 80.0809 74.5047C80.1509 75.7847 80.2909 79.8947 78.8709 81.5047C78.0231 82.5097 76.8333 83.1652 75.5309 83.3447C75.641 84.8749 75.4298 86.4111 74.9109 87.8547C74.0585 89.5281 73.0221 91.1012 71.8209 92.5447L66.9109 90.6347L67.2609 88.8447Z" fill="#F79392"/>
<path d="M72.9109 71.8947C72.9109 71.8947 78.4609 74.8047 80.2109 76.4247" stroke="#4A3059" stroke-width="0.29" stroke-linecap="round" stroke-linejoin="round"/>
<path d="M71.9109 75.0647C71.9109 75.0647 77.9109 78.0647 79.8209 79.1847" stroke="#4A3059" stroke-width="0.29" stroke-linecap="round" stroke-linejoin="round"/>
<path d="M71.3709 78.9948L78.5909 81.7048" stroke="#4A3059" stroke-width="0.29" stroke-linecap="round" stroke-linejoin="round"/>
<path d="M73.1609 83.6547C73.96 83.6853 74.7591 83.5943 75.5309 83.3847C75.0815 83.739 74.5954 84.0441 74.0809 84.2947" stroke="#4A3059" stroke-width="0.29" stroke-linecap="round" stroke-linejoin="round"/>
<path d="M89.2509 69.2747C90.3076 71.2142 92.0303 72.706 94.1009 73.4747C96.1541 74.239 98.3206 74.6547 100.511 74.7047" stroke="#4A3059" stroke-width="0.29" stroke-linecap="round" stroke-linejoin="round"/>
<path d="M109.731 72.6847C111.72 71.8133 113.444 70.4338 114.731 68.6847" stroke="#4A3059" stroke-width="0.29" stroke-linecap="round" stroke-linejoin="round"/>
<path d="M122.281 83.9647C123.941 85.8947 126.221 90.0347 126.511 92.5647C126.717 95.1036 126.623 97.6579 126.231 100.175C125.916 102.118 125.776 104.086 125.811 106.055C126.071 110.625 128.421 114.785 130.711 118.755" stroke="#4A3059" stroke-width="0.29" stroke-linecap="round" stroke-linejoin="round"/>
<path d="M124.911 84.2647C125.454 86.1635 125.767 88.121 125.841 90.0947" stroke="#4A3059" stroke-width="0.29" stroke-linecap="round" stroke-linejoin="round"/>
<path d="M82.3409 84.1647C80.4613 88.314 79.4408 92.8007 79.3409 97.3547C79.0991 101.814 79.1626 106.284 79.5309 110.735" stroke="#4A3059" stroke-width="0.29" stroke-linecap="round" stroke-linejoin="round"/>
<path d="M79.4009 85.2448C79.1212 87.3758 79.3403 89.5428 80.0409 91.5748" stroke="#4A3059" stroke-width="0.29" stroke-linecap="round" stroke-linejoin="round"/>
<path d="M65.7009 89.8947C68.6222 91.8032 72.0044 92.888 75.4909 93.0347C78.3375 98.86 79.711 105.295 79.4909 111.775C79.4909 111.775 79.5509 118.005 77.0309 122.775" stroke="#4A3059" stroke-width="0.29" stroke-linecap="round" stroke-linejoin="round"/>
<path d="M60.4209 114.465C63.4546 115.079 66.2239 116.617 68.349 118.868C70.4741 121.118 71.851 123.971 72.2909 127.035" stroke="#4A3059" stroke-width="0.29" stroke-linecap="round" stroke-linejoin="round"/>
<path d="M89.5409 15.6847C89.6846 15.8269 89.8607 15.9322 90.054 15.9914C90.2473 16.0506 90.4522 16.062 90.6509 16.0247C90.7978 15.9524 90.921 15.8396 91.006 15.6997C91.0911 15.5597 91.1344 15.3984 91.1309 15.2347C91.1197 14.9089 91.0414 14.5889 90.9009 14.2947C89.7495 11.3568 88.3231 8.5343 86.6409 5.8647C86.1409 5.0747 84.9909 3.6947 84.0609 4.7347C83.3309 5.5447 84.2209 7.7947 84.5109 8.6547C85.4445 11.4495 87.1971 13.8989 89.5409 15.6847Z" fill="#4A3059"/>
<path d="M107.441 14.6047C107.287 14.7344 107.103 14.8248 106.907 14.8684C106.71 14.9119 106.505 14.9072 106.311 14.8547C106.169 14.7728 106.055 14.652 105.98 14.5065C105.906 14.3611 105.875 14.1973 105.891 14.0347C105.922 13.711 106.021 13.3975 106.181 13.1147C107.552 10.272 109.186 7.56356 111.061 5.0247C111.611 4.2747 112.871 3.0247 113.721 4.0947C114.391 4.9547 113.331 7.0947 112.981 7.9647C111.847 10.6867 109.916 13.0016 107.441 14.6047Z" fill="#4A3059"/>
<path d="M96.6209 1.63472C96.5959 1.96758 96.5959 2.30185 96.6209 2.63472C96.7003 4.51223 96.9615 6.37762 97.4009 8.20472C97.7609 9.64472 98.0409 11.4347 99.0809 12.5647C99.1489 12.6352 99.2342 12.6866 99.3282 12.7138C99.4223 12.741 99.5218 12.7431 99.617 12.7198C99.7121 12.6966 99.7994 12.6488 99.8703 12.5812C99.9412 12.5136 99.9931 12.4286 100.021 12.3347C100.591 10.1531 100.75 7.88457 100.491 5.64472C100.359 4.52734 100.131 3.42332 99.8109 2.34472C99.5709 1.56472 99.3509 0.454718 98.5309 0.0647184C98.3484 0.0072202 98.1561 -0.0122657 97.9658 0.00746372C97.7755 0.0271931 97.5912 0.085719 97.4244 0.179428C97.2576 0.273138 97.1118 0.400041 96.9959 0.552306C96.8801 0.70457 96.7967 0.878963 96.7509 1.06472C96.6858 1.24911 96.6422 1.44036 96.6209 1.63472Z" fill="#4A3059"/>
<defs>
<linearGradient id="paint0_linear" x1="125.441" y1="74.2747" x2="129.941" y2="74.2747" gradientUnits="userSpaceOnUse">
<stop offset="0.01" stop-color="#F79392" stop-opacity="0"/>
<stop offset="1" stop-color="#EF737E"/>
</linearGradient>
</defs>
</svg>
